GeoramaCondensed-SemiBold.ufo
<glyph name="exclam" format="2">
  <advance width="181.74"/>
  <unicode hex="0021"/>
  <outline>
    <contour>
      <point x="41.545" y="261.25" type="line"/>
      <point x="139.59" y="261.25" type="line"/>
      <point x="148.60999999999999" y="740.0" type="line"/>
      <point x="34.01" y="740.0" type="line"/>
    </contour>
    <contour>
      <point x="29.435" y="66.28" type="curve" smooth="yes"/>
      <point x="29.435" y="16.345000000000002"/>
      <point x="46.26499999999999" y="-5.555"/>
      <point x="90.87" y="-5.555" type="curve" smooth="yes"/>
      <point x="135.925" y="-5.555"/>
      <point x="152.30500000000004" y="16.345000000000002"/>
      <point x="152.30500000000004" y="66.28" type="curve" smooth="yes"/>
      <point x="152.30500000000004" y="116.765"/>
      <point x="135.925" y="138.66500000000002"/>
      <point x="90.87" y="138.66500000000002" type="curve" smooth="yes"/>
      <point x="45.815" y="138.66500000000002"/>
      <point x="29.435" y="116.765"/>
    </contour>
  </outline>
</glyph>
<glyph name="numbersign" format="2">
  <advance width="413.42999999999995"/>
  <unicode hex="0023"/>
  <outline>
    <contour>
      <point x="44.61000000000001" y="432.535" type="line"/>
      <point x="96.92999999999999" y="432.535" type="line"/>
      <point x="77.065" y="261.66" type="line"/>
      <point x="25.27" y="261.66" type="line"/>
      <point x="25.27" y="165.135" type="line"/>
      <point x="69.935" y="165.135" type="line"/>
      <point x="52.815000000000005" y="0.0" type="line"/>
      <point x="140.74" y="0.0" type="line"/>
      <point x="157.86000000000004" y="165.135" type="line"/>
      <point x="222.23000000000002" y="165.135" type="line"/>
      <point x="205.10999999999999" y="0.0" type="line"/>
      <point x="293.035" y="0.0" type="line"/>
      <point x="310.155" y="165.135" type="line"/>
      <point x="368.875" y="165.135" type="line"/>
      <point x="368.875" y="261.66" type="line"/>
      <point x="317.285" y="261.66" type="line"/>
      <point x="337.15" y="432.535" type="line"/>
      <point x="388.21500000000003" y="432.535" type="line"/>
      <point x="388.21500000000003" y="529.94" type="line"/>
      <point x="344.585" y="529.94" type="line"/>
      <point x="362.415" y="700.0" type="line"/>
      <point x="274.49" y="700.0" type="line"/>
      <point x="256.66" y="529.94" type="line"/>
      <point x="192.29" y="529.94" type="line"/>
      <point x="210.11999999999998" y="700.0" type="line"/>
      <point x="122.19500000000001" y="700.0" type="line"/>
      <point x="104.36500000000001" y="529.94" type="line"/>
      <point x="44.61000000000001" y="529.94" type="line"/>
    </contour>
    <contour>
      <point x="184.855" y="432.535" type="line"/>
      <point x="249.22499999999997" y="432.535" type="line"/>
      <point x="229.36" y="261.66" type="line"/>
      <point x="164.99" y="261.66" type="line"/>
    </contour>
  </outline>
</glyph>
<glyph name="dollar" format="2">
  <advance width="413.42999999999995"/>
  <unicode hex="0024"/>
  <outline>
    <contour>
      <point x="182.19500000000002" y="-10.0" type="curve" smooth="yes"/>
      <point x="288.845" y="-10.65"/>
      <point x="380.345" y="41.55"/>
      <point x="380.345" y="173.17" type="curve" smooth="yes"/>
      <point x="380.345" y="287.50000000000006"/>
      <point x="317.11" y="343.875"/>
      <point x="251.995" y="392.495" type="curve" smooth="yes"/>
      <point x="197.365" y="434.74999999999994"/>
      <point x="154.28500000000003" y="472.43500000000006"/>
      <point x="154.28500000000003" y="532.685" type="curve" smooth="yes"/>
      <point x="154.28500000000003" y="579.03"/>
      <point x="180.80500000000004" y="604.0"/>
      <point x="232.77500000000003" y="604.0" type="curve" smooth="yes"/>
      <point x="269.39" y="604.0"/>
      <point x="306.92499999999995" y="596.62"/>
      <point x="338.34999999999997" y="584.165" type="curve"/>
      <point x="361.22" y="682.15" type="line"/>
      <point x="327.95500000000004" y="698.265"/>
      <point x="272.465" y="710.0"/>
      <point x="217.09" y="710.0" type="curve" smooth="yes"/>
      <point x="109.495" y="709.91"/>
      <point x="42.620000000000005" y="642.1200000000001"/>
      <point x="42.620000000000005" y="530.845" type="curve" smooth="yes"/>
      <point x="42.620000000000005" y="423.46500000000003"/>
      <point x="97.765" y="361.90999999999997"/>
      <point x="157.195" y="312.14500000000004" type="curve" smooth="yes"/>
      <point x="218.58499999999998" y="263.7"/>
      <point x="270.31000000000006" y="226.4"/>
      <point x="270.31000000000006" y="166.83" type="curve" smooth="yes"/>
      <point x="270.31000000000006" y="121.18"/>
      <point x="239.49500000000003" y="93.015"/>
      <point x="185.23000000000002" y="93.015" type="curve" smooth="yes"/>
      <point x="147.135" y="93.015"/>
      <point x="102.54499999999999" y="102.355"/>
      <point x="55.37500000000001" y="120.42500000000001" type="curve"/>
      <point x="33.184999999999995" y="23.195000000000004" type="line"/>
      <point x="72.81" y="4.110000000000001"/>
      <point x="131.24499999999998" y="-9.77"/>
    </contour>
    <contour>
      <point x="158.855" y="-105.0" type="line"/>
      <point x="258.65000000000003" y="-105.0" type="line"/>
      <point x="258.65000000000003" y="12.765" type="line"/>
      <point x="158.855" y="4.480000000000001" type="line"/>
    </contour>
    <contour>
      <point x="158.855" y="687.58" type="line"/>
      <point x="258.65000000000003" y="696.41" type="line"/>
      <point x="258.65000000000003" y="804.01" type="line"/>
      <point x="158.855" y="804.01" type="line"/>
    </contour>
  </outline>
</glyph>
<glyph name="ampersand" format="2">
  <advance width="501.365"/>
  <unicode hex="0026"/>
  <outline>
    <contour>
      <point x="379.695" y="-6.75" type="line"/>
      <point x="499.5800000000001" y="-2.025" type="line"/>
      <point x="218.95000000000002" y="421.90500000000003" type="line" smooth="yes"/>
      <point x="190.78500000000003" y="465.215"/>
      <point x="179.805" y="499.8550000000001"/>
      <point x="179.805" y="530.7349999999999" type="curve" smooth="yes"/>
      <point x="179.805" y="580.915"/>
      <point x="199.025" y="605.9099999999999"/>
      <point x="235.32500000000002" y="605.9099999999999" type="curve" smooth="yes"/>
      <point x="271.165" y="605.9099999999999"/>
      <point x="287.11500000000007" y="579.13"/>
      <point x="287.11500000000007" y="532.33" type="curve" smooth="yes"/>
      <point x="287.11500000000007" y="498.9200000000001"/>
      <point x="281.685" y="473.005"/>
      <point x="261.62999999999994" y="452.97" type="curve"/>
      <point x="303.27500000000003" y="393.12999999999994" type="line"/>
      <point x="356.9699999999999" y="427.40999999999997"/>
      <point x="383.87" y="481.29499999999996"/>
      <point x="383.87" y="554.9799999999999" type="curve" smooth="yes"/>
      <point x="383.87" y="657.6350000000001"/>
      <point x="330.7" y="710.0"/>
      <point x="233.43999999999997" y="710.0" type="curve" smooth="yes"/>
      <point x="122.64" y="710.0"/>
      <point x="67.995" y="645.36"/>
      <point x="67.995" y="533.7549999999999" type="curve" smooth="yes"/>
      <point x="67.995" y="477.285"/>
      <point x="88.37" y="421.215"/>
      <point x="125.78999999999999" y="364.03000000000003" type="curve" smooth="yes"/>
    </contour>
    <contour>
      <point x="203.74000000000004" y="-10.0" type="curve" smooth="yes"/>
      <point x="270.6550000000001" y="-10.0"/>
      <point x="317.125" y="16.445000000000004"/>
      <point x="352.655" y="67.35499999999999" type="curve"/>
      <point x="303.7699999999999" y="142.36" type="line"/>
      <point x="285.79" y="106.04"/>
      <point x="262.575" y="85.22"/>
      <point x="216.82500000000005" y="85.22" type="curve" smooth="yes"/>
      <point x="160.66" y="85.22"/>
      <point x="123.2" y="131.285"/>
      <point x="123.2" y="195.58" type="curve" smooth="yes"/>
      <point x="123.2" y="252.76500000000001"/>
      <point x="141.02" y="286.35499999999996"/>
      <point x="178.63" y="320.995" type="curve"/>
      <point x="129.865" y="397.58500000000004" type="line"/>
      <point x="50.85" y="344.71999999999997"/>
      <point x="18.344999999999995" y="276.63500000000005"/>
      <point x="18.344999999999995" y="183.93499999999997" type="curve" smooth="yes"/>
      <point x="18.344999999999995" y="67.88999999999999"/>
      <point x="89.785" y="-10.0"/>
    </contour>
    <contour>
      <point x="405.7700000000001" y="119.29999999999998" type="line"/>
      <point x="435.01000000000005" y="174.11"/>
      <point x="454.39" y="237.19"/>
      <point x="454.39" y="307.265" type="curve" smooth="yes"/>
      <point x="454.39" y="329.165"/>
      <point x="453.165" y="347.53"/>
      <point x="450.27500000000003" y="366.325" type="curve"/>
      <point x="362.4049999999999" y="365.20000000000005" type="line"/>
      <point x="364.52000000000004" y="351.20000000000005"/>
      <point x="365.5" y="338.145"/>
      <point x="365.23499999999996" y="321.105" type="curve" smooth="yes"/>
      <point x="364.93" y="277.755"/>
      <point x="357.125" y="240.75500000000002"/>
      <point x="345.84" y="213.10499999999996" type="curve"/>
    </contour>
  </outline>
</glyph>
<glyph name="quotesingle" format="2">
  <advance width="168.385"/>
  <unicode hex="0027"/>
  <outline>
    <contour>
      <point x="37.29999999999999" y="427.0" type="line"/>
      <point x="129.6" y="427.0" type="line"/>
      <point x="136.855" y="700.0" type="line"/>
      <point x="31.529999999999994" y="700.0" type="line"/>
    </contour>
  </outline>
</glyph>
<glyph name="parenleft" format="2">
  <advance width="236.03"/>
  <unicode hex="0028"/>
  <outline>
    <contour>
      <point x="36.425" y="265.0" type="curve" smooth="yes"/>
      <point x="36.425" y="-11.669999999999998"/>
      <point x="95.395" y="-195.42499999999998"/>
      <point x="226.42499999999998" y="-220.405" type="curve"/>
      <point x="226.42499999999998" y="-121.93" type="line"/>
      <point x="161.325" y="-88.38"/>
      <point x="128.845" y="16.935000000000002"/>
      <point x="128.845" y="265.0" type="curve" smooth="yes"/>
      <point x="128.845" y="513.0649999999999"/>
      <point x="161.325" y="618.3799999999999"/>
      <point x="226.42499999999998" y="651.93" type="curve"/>
      <point x="226.42499999999998" y="750.405" type="line"/>
      <point x="95.395" y="725.4250000000001"/>
      <point x="36.425" y="541.67"/>
    </contour>
  </outline>
</glyph>
<glyph name="parenright" format="2">
  <advance width="236.03"/>
  <unicode hex="0029"/>
  <outline>
    <contour>
      <point x="9.605" y="-121.93" type="curve"/>
      <point x="9.605" y="-220.405" type="line"/>
      <point x="140.63500000000002" y="-195.42499999999998"/>
      <point x="199.605" y="-11.669999999999998"/>
      <point x="199.605" y="265.0" type="curve" smooth="yes"/>
      <point x="199.605" y="541.67"/>
      <point x="140.63500000000002" y="725.4250000000001"/>
      <point x="9.605" y="750.405" type="curve"/>
      <point x="9.605" y="651.93" type="line"/>
      <point x="74.705" y="618.3799999999999"/>
      <point x="107.18499999999999" y="513.0649999999999"/>
      <point x="107.18499999999999" y="265.0" type="curve" smooth="yes"/>
      <point x="107.18499999999999" y="16.935000000000002"/>
      <point x="74.705" y="-88.38"/>
    </contour>
  </outline>
</glyph>
<glyph name="asterisk" format="2">
  <advance width="290.47999999999996"/>
  <unicode hex="002A"/>
  <outline>
    <contour>
      <point x="84.915" y="402.555" type="line"/>
      <point x="145.285" y="482.94499999999994" type="line"/>
      <point x="205.47500000000002" y="402.51" type="line"/>
      <point x="250.03" y="433.365" type="line"/>
      <point x="199.91000000000003" y="523.145" type="line"/>
      <point x="286.15500000000003" y="565.825" type="line"/>
      <point x="268.74" y="617.035" type="line"/>
      <point x="179.19000000000003" y="588.62" type="line"/>
      <point x="172.92000000000002" y="694.045" type="line"/>
      <point x="117.64999999999999" y="694.045" type="line"/>
      <point x="111.38" y="588.62" type="line"/>
      <point x="21.740000000000006" y="617.035" type="line"/>
      <point x="4.325" y="565.825" type="line"/>
      <point x="90.66" y="523.145" type="line"/>
      <point x="40.315" y="433.45500000000004" type="line"/>
    </contour>
  </outline>
</glyph>
<glyph name="plus" format="2">
  <advance width="425.96"/>
  <unicode hex="002B"/>
  <outline>
    <contour>
      <point x="162.115" y="117.87" type="line"/>
      <point x="263.79" y="117.87" type="line"/>
      <point x="263.79" y="261.675" type="line"/>
      <point x="383.24000000000007" y="261.675" type="line"/>
      <point x="383.24000000000007" y="361.15000000000003" type="line"/>
      <point x="263.79" y="361.15000000000003" type="line"/>
      <point x="263.79" y="504.9" type="line"/>
      <point x="162.115" y="504.9" type="line"/>
      <point x="162.115" y="361.15000000000003" type="line"/>
      <point x="42.72" y="361.15000000000003" type="line"/>
      <point x="42.72" y="261.675" type="line"/>
      <point x="162.115" y="261.675" type="line"/>
    </contour>
  </outline>
</glyph>
<glyph name="comma" format="2">
  <advance width="166.845"/>
  <unicode hex="002C"/>
  <outline>
    <contour>
      <point x="28.509999999999998" y="76.08" type="line"/>
      <point x="34.87500000000001" y="45.575"/>
      <point x="36.82" y="17.175000000000004"/>
      <point x="36.82" y="1.610000000000003" type="curve" smooth="yes"/>
      <point x="36.82" y="-53.5"/>
      <point x="18.67" y="-116.8"/>
      <point x="-17.415" y="-163.905" type="curve"/>
      <point x="65.005" y="-190.235" type="line"/>
      <point x="120.275" y="-130.515"/>
      <point x="142.51000000000002" y="-62.62499999999999"/>
      <point x="142.51000000000002" y="3.790000000000003" type="curve" smooth="yes"/>
      <point x="142.51000000000002" y="33.365"/>
      <point x="137.835" y="58.105000000000004"/>
      <point x="131.59" y="79.87" type="curve"/>
    </contour>
  </outline>
</glyph>
<glyph name="hyphen" format="2">
  <advance width="276.285"/>
  <unicode hex="002D"/>
  <outline>
    <contour>
      <point x="27.59" y="243.45" type="line"/>
      <point x="248.69500000000002" y="243.45" type="line"/>
      <point x="248.69500000000002" y="350.02" type="line"/>
      <point x="27.59" y="350.02" type="line"/>
    </contour>
  </outline>
</glyph>
<glyph name="period" format="2">
  <advance width="167.725"/>
  <unicode hex="002E"/>
  <outline>
    <contour>
      <point x="22.45" y="67.765" type="curve" smooth="yes"/>
      <point x="22.45" y="17.830000000000002"/>
      <point x="39.279999999999994" y="-4.07"/>
      <point x="83.88499999999999" y="-4.07" type="curve" smooth="yes"/>
      <point x="128.94" y="-4.07"/>
      <point x="145.32" y="17.830000000000002"/>
      <point x="145.32" y="67.765" type="curve" smooth="yes"/>
      <point x="145.32" y="118.25000000000001"/>
      <point x="128.94" y="140.14999999999998"/>
      <point x="83.88499999999999" y="140.14999999999998" type="curve" smooth="yes"/>
      <point x="38.83" y="140.14999999999998"/>
      <point x="22.45" y="118.25000000000001"/>
    </contour>
  </outline>
</glyph>
<glyph name="slash" format="2">
  <advance width="325.365"/>
  <unicode hex="002F"/>
  <outline>
    <contour>
      <point x="-3.1400000000000006" y="-210.0" type="line"/>
      <point x="91.675" y="-210.0" type="line"/>
      <point x="328.505" y="740.0" type="line"/>
      <point x="233.195" y="740.0" type="line"/>
    </contour>
  </outline>
</glyph>
<glyph name="zero" format="2">
  <advance width="413.42999999999995"/>
  <unicode hex="0030"/>
  <outline>
    <contour>
      <point x="18.14" y="350.0" type="curve" smooth="yes"/>
      <point x="18.14" y="76.83000000000001"/>
      <point x="77.805" y="-10.0"/>
      <point x="206.71499999999997" y="-10.0" type="curve" smooth="yes"/>
      <point x="334.23" y="-10.0"/>
      <point x="395.29" y="78.81000000000002"/>
      <point x="395.29" y="350.0" type="curve" smooth="yes"/>
      <point x="395.29" y="622.09"/>
      <point x="341.65500000000003" y="710.0"/>
      <point x="206.71499999999997" y="710.0" type="curve" smooth="yes"/>
      <point x="76.32" y="710.0"/>
      <point x="18.14" y="626.05"/>
    </contour>
    <contour>
      <point x="132.125" y="343.565" type="curve" smooth="yes"/>
      <point x="132.125" y="572.095"/>
      <point x="158.39499999999998" y="608.1700000000001"/>
      <point x="206.71499999999997" y="608.1700000000001" type="curve" smooth="yes"/>
      <point x="255.12499999999997" y="608.1700000000001"/>
      <point x="281.39500000000004" y="572.5899999999999"/>
      <point x="281.39500000000004" y="343.565" type="curve" smooth="yes"/>
      <point x="281.39500000000004" y="131.28000000000003"/>
      <point x="256.61" y="91.83000000000001"/>
      <point x="206.71499999999997" y="91.83000000000001" type="curve" smooth="yes"/>
      <point x="156.90999999999997" y="91.83000000000001"/>
      <point x="132.125" y="130.785"/>
    </contour>
  </outline>
</glyph>
<glyph name="one" format="2">
  <advance width="413.42999999999995"/>
  <unicode hex="0031"/>
  <outline>
    <contour>
      <point x="49.735" y="0.0" type="line"/>
      <point x="387.265" y="0.0" type="line"/>
      <point x="387.265" y="99.75" type="line"/>
      <point x="282.91499999999996" y="99.75" type="line"/>
      <point x="282.91499999999996" y="700.45" type="line"/>
      <point x="225.10000000000002" y="700.45" type="line"/>
      <point x="33.675" y="609.135" type="line"/>
      <point x="56.165" y="499.805" type="line"/>
      <point x="169.85500000000002" y="560.465" type="line"/>
      <point x="169.85500000000002" y="99.75" type="line"/>
      <point x="49.735" y="99.75" type="line"/>
    </contour>
  </outline>
</glyph>
<glyph name="two" format="2">
  <advance width="413.71"/>
  <unicode hex="0032"/>
  <outline>
    <contour>
      <point x="40.805" y="88.43" type="curve"/>
      <point x="43.177499999999995" y="0.0" type="line"/>
      <point x="380.2025" y="0.0" type="line"/>
      <point x="380.2025" y="99.975" type="line"/>
      <point x="176.2475" y="99.975" type="line"/>
      <point x="318.78249999999997" y="309.5625"/>
      <point x="353.4925" y="400.7825"/>
      <point x="353.4925" y="513.37" type="curve" smooth="yes"/>
      <point x="353.4925" y="642.6025"/>
      <point x="295.0375" y="710.0"/>
      <point x="189.4925" y="710.0" type="curve" smooth="yes"/>
      <point x="129.3775" y="710.0"/>
      <point x="75.5075" y="691.2774999999999"/>
      <point x="27.460000000000004" y="650.9325" type="curve"/>
      <point x="68.30499999999999" y="542.6775" type="line"/>
      <point x="100.2575" y="569.0000000000001"/>
      <point x="129.105" y="579.8375000000001"/>
      <point x="162.195" y="579.8375000000001" type="curve" smooth="yes"/>
      <point x="209.2375" y="579.8375000000001"/>
      <point x="237.79749999999999" y="549.9199999999998"/>
      <point x="237.79749999999999" y="477.96999999999997" type="curve" smooth="yes"/>
      <point x="237.79749999999999" y="399.09250000000003"/>
      <point x="184.74249999999998" y="289.5225"/>
    </contour>
  </outline>
</glyph>
<glyph name="three" format="2">
  <advance width="413.70000000000005"/>
  <unicode hex="0033"/>
  <outline>
    <contour>
      <point x="15.975000000000001" y="38.3875" type="line"/>
      <point x="67.0625" y="3.8500000000000005"/>
      <point x="111.38750000000002" y="-10.0"/>
      <point x="176.4125" y="-10.0" type="curve" smooth="yes"/>
      <point x="299.34999999999997" y="-10.0"/>
      <point x="372.075" y="69.15"/>
      <point x="372.075" y="203.1" type="curve" smooth="yes"/>
      <point x="372.075" y="283.8"/>
      <point x="339.3125" y="344.16249999999997"/>
      <point x="278.55" y="372.0625" type="curve"/>
      <point x="328.725" y="403.825"/>
      <point x="357.65" y="464.2125"/>
      <point x="357.65" y="533.6875" type="curve" smooth="yes"/>
      <point x="357.65" y="641.85"/>
      <point x="291.85" y="710.0"/>
      <point x="181.41250000000002" y="710.0" type="curve" smooth="yes"/>
      <point x="119.2375" y="710.0"/>
      <point x="63.6625" y="692.95"/>
      <point x="23.675" y="661.3000000000001" type="curve"/>
      <point x="59.262499999999996" y="567.0" type="line"/>
      <point x="87.575" y="584.3"/>
      <point x="122.82499999999999" y="593.0000000000001"/>
      <point x="156.5" y="593.0000000000001" type="curve" smooth="yes"/>
      <point x="214.625" y="593.0000000000001"/>
      <point x="245.85000000000002" y="556.525"/>
      <point x="245.85000000000002" y="498.48749999999995" type="curve" smooth="yes"/>
      <point x="245.85000000000002" y="443.4375"/>
      <point x="219.25" y="405.5375"/>
      <point x="172.17499999999998" y="405.5375" type="curve" smooth="yes"/>
      <point x="106.7125" y="405.5375" type="line"/>
      <point x="106.7125" y="311.75" type="line"/>
      <point x="164.275" y="311.75" type="line" smooth="yes"/>
      <point x="225.62500000000003" y="311.75"/>
      <point x="259.0625" y="277.75"/>
      <point x="259.0625" y="211.89999999999998" type="curve" smooth="yes"/>
      <point x="259.0625" y="141.93750000000003"/>
      <point x="223.8" y="100.7"/>
      <point x="162.20000000000002" y="100.7" type="curve" smooth="yes"/>
      <point x="120.675" y="100.7"/>
      <point x="89.18750000000001" y="110.5125"/>
      <point x="55.9125" y="131.96250000000003" type="curve"/>
    </contour>
  </outline>
</glyph>
<glyph name="four" format="2">
  <advance width="413.7"/>
  <unicode hex="0034"/>
  <outline>
    <contour>
      <point x="19.699999999999996" y="129.5" type="line"/>
      <point x="220.65" y="129.5" type="line"/>
      <point x="220.65" y="0.0" type="line"/>
      <point x="333.90000000000003" y="0.0" type="line"/>
      <point x="333.90000000000003" y="129.5" type="line"/>
      <point x="399.27500000000003" y="129.5" type="line"/>
      <point x="399.27500000000003" y="228.425" type="line"/>
      <point x="333.90000000000003" y="228.425" type="line"/>
      <point x="333.90000000000003" y="699.325" type="line"/>
      <point x="211.10000000000002" y="702.0250000000001" type="line"/>
      <point x="17.225" y="229.79999999999998" type="line"/>
    </contour>
    <contour>
      <point x="103.475" y="228.425" type="line"/>
      <point x="225.59999999999997" y="540.55" type="line"/>
      <point x="225.59999999999997" y="228.425" type="line"/>
    </contour>
  </outline>
</glyph>
<glyph name="five" format="2">
  <advance width="413.69999999999993"/>
  <unicode hex="0035"/>
  <outline>
    <contour>
      <point x="27.419999999999998" y="34.8675" type="line"/>
      <point x="71.96999999999998" y="5.23"/>
      <point x="116.475" y="-10.0"/>
      <point x="177.71" y="-10.0" type="curve" smooth="yes"/>
      <point x="300.5425" y="-10.0"/>
      <point x="385.37750000000005" y="70.375"/>
      <point x="385.37750000000005" y="218.425" type="curve" smooth="yes"/>
      <point x="385.37750000000005" y="345.40500000000003"/>
      <point x="326.47" y="408.5375"/>
      <point x="223.92249999999999" y="411.53" type="curve" smooth="yes"/>
      <point x="168.79999999999998" y="412.385" type="line"/>
      <point x="180.9625" y="595.2325" type="line"/>
      <point x="363.4225" y="595.2325" type="line"/>
      <point x="363.4225" y="700.0" type="line"/>
      <point x="91.07249999999999" y="700.0" type="line"/>
      <point x="59.525" y="330.965" type="line"/>
      <point x="68.68" y="319.15" type="line"/>
      <point x="164.945" y="319.15" type="line" smooth="yes"/>
      <point x="239.24500000000003" y="319.15"/>
      <point x="270.9575" y="283.985"/>
      <point x="270.9575" y="213.975" type="curve" smooth="yes"/>
      <point x="270.9575" y="144.03000000000003"/>
      <point x="237.6325" y="100.88499999999999"/>
      <point x="164.87749999999997" y="100.88499999999999" type="curve" smooth="yes"/>
      <point x="116.2425" y="100.88499999999999"/>
      <point x="83.6875" y="114.69250000000001"/>
      <point x="55.3225" y="131.6325" type="curve"/>
    </contour>
  </outline>
</glyph>
<glyph name="six" format="2">
  <advance width="413.69999999999993"/>
  <unicode hex="0036"/>
  <outline>
    <contour>
      <point x="211.0375" y="-10.0" type="curve" smooth="yes"/>
      <point x="331.12499999999994" y="-10.0"/>
      <point x="394.1125" y="73.0"/>
      <point x="394.1125" y="227.45000000000002" type="curve" smooth="yes"/>
      <point x="394.1125" y="358.35"/>
      <point x="341.38750000000005" y="435.5375"/>
      <point x="249.61250000000004" y="435.5375" type="curve" smooth="yes"/>
      <point x="196.5875" y="435.5375"/>
      <point x="151.38750000000005" y="408.65"/>
      <point x="125.8125" y="365.4125" type="curve"/>
      <point x="126.225" y="273.76250000000005" type="line"/>
      <point x="146.20000000000002" y="317.0375"/>
      <point x="176.3625" y="344.65000000000003"/>
      <point x="212.0625" y="344.65000000000003" type="curve" smooth="yes"/>
      <point x="255.725" y="344.65000000000003"/>
      <point x="282.2375" y="301.61249999999995"/>
      <point x="282.2375" y="223.01249999999996" type="curve" smooth="yes"/>
      <point x="282.2375" y="134.5"/>
      <point x="255.75" y="89.28750000000001"/>
      <point x="214.22500000000002" y="89.28750000000001" type="curve" smooth="yes"/>
      <point x="163.4" y="89.28750000000001"/>
      <point x="138.46250000000003" y="137.325"/>
      <point x="138.46250000000003" y="345.75" type="curve" smooth="yes"/>
      <point x="138.46250000000003" y="519.1999999999999"/>
      <point x="160.21250000000003" y="604.2125"/>
      <point x="260.5625" y="604.2125" type="curve" smooth="yes"/>
      <point x="293.83750000000003" y="604.2125"/>
      <point x="322.41249999999997" y="593.8625"/>
      <point x="349.9625" y="577.95" type="curve"/>
      <point x="384.625" y="673.0374999999999" type="line"/>
      <point x="351.22499999999997" y="695.5124999999999"/>
      <point x="296.525" y="710.0"/>
      <point x="243.3375" y="710.0" type="curve" smooth="yes"/>
      <point x="96.38750000000002" y="710.0"/>
      <point x="21.312500000000004" y="589.825"/>
      <point x="21.312500000000004" y="327.05" type="curve" smooth="yes"/>
      <point x="21.312500000000004" y="88.2"/>
      <point x="83.12499999999999" y="-10.0"/>
    </contour>
  </outline>
</glyph>
<glyph name="seven" format="2">
  <advance width="413.69999999999993"/>
  <unicode hex="0037"/>
  <outline>
    <contour>
      <point x="111.05250000000001" y="0.0" type="curve"/>
      <point x="229.71000000000004" y="0.0" type="line"/>
      <point x="230.5775" y="128.25"/>
      <point x="249.395" y="223.89999999999998"/>
      <point x="293.86" y="353.09499999999997" type="curve" smooth="yes"/>
      <point x="384.82750000000004" y="619.3525000000001" type="line"/>
      <point x="384.82750000000004" y="700.0" type="line"/>
      <point x="28.887500000000003" y="700.0" type="line"/>
      <point x="28.887500000000003" y="594.2874999999999" type="line"/>
      <point x="261.9675" y="594.2874999999999" type="line"/>
      <point x="183.93999999999997" y="387.815" type="line" smooth="yes"/>
      <point x="130.92999999999998" y="247.1075"/>
      <point x="111.05250000000001" y="136.99499999999998"/>
    </contour>
  </outline>
</glyph>
<glyph name="eight" format="2">
  <advance width="413.71"/>
  <unicode hex="0038"/>
  <outline>
    <contour>
      <point x="214.54749999999999" y="392.5625" type="curve"/>
      <point x="276.65" y="350.7925" type="line"/>
      <point x="351.3675" y="404.9625"/>
      <point x="381.50250000000005" y="466.68"/>
      <point x="381.50250000000005" y="539.52" type="curve" smooth="yes"/>
      <point x="381.50250000000005" y="646.21"/>
      <point x="318.39250000000004" y="710.0"/>
      <point x="211.165" y="710.0" type="curve" smooth="yes"/>
      <point x="97.385" y="710.0"/>
      <point x="33.3325" y="644.71"/>
      <point x="33.3325" y="526.965" type="curve" smooth="yes"/>
      <point x="33.3325" y="304.46"/>
      <point x="285.5725" y="338.1"/>
      <point x="285.5725" y="175.7525" type="curve" smooth="yes"/>
      <point x="285.5725" y="117.975"/>
      <point x="258.7975" y="86.165"/>
      <point x="209.9825" y="86.165" type="curve" smooth="yes"/>
      <point x="156.71" y="86.165"/>
      <point x="127.4175" y="121.2825"/>
      <point x="127.4175" y="187.275" type="curve" smooth="yes"/>
      <point x="127.4175" y="250.67249999999999"/>
      <point x="148.70250000000001" y="291.01"/>
      <point x="195.5625" y="327.54249999999996" type="curve"/>
      <point x="130.4825" y="376.63" type="line"/>
      <point x="52.995" y="327.8925"/>
      <point x="17.407500000000002" y="261.62750000000005"/>
      <point x="17.407500000000002" y="178.9075" type="curve" smooth="yes"/>
      <point x="17.407500000000002" y="58.074999999999996"/>
      <point x="84.475" y="-10.0"/>
      <point x="204.47" y="-10.0" type="curve" smooth="yes"/>
      <point x="330.085" y="-10.0"/>
      <point x="397.03749999999997" y="57.157500000000006"/>
      <point x="397.03749999999997" y="180.9475" type="curve" smooth="yes"/>
      <point x="397.03749999999997" y="418.22"/>
      <point x="140.1325" y="377.5525"/>
      <point x="140.1325" y="529.71" type="curve" smooth="yes"/>
      <point x="140.1325" y="580.5575"/>
      <point x="164.475" y="611.5825"/>
      <point x="206.8725" y="611.5825" type="curve" smooth="yes"/>
      <point x="253.63750000000002" y="611.5825"/>
      <point x="278.8875" y="580.1625"/>
      <point x="278.8875" y="521.52" type="curve" smooth="yes"/>
      <point x="278.8875" y="465.935"/>
      <point x="264.4925" y="429.59999999999997"/>
    </contour>
  </outline>
</glyph>
<glyph name="nine" format="2">
  <advance width="413.69999999999993"/>
  <unicode hex="0039"/>
  <outline>
    <contour>
      <point x="173.21249999999998" y="-10.0" type="curve" smooth="yes"/>
      <point x="320.1625" y="-10.0"/>
      <point x="393.6375" y="109.87499999999999"/>
      <point x="393.6375" y="372.125" type="curve" smooth="yes"/>
      <point x="393.6375" y="611.275"/>
      <point x="334.825" y="710.0"/>
      <point x="205.3125" y="710.0" type="curve" smooth="yes"/>
      <point x="85.00000000000001" y="710.0"/>
      <point x="20.8375" y="626.95"/>
      <point x="20.8375" y="472.5" type="curve" smooth="yes"/>
      <point x="20.8375" y="341.12500000000006"/>
      <point x="73.9125" y="264.4625"/>
      <point x="166.5375" y="264.4625" type="curve" smooth="yes"/>
      <point x="218.03750000000002" y="264.4625"/>
      <point x="263.2625" y="291.20000000000005"/>
      <point x="289.13750000000005" y="334.3625" type="curve"/>
      <point x="292.1" y="430.51249999999993" type="line"/>
      <point x="270.43749999999994" y="381.59999999999997"/>
      <point x="238.4625" y="355.375"/>
      <point x="202.68749999999997" y="355.375" type="curve" smooth="yes"/>
      <point x="159.725" y="355.375"/>
      <point x="132.51250000000005" y="398.1625"/>
      <point x="132.51250000000005" y="477.21250000000003" type="curve" smooth="yes"/>
      <point x="132.51250000000005" y="565.575"/>
      <point x="160.22500000000002" y="610.7125"/>
      <point x="202.9" y="610.7125" type="curve" smooth="yes"/>
      <point x="254.825" y="610.7125"/>
      <point x="276.5125" y="562.025"/>
      <point x="276.5125" y="354.2750000000001" type="curve" smooth="yes"/>
      <point x="276.5125" y="180.825"/>
      <point x="256.0625" y="95.7125"/>
      <point x="155.9375" y="95.7125" type="curve" smooth="yes"/>
      <point x="122.4375" y="95.7125"/>
      <point x="92.51249999999999" y="106.06250000000001"/>
      <point x="64.98750000000001" y="121.97500000000001" type="curve"/>
      <point x="30.325" y="27.4125" type="line"/>
      <point x="63.725" y="4.937500000000001"/>
      <point x="120.025" y="-10.0"/>
    </contour>
  </outline>
</glyph>
<glyph name="less" format="2">
  <advance width="425.96"/>
  <unicode hex="003C"/>
  <outline>
    <contour>
      <point x="393.22999999999996" y="93.765" type="line"/>
      <point x="393.22999999999996" y="186.48000000000005" type="line"/>
      <point x="136.53" y="302.385" type="line"/>
      <point x="393.22999999999996" y="419.225" type="line"/>
      <point x="393.22999999999996" y="510.7" type="line"/>
      <point x="32.73" y="351.545" type="line"/>
      <point x="32.73" y="253.06" type="line"/>
    </contour>
  </outline>
</glyph>
<glyph name="equal" format="2">
  <advance width="416.06"/>
  <unicode hex="003D"/>
  <outline>
    <contour>
      <point x="373.34000000000003" y="243.97" type="line"/>
      <point x="42.72" y="243.97" type="line"/>
      <point x="42.72" y="144.49499999999998" type="line"/>
      <point x="373.34000000000003" y="144.49499999999998" type="line"/>
    </contour>
    <contour>
      <point x="373.34000000000003" y="461.365" type="line"/>
      <point x="42.72" y="461.365" type="line"/>
      <point x="42.72" y="361.89" type="line"/>
      <point x="373.34000000000003" y="361.89" type="line"/>
    </contour>
  </outline>
</glyph>
<glyph name="greater" format="2">
  <advance width="425.96"/>
  <unicode hex="003E"/>
  <outline>
    <contour>
      <point x="393.22999999999996" y="252.655" type="line"/>
      <point x="393.22999999999996" y="351.14000000000004" type="line"/>
      <point x="32.73" y="510.7" type="line"/>
      <point x="32.73" y="418.37" type="line"/>
      <point x="289.43" y="301.97999999999996" type="line"/>
      <point x="32.73" y="185.67" type="line"/>
      <point x="32.73" y="93.765" type="line"/>
    </contour>
  </outline>
</glyph>
<glyph name="question" format="2">
  <advance width="344.14"/>
  <unicode hex="003F"/>
  <outline>
    <contour>
      <point x="109.265" y="261.115" type="line"/>
      <point x="207.80500000000004" y="261.115" type="line"/>
      <point x="207.91500000000002" y="334.23" type="line"/>
      <point x="293.53000000000003" y="390.0450000000001"/>
      <point x="330.985" y="455.875"/>
      <point x="330.985" y="558.75" type="curve" smooth="yes"/>
      <point x="330.985" y="686.55"/>
      <point x="259.205" y="749.505"/>
      <point x="154.475" y="749.505" type="curve" smooth="yes"/>
      <point x="100.03999999999999" y="749.505"/>
      <point x="45.6" y="727.985"/>
      <point x="7.960000000000001" y="695.73" type="curve"/>
      <point x="48.14000000000001" y="596.7599999999999" type="line"/>
      <point x="82.285" y="624.545"/>
      <point x="110.1" y="632.89"/>
      <point x="137.315" y="632.89" type="curve" smooth="yes"/>
      <point x="182.99" y="632.89"/>
      <point x="214.33" y="596.91"/>
      <point x="214.33" y="540.035" type="curve" smooth="yes"/>
      <point x="214.33" y="483.61"/>
      <point x="194.54000000000002" y="437.985"/>
      <point x="106.9" y="384.465" type="curve"/>
    </contour>
    <contour>
      <point x="97.17500000000001" y="66.28" type="curve" smooth="yes"/>
      <point x="97.17500000000001" y="16.345000000000002"/>
      <point x="114.32" y="-5.555"/>
      <point x="159.015" y="-5.555" type="curve" smooth="yes"/>
      <point x="203.17000000000002" y="-5.555"/>
      <point x="220.45" y="16.345000000000002"/>
      <point x="220.45" y="66.28" type="curve" smooth="yes"/>
      <point x="220.45" y="116.765"/>
      <point x="203.17000000000002" y="138.66500000000002"/>
      <point x="159.015" y="138.66500000000002" type="curve" smooth="yes"/>
      <point x="113.465" y="138.66500000000002"/>
      <point x="97.17500000000001" y="116.765"/>
    </contour>
  </outline>
</glyph>
<glyph name="at" format="2">
  <advance width="668.0"/>
  <unicode hex="0040"/>
  <outline>
    <contour>
      <point x="338.95000000000005" y="-124.09" type="curve" smooth="yes"/>
      <point x="397.34000000000003" y="-124.09"/>
      <point x="466.0" y="-102.57000000000001"/>
      <point x="501.15" y="-76.29" type="curve"/>
      <point x="482.43000000000006" y="-29.129999999999995" type="line"/>
      <point x="443.16" y="-51.42"/>
      <point x="393.46000000000004" y="-67.43999999999998"/>
      <point x="340.42" y="-67.43999999999998" type="curve" smooth="yes"/>
      <point x="190.34" y="-67.43999999999998"/>
      <point x="89.38000000000001" y="14.220000000000002"/>
      <point x="89.38000000000001" y="264.92" type="curve" smooth="yes"/>
      <point x="89.38000000000001" y="493.11"/>
      <point x="168.59" y="656.5400000000001"/>
      <point x="343.71" y="656.5400000000001" type="curve" smooth="yes"/>
      <point x="521.86" y="656.5400000000001"/>
      <point x="583.97" y="543.3399999999998"/>
      <point x="583.97" y="340.58000000000004" type="curve" smooth="yes"/>
      <point x="583.97" y="216.67"/>
      <point x="556.39" y="124.44999999999999"/>
      <point x="516.54" y="124.49999999999999" type="curve" smooth="yes"/>
      <point x="489.26" y="124.49999999999999"/>
      <point x="466.58" y="145.66"/>
      <point x="473.28000000000003" y="248.29" type="curve" smooth="yes"/>
      <point x="492.72" y="521.81" type="line"/>
      <point x="445.81000000000006" y="541.8599999999999"/>
      <point x="404.03000000000003" y="551.94"/>
      <point x="352.93" y="551.94" type="curve" smooth="yes"/>
      <point x="225.48000000000002" y="551.94"/>
      <point x="172.01000000000002" y="422.0"/>
      <point x="172.01000000000002" y="262.15000000000003" type="curve" smooth="yes"/>
      <point x="172.01000000000002" y="107.53"/>
      <point x="217.67000000000004" y="54.63"/>
      <point x="279.81" y="54.63" type="curve" smooth="yes"/>
      <point x="335.52" y="54.63"/>
      <point x="364.56000000000006" y="95.42999999999999"/>
      <point x="390.97" y="165.74999999999997" type="curve"/>
      <point x="401.38000000000005" y="84.3"/>
      <point x="432.46" y="48.87"/>
      <point x="496.24000000000007" y="48.87" type="curve" smooth="yes"/>
      <point x="595.9499999999999" y="48.769999999999996"/>
      <point x="645.14" y="179.22"/>
      <point x="645.14" y="349.5" type="curve" smooth="yes"/>
      <point x="645.14" y="590.6500000000001"/>
      <point x="537.47" y="710.0"/>
      <point x="352.98999999999995" y="710.0" type="curve" smooth="yes"/>
      <point x="128.75" y="710.0"/>
      <point x="23.940000000000005" y="527.9499999999999"/>
      <point x="23.940000000000005" y="271.65000000000003" type="curve" smooth="yes"/>
      <point x="23.940000000000005" y="-11.479999999999999"/>
      <point x="145.13" y="-124.09"/>
    </contour>
    <contour>
      <point x="321.15" y="157.69000000000003" type="curve" smooth="yes"/>
      <point x="300.99999999999994" y="157.69000000000003"/>
      <point x="283.79" y="182.55000000000004"/>
      <point x="283.79" y="259.16" type="curve" smooth="yes"/>
      <point x="283.79" y="360.77"/>
      <point x="306.82000000000005" y="474.07"/>
      <point x="352.36000000000007" y="474.07" type="curve" smooth="yes"/>
      <point x="363.76000000000005" y="474.07"/>
      <point x="376.12000000000006" y="470.09999999999997"/>
      <point x="388.49000000000007" y="464.66999999999996" type="curve"/>
      <point x="375.88" y="316.11" type="line" smooth="yes"/>
      <point x="361.91" y="177.43"/>
      <point x="348.3" y="157.69000000000003"/>
    </contour>
  </outline>
</glyph>
<glyph name="A" format="2">
  <advance width="437.865"/>
  <unicode hex="0041"/>
  <anchor x="428.095" y="0.0" name="ogonek"/>
  <anchor x="217.77" y="0.0" name="bottom"/>
  <anchor x="218.75" y="700.0" name="top"/>
  <outline>
    <contour>
      <point x="9.86" y="0.0" type="line"/>
      <point x="125.00000000000001" y="0.0" type="line"/>
      <point x="151.22" y="149.5" type="line"/>
      <point x="283.55" y="149.5" type="line"/>
      <point x="310.44500000000005" y="0.0" type="line"/>
      <point x="428.095" y="0.0" type="line"/>
      <point x="293.95500000000004" y="704.5" type="line"/>
      <point x="142.24499999999998" y="704.5" type="line"/>
    </contour>
    <contour>
      <point x="165.44000000000003" y="263.495" type="line"/>
      <point x="217.88" y="607.1899999999999" type="line"/>
      <point x="269.33" y="263.495" type="line"/>
    </contour>
  </outline>
</glyph>
<glyph name="B" format="2">
  <advance width="428.99"/>
  <unicode hex="0042"/>
  <anchor x="209.10999999999999" y="700.0" name="top"/>
  <anchor x="209.10999999999999" y="0.0" name="bottom"/>
  <outline>
    <contour>
      <point x="38.8425" y="0.6125000000000007" type="line"/>
      <point x="128.19" y="-8.337499999999999"/>
      <point x="142.01" y="-10.0"/>
      <point x="205.07999999999998" y="-10.0" type="curve" smooth="yes"/>
      <point x="350.82000000000005" y="-10.0"/>
      <point x="411.5675" y="53.6375"/>
      <point x="411.5675" y="199.01" type="curve" smooth="yes"/>
      <point x="411.5675" y="284.2025"/>
      <point x="375.16499999999996" y="349.3025"/>
      <point x="313.095" y="375.9575" type="curve"/>
      <point x="313.095" y="377.62" type="line"/>
      <point x="360.5" y="404.985"/>
      <point x="388.0225" y="463.63750000000005"/>
      <point x="388.0225" y="536.1400000000001" type="curve" smooth="yes"/>
      <point x="388.0225" y="655.42"/>
      <point x="331.6775" y="710.0"/>
      <point x="204.18" y="710.0" type="curve" smooth="yes"/>
      <point x="160.525" y="710.0"/>
      <point x="107.2125" y="706.2375"/>
      <point x="38.8425" y="698.4875" type="curve"/>
    </contour>
    <contour>
      <point x="152.8325" y="398.9100000000001" type="line"/>
      <point x="152.8325" y="601.1975" type="line"/>
      <point x="174.865" y="604.6475"/>
      <point x="184.48499999999996" y="605.6475"/>
      <point x="204.70749999999998" y="605.6475" type="curve" smooth="yes"/>
      <point x="260.70750000000004" y="605.6475"/>
      <point x="284.87" y="572.4925000000001"/>
      <point x="284.87" y="502.2725" type="curve" smooth="yes"/>
      <point x="284.87" y="439.8575"/>
      <point x="259.55" y="398.9100000000001"/>
      <point x="216.99749999999997" y="398.9100000000001" type="curve" smooth="yes"/>
    </contour>
    <contour>
      <point x="152.8325" y="97.94750000000002" type="curve"/>
      <point x="152.8325" y="306.02750000000003" type="line"/>
      <point x="216.89249999999998" y="306.02750000000003" type="line" smooth="yes"/>
      <point x="270.97" y="306.02750000000003"/>
      <point x="297.995" y="268.65250000000003"/>
      <point x="297.995" y="202.81000000000003" type="curve" smooth="yes"/>
      <point x="297.995" y="126.205"/>
      <point x="272.65749999999997" y="94.26250000000002"/>
      <point x="204.6575" y="94.26250000000002" type="curve" smooth="yes"/>
      <point x="190.82000000000002" y="94.26250000000002"/>
      <point x="177.285" y="95.49750000000002"/>
    </contour>
  </outline>
</glyph>
<glyph name="C" format="2">
  <advance width="385.905"/>
  <unicode hex="0043"/>
  <anchor x="225.26000000000002" y="700.0" name="top"/>
  <anchor x="228.21" y="0.0" name="bottom"/>
  <outline>
    <contour>
      <point x="21.914999999999996" y="342.48" type="curve" smooth="yes"/>
      <point x="21.914999999999996" y="76.015"/>
      <point x="91.99999999999999" y="-10.0"/>
      <point x="234.72499999999997" y="-10.0" type="curve" smooth="yes"/>
      <point x="286.355" y="-10.0"/>
      <point x="333.44" y="-2.5049999999999994"/>
      <point x="371.0" y="12.434999999999999" type="curve"/>
      <point x="351.18" y="114.75" type="line"/>
      <point x="324.095" y="105.55000000000001"/>
      <point x="283.255" y="98.84000000000002"/>
      <point x="255.04" y="98.84000000000002" type="curve" smooth="yes"/>
      <point x="174.115" y="98.84000000000002"/>
      <point x="136.625" y="151.325"/>
      <point x="136.625" y="340.61" type="curve" smooth="yes"/>
      <point x="136.625" y="545.6949999999999"/>
      <point x="175.26999999999998" y="600.9749999999999"/>
      <point x="256.45000000000005" y="600.9749999999999" type="curve" smooth="yes"/>
      <point x="286.15500000000003" y="600.9749999999999"/>
      <point x="312.09000000000003" y="596.59"/>
      <point x="345.065" y="586.43" type="curve"/>
      <point x="367.68999999999994" y="687.9" type="line"/>
      <point x="332.42" y="702.645"/>
      <point x="290.32000000000005" y="710.0"/>
      <point x="241.85500000000002" y="710.0" type="curve" smooth="yes"/>
      <point x="91.73" y="710.0"/>
      <point x="21.914999999999996" y="611.91"/>
    </contour>
  </outline>
</glyph>
<glyph name="D" format="2">
  <advance width="446.315"/>
  <unicode hex="0044"/>
  <anchor x="215.59499999999997" y="700.0" name="top"/>
  <outline>
    <contour>
      <point x="197.54999999999995" y="-10.0" type="curve" smooth="yes"/>
      <point x="357.47" y="-10.0"/>
      <point x="424.33250000000004" y="93.78250000000001"/>
      <point x="424.33250000000004" y="351.42499999999995" type="curve" smooth="yes"/>
      <point x="424.33250000000004" y="606.2700000000001"/>
      <point x="366.06" y="710.0"/>
      <point x="197.48749999999998" y="710.0" type="curve" smooth="yes"/>
      <point x="140.6475" y="710.0"/>
      <point x="93.345" y="707.3375"/>
      <point x="38.8425" y="700.4950000000001" type="curve"/>
      <point x="38.8425" y="-2.4749999999999996" type="line"/>
      <point x="84.94" y="-7.420000000000001"/>
      <point x="138.3" y="-10.0"/>
    </contour>
    <contour>
      <point x="205.31" y="93.03750000000002" type="curve" smooth="yes"/>
      <point x="187.31" y="93.03750000000002"/>
      <point x="169.78500000000003" y="94.28250000000001"/>
      <point x="152.40499999999997" y="96.08" type="curve"/>
      <point x="152.40499999999997" y="602.32" type="line"/>
      <point x="168.35" y="604.3299999999999"/>
      <point x="188.95" y="605.555"/>
      <point x="205.0875" y="605.555" type="curve" smooth="yes"/>
      <point x="279.96500000000003" y="605.555"/>
      <point x="306.49000000000007" y="551.15"/>
      <point x="306.49000000000007" y="349.52000000000004" type="curve" smooth="yes"/>
      <point x="306.49000000000007" y="154.4825"/>
      <point x="278.875" y="93.03750000000002"/>
    </contour>
  </outline>
</glyph>
<glyph name="E" format="2">
  <advance width="376.2675"/>
  <unicode hex="0045"/>
  <anchor x="360.9200000000001" y="0.0" name="ogonek"/>
  <anchor x="199.6275" y="0.0" name="bottom"/>
  <anchor x="197.85499999999996" y="700.0" name="top"/>
  <outline>
    <contour>
      <point x="38.8425" y="0.0" type="line"/>
      <point x="361.1450000000001" y="0.0" type="line"/>
      <point x="361.1450000000001" y="110.09500000000001" type="line"/>
      <point x="152.9575" y="110.09500000000001" type="line"/>
      <point x="152.9575" y="303.57" type="line"/>
      <point x="328.1125" y="303.57" type="line"/>
      <point x="328.1125" y="408.5775" type="line"/>
      <point x="152.9575" y="408.5775" type="line"/>
      <point x="152.9575" y="587.7674999999999" type="line"/>
      <point x="348.7275000000001" y="587.7674999999999" type="line"/>
      <point x="348.7275000000001" y="700.0" type="line"/>
      <point x="38.8425" y="700.0" type="line"/>
    </contour>
  </outline>
</glyph>
<glyph name="F" format="2">
  <advance width="358.0799999999999"/>
  <unicode hex="0046"/>
  <outline>
    <contour>
      <point x="38.8425" y="0.0" type="line"/>
      <point x="153.485" y="0.0" type="line"/>
      <point x="153.485" y="267.53000000000003" type="line"/>
      <point x="315.79" y="267.53000000000003" type="line"/>
      <point x="315.79" y="379.025" type="line"/>
      <point x="152.40499999999997" y="379.025" type="line"/>
      <point x="152.40499999999997" y="587.1675000000001" type="line"/>
      <point x="347.52500000000003" y="587.1675000000001" type="line"/>
      <point x="347.52500000000003" y="700.0" type="line"/>
      <point x="38.8425" y="700.0" type="line"/>
    </contour>
  </outline>
</glyph>
<glyph name="G" format="2">
  <advance width="423.06000000000006"/>
  <unicode hex="0047"/>
  <anchor x="226.72500000000002" y="700.0" name="top"/>
  <anchor x="227.12499999999997" y="0.0" name="bottom"/>
  <outline>
    <contour>
      <point x="21.914999999999996" y="343.47" type="curve" smooth="yes"/>
      <point x="21.914999999999996" y="99.71999999999998"/>
      <point x="84.80499999999999" y="-10.0"/>
      <point x="224.655" y="-10.0" type="curve" smooth="yes"/>
      <point x="291.72" y="-10.0"/>
      <point x="348.18" y="2.415"/>
      <point x="393.0799999999999" y="28.750000000000004" type="curve"/>
      <point x="393.0799999999999" y="380.54" type="line"/>
      <point x="215.825" y="380.54" type="line"/>
      <point x="215.825" y="276.84999999999997" type="line"/>
      <point x="288.985" y="276.84999999999997" type="line"/>
      <point x="288.985" y="101.765" type="line"/>
      <point x="274.93" y="95.965"/>
      <point x="255.315" y="93.01000000000002"/>
      <point x="231.055" y="93.01000000000002" type="curve" smooth="yes"/>
      <point x="165.04" y="93.01000000000002"/>
      <point x="135.63500000000002" y="160.29500000000002"/>
      <point x="135.63500000000002" y="337.14500000000004" type="curve" smooth="yes"/>
      <point x="135.63500000000002" y="525.19"/>
      <point x="171.27500000000003" y="601.9649999999999"/>
      <point x="253.975" y="601.9649999999999" type="curve" smooth="yes"/>
      <point x="285.83500000000004" y="601.9649999999999"/>
      <point x="324.91" y="595.4399999999999"/>
      <point x="356.21" y="585.35" type="curve"/>
      <point x="376.69000000000005" y="687.7199999999999" type="line"/>
      <point x="342.03" y="701.0"/>
      <point x="288.29" y="710.0"/>
      <point x="241.855" y="710.0" type="curve" smooth="yes"/>
      <point x="90.02499999999999" y="710.0"/>
      <point x="21.914999999999996" y="597.195"/>
    </contour>
  </outline>
</glyph>
<glyph name="H" format="2">
  <advance width="456.16"/>
  <unicode hex="0048"/>
  <anchor x="228.35" y="700.0" name="top"/>
  <outline>
    <contour>
      <point x="38.82" y="0.0" type="line"/>
      <point x="152.045" y="0.0" type="line"/>
      <point x="152.045" y="255.37" type="line"/>
      <point x="304.115" y="255.37" type="line"/>
      <point x="304.115" y="0.0" type="line"/>
      <point x="417.34" y="0.0" type="line"/>
      <point x="417.34" y="700.0" type="line"/>
      <point x="304.115" y="700.0" type="line"/>
      <point x="304.115" y="368.73999999999995" type="line"/>
      <point x="152.045" y="368.73999999999995" type="line"/>
      <point x="152.045" y="700.0" type="line"/>
      <point x="38.82" y="700.0" type="line"/>
    </contour>
  </outline>
</glyph>
<glyph name="I" format="2">
  <advance width="190.865"/>
  <unicode hex="0049"/>
  <anchor x="152.045" y="0.0" name="ogonek"/>
  <anchor x="95.68" y="0.0" name="bottom"/>
  <anchor x="95.68" y="700.0" name="top"/>
  <outline>
    <contour>
      <point x="38.82" y="0.0" type="line"/>
      <point x="152.045" y="0.0" type="line"/>
      <point x="152.045" y="700.0" type="line"/>
      <point x="38.82" y="700.0" type="line"/>
    </contour>
  </outline>
</glyph>
<glyph name="J" format="2">
  <advance width="320.90999999999997"/>
  <unicode hex="004A"/>
  <anchor x="165.245" y="700.0" name="top"/>
  <outline>
    <contour>
      <point x="3.99" y="14.720000000000002" type="line"/>
      <point x="40.52" y="0.255000000000001"/>
      <point x="84.275" y="-10.045"/>
      <point x="132.145" y="-10.045" type="curve" smooth="yes"/>
      <point x="240.67999999999998" y="-10.045"/>
      <point x="286.84000000000003" y="55.43"/>
      <point x="286.84000000000003" y="169.92" type="curve" smooth="yes"/>
      <point x="286.84000000000003" y="700.0" type="line"/>
      <point x="36.53" y="700.0" type="line"/>
      <point x="36.53" y="588.5" type="line"/>
      <point x="173.615" y="588.5" type="line"/>
      <point x="173.615" y="206.655" type="line" smooth="yes"/>
      <point x="173.615" y="121.57000000000001"/>
      <point x="148.31" y="97.99000000000001"/>
      <point x="94.085" y="97.99000000000001" type="curve" smooth="yes"/>
      <point x="75.005" y="97.99000000000001"/>
      <point x="48.815000000000005" y="102.605"/>
      <point x="24.105000000000004" y="109.97500000000001" type="curve"/>
    </contour>
  </outline>
</glyph>
<glyph name="K" format="2">
  <advance width="439.175"/>
  <unicode hex="004B"/>
  <anchor x="222.05" y="700.0" name="top"/>
  <anchor x="232.20000000000002" y="0.0" name="bottom"/>
  <outline>
    <contour>
      <point x="404.25" y="-10.0" type="curve" smooth="yes"/>
      <point x="410.77500000000003" y="-10.0"/>
      <point x="417.25" y="-10.0"/>
      <point x="426.45" y="-8.0" type="curve"/>
      <point x="426.45" y="127.025" type="line"/>
      <point x="422.95000000000005" y="127.02500000000002"/>
      <point x="419.15000000000003" y="127.02500000000002"/>
      <point x="415.9" y="127.02500000000002" type="curve" smooth="yes"/>
      <point x="395.87500000000006" y="127.05000000000001"/>
      <point x="372.92500000000007" y="136.1"/>
      <point x="320.725" y="211.82500000000002" type="curve" smooth="yes"/>
      <point x="152.2" y="456.725" type="line"/>
      <point x="152.2" y="700.0" type="line"/>
      <point x="39.65" y="700.0" type="line"/>
      <point x="39.65" y="0.0" type="line"/>
      <point x="152.2" y="0.0" type="line"/>
      <point x="152.2" y="265.07499999999993" type="line"/>
      <point x="282.325" y="76.27499999999999" type="line" smooth="yes"/>
      <point x="322.825" y="17.575"/>
      <point x="358.475" y="-10.0"/>
    </contour>
    <contour>
      <point x="232.07500000000002" y="282.95" type="line"/>
      <point x="319.125" y="377.375"/>
      <point x="391.85" y="503.72499999999997"/>
      <point x="425.625" y="673.75" type="curve"/>
      <point x="328.6" y="702.0749999999999" type="line"/>
      <point x="296.325" y="550.75"/>
      <point x="222.35" y="432.57500000000005"/>
      <point x="169.35" y="369.775" type="curve"/>
    </contour>
  </outline>
</glyph>
<glyph name="L" format="2">
  <advance width="347.25000000000006"/>
  <unicode hex="004C"/>
  <anchor x="173.89499999999998" y="350.0" name="center"/>
  <anchor x="95.68" y="700.0" name="top"/>
  <anchor x="225.475" y="700.0" name="topright"/>
  <anchor x="188.445" y="0.0" name="bottom"/>
  <outline>
    <contour>
      <point x="38.82" y="0.0" type="line"/>
      <point x="337.45000000000005" y="0.0" type="line"/>
      <point x="337.45000000000005" y="109.905" type="line"/>
      <point x="152.54000000000002" y="109.905" type="line"/>
      <point x="152.54000000000002" y="700.0" type="line"/>
      <point x="38.82" y="700.0" type="line"/>
    </contour>
  </outline>
</glyph>
<glyph name="M" format="2">
  <advance width="528.085"/>
  <unicode hex="004D"/>
  <outline>
    <contour>
      <point x="38.92" y="0.0" type="line"/>
      <point x="141.86" y="0.0" type="line"/>
      <point x="141.86" y="494.91999999999996" type="line"/>
      <point x="233.94" y="194.62499999999997" type="line"/>
      <point x="292.15500000000003" y="194.62499999999997" type="line"/>
      <point x="386.22499999999997" y="495.63" type="line"/>
      <point x="386.22499999999997" y="0.0" type="line"/>
      <point x="489.165" y="0.0" type="line"/>
      <point x="489.165" y="700.0" type="line"/>
      <point x="372.54999999999995" y="700.0" type="line"/>
      <point x="266.11" y="367.445" type="line"/>
      <point x="159.86" y="700.0" type="line"/>
      <point x="38.92" y="700.0" type="line"/>
    </contour>
  </outline>
</glyph>
<glyph name="N" format="2">
  <advance width="458.6875"/>
  <unicode hex="004E"/>
  <anchor x="229.52499999999998" y="700.0" name="top"/>
  <anchor x="229.52499999999998" y="0.0" name="bottom"/>
  <outline>
    <contour>
      <point x="38.837500000000006" y="0.0" type="line"/>
      <point x="139.9125" y="0.0" type="line"/>
      <point x="139.9125" y="448.03749999999997" type="line"/>
      <point x="304.775" y="-0.44999999999999996" type="line"/>
      <point x="419.85" y="-0.44999999999999996" type="line"/>
      <point x="419.85" y="700.0" type="line"/>
      <point x="318.8" y="700.0" type="line"/>
      <point x="318.8" y="236.3125" type="line"/>
      <point x="154.35000000000002" y="700.45" type="line"/>
      <point x="38.837500000000006" y="700.45" type="line"/>
    </contour>
  </outline>
</glyph>
<glyph name="O" format="2">
  <advance width="449.9375"/>
  <unicode hex="004F"/>
  <anchor x="290.82500000000005" y="5.775" name="ogonek"/>
  <anchor x="224.52500000000003" y="700.0" name="top"/>
  <anchor x="340.18750000000006" y="693.35" name="topright"/>
  <anchor x="224.5625" y="0.0" name="bottom"/>
  <outline>
    <contour>
      <point x="224.52500000000003" y="94.22500000000001" type="curve" smooth="yes"/>
      <point x="167.4875" y="94.22500000000001"/>
      <point x="138.4125" y="141.525"/>
      <point x="138.4125" y="349.1375" type="curve" smooth="yes"/>
      <point x="138.4125" y="558.8375000000001"/>
      <point x="167.3125" y="606.675"/>
      <point x="224.52500000000003" y="606.675" type="curve" smooth="yes"/>
      <point x="283.01250000000005" y="606.675"/>
      <point x="311.51250000000005" y="559.5"/>
      <point x="311.51250000000005" y="350.09999999999997" type="curve" smooth="yes"/>
      <point x="311.51250000000005" y="142.50000000000003"/>
      <point x="282.9125" y="94.22500000000001"/>
    </contour>
    <contour>
      <point x="224.5625" y="-10.0" type="curve" smooth="yes"/>
      <point x="359.1125" y="-10.0"/>
      <point x="427.5" y="71.30000000000001"/>
      <point x="427.5" y="351.46250000000003" type="curve" smooth="yes"/>
      <point x="427.5" y="629.2500000000001"/>
      <point x="360.5125" y="710.0"/>
      <point x="224.52500000000003" y="710.0" type="curve" smooth="yes"/>
      <point x="89.21249999999999" y="710.0"/>
      <point x="22.437499999999996" y="628.175"/>
      <point x="22.437499999999996" y="349.17499999999995" type="curve" smooth="yes"/>
      <point x="22.437499999999996" y="71.125"/>
      <point x="90.35" y="-10.0"/>
    </contour>
  </outline>
</glyph>
<glyph name="P" format="2">
  <advance width="425.17499999999995"/>
  <unicode hex="0050"/>
  <outline>
    <contour>
      <point x="38.82" y="0.0" type="line"/>
      <point x="152.54000000000002" y="0.0" type="line"/>
      <point x="152.54000000000002" y="217.625" type="line"/>
      <point x="186.595" y="214.83999999999997"/>
      <point x="194.84500000000003" y="214.795"/>
      <point x="227.125" y="214.795" type="curve" smooth="yes"/>
      <point x="354.88500000000005" y="214.795"/>
      <point x="409.695" y="293.40500000000003"/>
      <point x="409.695" y="469.99500000000006" type="curve" smooth="yes"/>
      <point x="409.695" y="639.835"/>
      <point x="361.59000000000003" y="710.0"/>
      <point x="202.52" y="710.0" type="curve" smooth="yes"/>
      <point x="176.105" y="710.0"/>
      <point x="121.94500000000001" y="708.4399999999999"/>
      <point x="38.82" y="702.61" type="curve"/>
    </contour>
    <contour>
      <point x="153.03500000000003" y="603.6" type="line"/>
      <point x="180.39000000000001" y="606.88"/>
      <point x="195.495" y="607.375"/>
      <point x="210.35" y="607.375" type="curve" smooth="yes"/>
      <point x="278.58000000000004" y="607.375"/>
      <point x="295.59" y="568.39"/>
      <point x="295.59" y="474.66499999999996" type="curve" smooth="yes"/>
      <point x="295.59" y="358.78"/>
      <point x="272.195" y="316.91"/>
      <point x="203.44" y="316.91" type="curve" smooth="yes"/>
      <point x="184.23000000000002" y="316.91"/>
      <point x="171.95" y="317.09999999999997"/>
      <point x="153.03500000000003" y="318.85" type="curve"/>
    </contour>
  </outline>
</glyph>
<glyph name="Q" format="2">
  <advance width="450.02"/>
  <unicode hex="0051"/>
  <outline>
    <contour>
      <point x="302.0799999999999" y="32.760000000000005" type="curve"/>
      <point x="214.95000000000002" y="7.13" type="line"/>
      <point x="235.94" y="-130.0"/>
      <point x="266.76" y="-185.165"/>
      <point x="339.67499999999995" y="-185.165" type="curve" smooth="yes"/>
      <point x="361.935" y="-185.165"/>
      <point x="386.34000000000003" y="-179.84"/>
      <point x="408.035" y="-171.445" type="curve"/>
      <point x="394.52500000000003" y="-63.904999999999994" type="line"/>
      <point x="382.605" y="-69.63"/>
      <point x="369.725" y="-73.58999999999999"/>
      <point x="358.57500000000005" y="-73.58999999999999" type="curve" smooth="yes"/>
      <point x="329.805" y="-73.58999999999999"/>
      <point x="316.675" y="-43.865"/>
    </contour>
    <component base="O"/>
  </outline>
</glyph>
<glyph name="R" format="2">
  <advance width="444.6"/>
  <unicode hex="0052"/>
  <anchor x="219.425" y="700.0" name="top"/>
  <anchor x="223.9" y="0.0" name="bottom"/>
  <outline>
    <contour>
      <point x="398.725" y="-10.0" type="curve" smooth="yes"/>
      <point x="416.225" y="-10.0"/>
      <point x="426.75" y="-7.35"/>
      <point x="435.07500000000005" y="-5.5" type="curve"/>
      <point x="432.875" y="114.9" type="line"/>
      <point x="430.875" y="114.90000000000002"/>
      <point x="423.27500000000003" y="114.675"/>
      <point x="421.52500000000003" y="114.675" type="curve" smooth="yes"/>
      <point x="389.775" y="114.675"/>
      <point x="362.25000000000006" y="139.9"/>
      <point x="311.05000000000007" y="283.5" type="curve"/>
      <point x="375.6" y="311.725"/>
      <point x="408.42500000000007" y="386.725"/>
      <point x="408.42500000000007" y="496.375" type="curve" smooth="yes"/>
      <point x="408.42500000000007" y="648.325"/>
      <point x="343.3" y="709.9"/>
      <point x="208.875" y="709.9" type="curve" smooth="yes"/>
      <point x="151.1" y="709.9"/>
      <point x="99.175" y="706.8000000000001"/>
      <point x="39.65" y="701.45" type="curve"/>
      <point x="39.65" y="0.0" type="line"/>
      <point x="150.64999999999998" y="0.0" type="line"/>
      <point x="150.64999999999998" y="247.27499999999998" type="line"/>
      <point x="161.85000000000002" y="246.35000000000002"/>
      <point x="176.6" y="246.32500000000002"/>
      <point x="189.15" y="246.32500000000002" type="curve" smooth="yes"/>
      <point x="195.10000000000002" y="246.32500000000002"/>
      <point x="205.9" y="247.0"/>
      <point x="211.875" y="247.87499999999997" type="curve"/>
      <point x="290.20000000000005" y="16.55"/>
      <point x="334.05" y="-10.0"/>
    </contour>
    <contour>
      <point x="202.325" y="344.775" type="curve" smooth="yes"/>
      <point x="183.925" y="344.775"/>
      <point x="169.3" y="345.8"/>
      <point x="150.64999999999998" y="347.05" type="curve"/>
      <point x="150.64999999999998" y="603.425" type="line"/>
      <point x="174.675" y="606.675"/>
      <point x="188.64999999999998" y="607.45"/>
      <point x="206.92499999999998" y="607.45" type="curve" smooth="yes"/>
      <point x="275.275" y="607.45"/>
      <point x="294.3" y="570.05"/>
      <point x="294.3" y="478.79999999999995" type="curve" smooth="yes"/>
      <point x="294.3" y="387.55"/>
      <point x="265.65000000000003" y="344.775"/>
    </contour>
  </outline>
</glyph>
<glyph name="S" format="2">
  <advance width="397.57500000000005"/>
  <unicode hex="0053"/>
  <anchor x="203.38750000000002" y="700.0" name="top"/>
  <anchor x="194.78500000000003" y="0.0" name="bottom"/>
  <outline>
    <contour>
      <point x="361.1975" y="682.0600000000001" type="line"/>
      <point x="331.885" y="696.0375"/>
      <point x="269.66749999999996" y="710.0"/>
      <point x="214.675" y="710.0" type="curve" smooth="yes"/>
      <point x="76.675" y="710.0"/>
      <point x="21.479999999999997" y="625.2275"/>
      <point x="21.479999999999997" y="528.9725" type="curve" smooth="yes"/>
      <point x="21.479999999999997" y="428.32500000000005"/>
      <point x="70.75000000000001" y="366.455"/>
      <point x="140.09249999999997" y="315.93" type="curve" smooth="yes"/>
      <point x="214.36499999999998" y="264.2"/>
      <point x="268.05749999999995" y="227.2175"/>
      <point x="268.05749999999995" y="168.4075" type="curve" smooth="yes"/>
      <point x="268.05749999999995" y="117.39"/>
      <point x="229.54" y="92.98"/>
      <point x="173.09249999999997" y="92.98" type="curve" smooth="yes"/>
      <point x="132.01749999999998" y="92.98"/>
      <point x="82.86500000000001" y="102.2225"/>
      <point x="33.917500000000004" y="120.475" type="curve"/>
      <point x="10.272499999999999" y="23.605" type="line"/>
      <point x="60.145" y="0.5325"/>
      <point x="122.6725" y="-10.0"/>
      <point x="174.885" y="-10.0" type="curve" smooth="yes"/>
      <point x="307.05" y="-10.0"/>
      <point x="381.15250000000003" y="62.19250000000001"/>
      <point x="381.15250000000003" y="174.9875" type="curve" smooth="yes"/>
      <point x="381.15250000000003" y="280.6775"/>
      <point x="326.3675" y="338.92"/>
      <point x="250.82000000000002" y="388.30000000000007" type="curve" smooth="yes"/>
      <point x="180.9925" y="434.55"/>
      <point x="136.27499999999998" y="470.47"/>
      <point x="136.27499999999998" y="528.915" type="curve" smooth="yes"/>
      <point x="136.27499999999998" y="578.44"/>
      <point x="168.9525" y="604.6150000000001"/>
      <point x="223.37249999999997" y="604.6150000000001" type="curve" smooth="yes"/>
      <point x="260.53" y="604.6150000000001"/>
      <point x="300.4675" y="598.6150000000001"/>
      <point x="337.41499999999996" y="584.3625000000001" type="curve"/>
    </contour>
  </outline>
</glyph>
<glyph name="T" format="2">
  <advance width="388.03000000000003"/>
  <unicode hex="0054"/>
  <anchor x="194.01500000000001" y="700.0" name="top"/>
  <anchor x="194.01500000000001" y="0.0" name="bottom"/>
  <outline>
    <contour>
      <point x="378.86000000000007" y="588.16" type="line"/>
      <point x="378.86000000000007" y="700.0" type="line"/>
      <point x="9.17" y="700.0" type="line"/>
      <point x="9.17" y="588.16" type="line"/>
      <point x="137.65" y="588.16" type="line"/>
      <point x="137.65" y="0.0" type="line"/>
      <point x="250.87499999999997" y="0.0" type="line"/>
      <point x="250.87499999999997" y="588.16" type="line"/>
    </contour>
  </outline>
</glyph>
<glyph name="U" format="2">
  <advance width="445.75000000000006"/>
  <unicode hex="0055"/>
  <anchor x="283.73" y="0.9900000000000001" name="ogonek"/>
  <anchor x="223.32500000000002" y="700.0" name="top"/>
  <anchor x="411.67999999999995" y="700.0" name="topright"/>
  <anchor x="223.32500000000002" y="0.0" name="bottom"/>
  <outline>
    <contour>
      <point x="34.07" y="185.26" type="line"/>
      <point x="34.07" y="37.300000000000004"/>
      <point x="110.43" y="-10.0"/>
      <point x="222.33499999999998" y="-10.0" type="curve" smooth="yes"/>
      <point x="337.70500000000004" y="-10.0"/>
      <point x="411.67999999999995" y="37.300000000000004"/>
      <point x="411.67999999999995" y="185.26" type="curve" smooth="yes"/>
      <point x="411.67999999999995" y="700.0" type="line"/>
      <point x="297.90500000000003" y="700.0" type="line"/>
      <point x="297.90500000000003" y="174.645" type="line" smooth="yes"/>
      <point x="297.90500000000003" y="109.50500000000001"/>
      <point x="263.90500000000003" y="93.10500000000002"/>
      <point x="222.49999999999997" y="93.10500000000002" type="curve" smooth="yes"/>
      <point x="181.975" y="93.10500000000002"/>
      <point x="146.85500000000002" y="109.01"/>
      <point x="146.85500000000002" y="174.645" type="curve" smooth="yes"/>
      <point x="146.85500000000002" y="700.0" type="line"/>
      <point x="34.07" y="700.0" type="line"/>
    </contour>
  </outline>
</glyph>
<glyph name="V" format="2">
  <advance width="428.9650000000001"/>
  <unicode hex="0056"/>
  <outline>
    <contour>
      <point x="145.20499999999998" y="0.0" type="line"/>
      <point x="287.67499999999995" y="0.0" type="line"/>
      <point x="425.615" y="699.775" type="line"/>
      <point x="305.03" y="701.18" type="line"/>
      <point x="216.55" y="124.05000000000001" type="line"/>
      <point x="124.2" y="701.18" type="line"/>
      <point x="3.3499999999999996" y="699.775" type="line"/>
    </contour>
  </outline>
</glyph>
<glyph name="W" format="2">
  <advance width="565.1"/>
  <unicode hex="0057"/>
  <anchor x="282.475" y="700.0" name="top"/>
  <anchor x="282.475" y="0.0" name="bottom"/>
  <outline>
    <contour>
      <point x="468.96000000000004" y="0.0" type="line"/>
      <point x="561.5300000000001" y="699.915" type="line"/>
      <point x="437.985" y="701.04" type="line"/>
      <point x="403.67999999999995" y="146.015" type="line"/>
      <point x="328.555" y="668.53" type="line"/>
      <point x="240.75000000000003" y="668.53" type="line"/>
      <point x="164.69000000000003" y="145.895" type="line"/>
      <point x="126.78500000000001" y="701.04" type="line"/>
      <point x="3.569999999999999" y="699.915" type="line"/>
      <point x="95.34" y="0.0" type="line"/>
      <point x="214.55" y="0.0" type="line"/>
      <point x="280.48499999999996" y="464.725" type="line"/>
      <point x="343.345" y="0.0" type="line"/>
    </contour>
  </outline>
</glyph>
<glyph name="X" format="2">
  <advance width="441.27"/>
  <unicode hex="0058"/>
  <outline>
    <contour>
      <point x="7.619999999999999" y="1.1149999999999998" type="line"/>
      <point x="140.43" y="-2.0349999999999997" type="line"/>
      <point x="220.0775" y="275.0575" type="line"/>
      <point x="299.075" y="-2.0349999999999997" type="line"/>
      <point x="432.42750000000007" y="1.1149999999999998" type="line"/>
      <point x="303.70000000000005" y="357.7275000000001" type="line"/>
      <point x="424.3525" y="698.5475" type="line"/>
      <point x="294.6275" y="701.4725" type="line"/>
      <point x="223.3075" y="439.175" type="line"/>
      <point x="149.76999999999998" y="701.4725" type="line"/>
      <point x="18.0425" y="698.5475" type="line"/>
      <point x="139.26999999999998" y="357.13" type="line"/>
    </contour>
  </outline>
</glyph>
<glyph name="Y" format="2">
  <advance width="424.6"/>
  <unicode hex="0059"/>
  <anchor x="212.70499999999998" y="700.0" name="top"/>
  <anchor x="212.615" y="0.0" name="bottom"/>
  <outline>
    <contour>
      <point x="156.16" y="0.0" type="line"/>
      <point x="269.385" y="0.0" type="line"/>
      <point x="269.385" y="257.05" type="line"/>
      <point x="420.13500000000005" y="698.425" type="line"/>
      <point x="293.23" y="701.575" type="line"/>
      <point x="213.13000000000002" y="340.83" type="line"/>
      <point x="129.97000000000003" y="701.575" type="line"/>
      <point x="2.8449999999999993" y="698.425" type="line"/>
      <point x="156.16" y="257.05" type="line"/>
    </contour>
  </outline>
</glyph>
<glyph name="Z" format="2">
  <advance width="398.70000000000005"/>
  <unicode hex="005A"/>
  <anchor x="202.87499999999997" y="350.0" name="center"/>
  <anchor x="202.87499999999997" y="0.0" name="bottom"/>
  <anchor x="204.98999999999998" y="700.0" name="top"/>
  <outline>
    <contour>
      <point x="15.445" y="0.0" type="line"/>
      <point x="385.68499999999995" y="0.0" type="line"/>
      <point x="385.68499999999995" y="105.78" type="line"/>
      <point x="132.51500000000001" y="105.78" type="line"/>
      <point x="132.51500000000001" y="107.015" type="line"/>
      <point x="373.81" y="593.7" type="line"/>
      <point x="373.81" y="700.0" type="line"/>
      <point x="25.39" y="700.0" type="line"/>
      <point x="25.39" y="594.895" type="line"/>
      <point x="255.65" y="594.895" type="line"/>
      <point x="255.65" y="592.9849999999999" type="line"/>
      <point x="15.445" y="106.975" type="line"/>
    </contour>
  </outline>
</glyph>
<glyph name="bracketleft" format="2">
  <advance width="236.03"/>
  <unicode hex="005B"/>
  <outline>
    <contour>
      <point x="123.46" y="-119.05" type="line"/>
      <point x="123.46" y="649.0500000000001" type="line"/>
      <point x="225.48000000000002" y="649.0500000000001" type="line"/>
      <point x="225.48000000000002" y="740.0" type="line"/>
      <point x="35.975" y="740.0" type="line"/>
      <point x="35.975" y="-210.0" type="line"/>
      <point x="225.48000000000002" y="-210.0" type="line"/>
      <point x="225.48000000000002" y="-119.05" type="line"/>
    </contour>
  </outline>
</glyph>
<glyph name="backslash" format="2">
  <advance width="325.365"/>
  <unicode hex="005C"/>
  <outline>
    <contour>
      <point x="92.17" y="740.0" type="line"/>
      <point x="-3.1400000000000006" y="740.0" type="line"/>
      <point x="233.69" y="-210.0" type="line"/>
      <point x="328.505" y="-210.0" type="line"/>
    </contour>
  </outline>
</glyph>
<glyph name="bracketright" format="2">
  <advance width="236.03"/>
  <unicode hex="005D"/>
  <outline>
    <contour>
      <point x="10.549999999999999" y="-119.05" type="line"/>
      <point x="10.549999999999999" y="-210.0" type="line"/>
      <point x="200.05499999999998" y="-210.0" type="line"/>
      <point x="200.05499999999998" y="740.0" type="line"/>
      <point x="10.549999999999999" y="740.0" type="line"/>
      <point x="10.549999999999999" y="649.0500000000001" type="line"/>
      <point x="112.57000000000001" y="649.0500000000001" type="line"/>
      <point x="112.57000000000001" y="-119.05" type="line"/>
    </contour>
  </outline>
</glyph>
<glyph name="asciicircum" format="2">
  <advance width="425.96"/>
  <unicode hex="005E"/>
  <outline>
    <contour>
      <point x="43.575" y="256.31499999999994" type="line"/>
      <point x="127.915" y="256.31499999999994" type="line"/>
      <point x="212.98" y="587.3149999999999" type="line"/>
      <point x="298.59499999999997" y="256.31499999999994" type="line"/>
      <point x="382.385" y="256.31499999999994" type="line"/>
      <point x="268.135" y="704.5" type="line"/>
      <point x="157.82500000000002" y="704.5" type="line"/>
    </contour>
  </outline>
</glyph>
<glyph name="underscore" format="2">
  <advance width="658.3100000000001"/>
  <unicode hex="005F"/>
  <outline>
    <contour>
      <point x="11.0" y="-176.205" type="line"/>
      <point x="647.3100000000001" y="-176.205" type="line"/>
      <point x="647.3100000000001" y="-74.805" type="line"/>
      <point x="11.0" y="-74.805" type="line"/>
    </contour>
  </outline>
</glyph>
<glyph name="a" format="2">
  <advance width="393.1"/>
  <unicode hex="0061"/>
  <anchor x="391.9" y="8.700000000000001" name="ogonek"/>
  <anchor x="191.475" y="0.0" name="bottom"/>
  <anchor x="187.975" y="541.0" name="top"/>
  <outline>
    <contour>
      <point x="11.45" y="138.95000000000002" type="curve" smooth="yes"/>
      <point x="11.45" y="54.9"/>
      <point x="49.475" y="-10.0"/>
      <point x="127.2" y="-10.0" type="curve" smooth="yes"/>
      <point x="177.52500000000003" y="-10.0"/>
      <point x="209.175" y="8.774999999999999"/>
      <point x="241.275" y="39.075" type="curve"/>
      <point x="253.525" y="6.775"/>
      <point x="278.24999999999994" y="-10.0"/>
      <point x="321.6" y="-10.0" type="curve" smooth="yes"/>
      <point x="352.34999999999997" y="-10.0"/>
      <point x="373.5" y="-2.274999999999999"/>
      <point x="391.9" y="8.925" type="curve"/>
      <point x="382.27500000000003" y="105.92500000000001" type="line"/>
      <point x="375.42500000000007" y="102.22500000000001"/>
      <point x="367.825" y="101.225"/>
      <point x="361.07500000000005" y="101.225" type="curve" smooth="yes"/>
      <point x="350.82500000000005" y="101.225"/>
      <point x="343.25" y="108.125"/>
      <point x="343.25" y="135.25000000000003" type="curve" smooth="yes"/>
      <point x="343.25" y="379.6" type="line" smooth="yes"/>
      <point x="343.25" y="489.475"/>
      <point x="295.0" y="551.0"/>
      <point x="172.1" y="551.0" type="curve" smooth="yes"/>
      <point x="131.77500000000003" y="551.0"/>
      <point x="77.05" y="540.95"/>
      <point x="33.7" y="524.0" type="curve"/>
      <point x="56.949999999999996" y="422.425" type="line"/>
      <point x="102.42500000000001" y="437.675"/>
      <point x="137.175" y="440.75"/>
      <point x="160.625" y="440.75" type="curve" smooth="yes"/>
      <point x="203.65" y="440.75"/>
      <point x="232.7" y="418.025"/>
      <point x="232.7" y="376.375" type="curve" smooth="yes"/>
      <point x="232.7" y="316.15000000000003" type="line"/>
      <point x="90.225" y="296.3500000000001"/>
      <point x="11.45" y="261.82500000000005"/>
    </contour>
    <contour>
      <point x="121.47500000000001" y="149.975" type="curve" smooth="yes"/>
      <point x="121.47500000000001" y="217.125"/>
      <point x="168.79999999999998" y="231.77499999999998"/>
      <point x="232.7" y="240.65" type="curve"/>
      <point x="232.7" y="111.60000000000001" type="line"/>
      <point x="217.17499999999998" y="92.775"/>
      <point x="192.3" y="79.325"/>
      <point x="167.225" y="79.325" type="curve" smooth="yes"/>
      <point x="139.15" y="79.325"/>
      <point x="121.47500000000001" y="102.125"/>
    </contour>
  </outline>
</glyph>
<glyph name="b" format="2">
  <advance width="398.945"/>
  <unicode hex="0062"/>
  <outline>
    <contour>
      <point x="35.775" y="13.235" type="line"/>
      <point x="86.125" y="-1.3849999999999996"/>
      <point x="139.325" y="-10.0"/>
      <point x="181.98000000000002" y="-10.0" type="curve" smooth="yes"/>
      <point x="322.97" y="-10.0"/>
      <point x="377.325" y="70.565"/>
      <point x="377.325" y="285.47999999999996" type="curve" smooth="yes"/>
      <point x="377.325" y="463.15500000000003"/>
      <point x="332.12499999999994" y="551.0"/>
      <point x="240.8" y="551.0" type="curve" smooth="yes"/>
      <point x="210.67999999999998" y="551.0"/>
      <point x="174.58" y="539.09"/>
      <point x="147.9" y="520.725" type="curve"/>
      <point x="147.9" y="740.0" type="line"/>
      <point x="35.775" y="740.0" type="line"/>
    </contour>
    <contour>
      <point x="147.9" y="86.775" type="curve"/>
      <point x="147.9" y="427.65" type="line"/>
      <point x="169.19499999999996" y="441.78000000000003"/>
      <point x="183.905" y="447.0"/>
      <point x="202.47500000000002" y="447.0" type="curve" smooth="yes"/>
      <point x="240.61" y="447.0"/>
      <point x="259.535" y="397.26500000000004"/>
      <point x="259.535" y="274.315" type="curve" smooth="yes"/>
      <point x="259.535" y="122.955"/>
      <point x="240.42" y="79.965"/>
      <point x="188.04" y="79.965" type="curve" smooth="yes"/>
      <point x="176.49" y="79.965"/>
      <point x="165.22500000000002" y="81.95000000000002"/>
    </contour>
  </outline>
</glyph>
<glyph name="c" format="2">
  <advance width="340.805"/>
  <unicode hex="0063"/>
  <anchor x="206.025" y="541.0" name="top"/>
  <anchor x="209.73" y="0.0" name="bottom"/>
  <outline>
    <contour>
      <point x="22.069999999999997" y="267.14" type="curve" smooth="yes"/>
      <point x="22.069999999999997" y="77.05999999999999"/>
      <point x="81.335" y="-10.0"/>
      <point x="204.80500000000004" y="-10.0" type="curve" smooth="yes"/>
      <point x="247.035" y="-10.0"/>
      <point x="299.64" y="-1.8249999999999997"/>
      <point x="328.72" y="9.115000000000002" type="curve"/>
      <point x="306.505" y="107.07" type="line"/>
      <point x="281.655" y="101.33000000000001"/>
      <point x="253.88" y="97.445"/>
      <point x="230.935" y="97.445" type="curve" smooth="yes"/>
      <point x="170.80500000000004" y="97.445"/>
      <point x="138.06" y="137.815"/>
      <point x="138.06" y="268.38500000000005" type="curve" smooth="yes"/>
      <point x="138.06" y="404.295"/>
      <point x="170.41500000000005" y="443.2349999999999"/>
      <point x="234.17999999999998" y="443.2349999999999" type="curve" smooth="yes"/>
      <point x="257.77500000000003" y="443.2349999999999"/>
      <point x="281.08" y="440.2749999999999"/>
      <point x="303.255" y="434.75" type="curve"/>
      <point x="321.59999999999997" y="536.435" type="line"/>
      <point x="295.3" y="545.85"/>
      <point x="252.41" y="551.0"/>
      <point x="214.825" y="551.0" type="curve" smooth="yes"/>
      <point x="85.55499999999999" y="551.0"/>
      <point x="22.069999999999997" y="461.16999999999996"/>
    </contour>
  </outline>
</glyph>
<glyph name="d" format="2">
  <advance width="399.54"/>
  <unicode hex="0064"/>
  <anchor x="198.965" y="275.0" name="center"/>
  <anchor x="197.1375" y="740.0" name="top"/>
  <anchor x="412.09000000000003" y="740.0" name="topright"/>
  <anchor x="198.965" y="0.0" name="bottom"/>
  <outline>
    <contour>
      <point x="263.655" y="-0.265" type="line"/>
      <point x="363.87750000000005" y="-0.265" type="line"/>
      <point x="363.87750000000005" y="740.0" type="line"/>
      <point x="250.98749999999998" y="740.0" type="line"/>
      <point x="250.98749999999998" y="544.1075" type="line"/>
      <point x="232.495" y="548.785"/>
      <point x="212.67500000000004" y="551.0"/>
      <point x="195.54500000000002" y="551.0" type="curve" smooth="yes"/>
      <point x="77.81999999999998" y="551.0"/>
      <point x="21.5525" y="458.555"/>
      <point x="21.5525" y="259.9975" type="curve" smooth="yes"/>
      <point x="21.5525" y="82.13"/>
      <point x="68.13499999999999" y="-10.0"/>
      <point x="156.59249999999997" y="-10.0" type="curve" smooth="yes"/>
      <point x="191.18999999999997" y="-10.0"/>
      <point x="225.715" y="1.1"/>
      <point x="253.33999999999997" y="21.152500000000003" type="curve"/>
    </contour>
    <contour>
      <point x="250.9775" y="110.515" type="line"/>
      <point x="231.2125" y="98.09500000000001"/>
      <point x="215.4225" y="92.7625"/>
      <point x="197.1" y="92.7625" type="curve" smooth="yes"/>
      <point x="159.055" y="92.7625"/>
      <point x="140.08499999999998" y="144.5"/>
      <point x="140.08499999999998" y="275.01000000000005" type="curve" smooth="yes"/>
      <point x="140.08499999999998" y="418.045"/>
      <point x="159.0425" y="459.28000000000003"/>
      <point x="210.76999999999998" y="459.28000000000003" type="curve" smooth="yes"/>
      <point x="223.00499999999994" y="459.28000000000003"/>
      <point x="233.945" y="457.4525"/>
      <point x="250.9775" y="451.165" type="curve"/>
    </contour>
  </outline>
</glyph>
<glyph name="e" format="2">
  <advance width="386.27000000000004"/>
  <unicode hex="0065"/>
  <anchor x="323.21500000000003" y="7.6450000000000005" name="ogonek"/>
  <anchor x="200.52" y="0.0" name="bottom"/>
  <anchor x="201.99" y="541.0" name="top"/>
  <outline>
    <contour>
      <point x="202.615" y="-10.0" type="curve" smooth="yes"/>
      <point x="261.76500000000004" y="-10.0"/>
      <point x="311.16" y="-0.9549999999999997"/>
      <point x="360.085" y="19.205000000000002" type="curve"/>
      <point x="344.81000000000006" y="113.17000000000002" type="line"/>
      <point x="305.67999999999995" y="101.485"/>
      <point x="265.5400000000001" y="93.315"/>
      <point x="229.17000000000002" y="93.315" type="curve" smooth="yes"/>
      <point x="161.085" y="93.315"/>
      <point x="137.275" y="127.40500000000002"/>
      <point x="137.255" y="221.15999999999997" type="curve" smooth="yes"/>
      <point x="137.255" y="226.16500000000002"/>
      <point x="137.255" y="230.845"/>
      <point x="137.47999999999996" y="235.85" type="curve"/>
      <point x="219.235" y="237.29500000000002"/>
      <point x="316.36999999999995" y="248.67999999999998"/>
      <point x="365.08500000000004" y="255.20999999999998" type="curve"/>
      <point x="365.42" y="269.215"/>
      <point x="366.41" y="299.15"/>
      <point x="366.41" y="309.895" type="curve" smooth="yes"/>
      <point x="366.41" y="482.21000000000004"/>
      <point x="317.24000000000007" y="551.0"/>
      <point x="208.575" y="551.0" type="curve" smooth="yes"/>
      <point x="91.35000000000001" y="551.0"/>
      <point x="21.889999999999997" y="478.0849999999999"/>
      <point x="21.889999999999997" y="259.13499999999993" type="curve" smooth="yes"/>
      <point x="21.889999999999997" y="67.94500000000001"/>
      <point x="81.48500000000001" y="-10.0"/>
    </contour>
    <contour>
      <point x="137.715" y="315.52" type="curve"/>
      <point x="143.05" y="436.29"/>
      <point x="168.67499999999998" y="461.57000000000005"/>
      <point x="202.215" y="461.57000000000005" type="curve" smooth="yes"/>
      <point x="237.31" y="461.57000000000005"/>
      <point x="254.72000000000003" y="430.06999999999994"/>
      <point x="255.25000000000003" y="322.725" type="curve"/>
      <point x="235.90500000000003" y="319.9150000000001"/>
      <point x="183.7" y="315.7650000000001"/>
    </contour>
  </outline>
</glyph>
<glyph name="f" format="2">
  <advance width="274.59000000000003"/>
  <unicode hex="0066"/>
  <outline>
    <contour>
      <point x="67.33" y="0.0" type="line"/>
      <point x="177.25500000000002" y="0.0" type="line"/>
      <point x="177.25500000000002" y="413.585" type="line"/>
      <point x="260.4" y="413.585" type="line"/>
      <point x="260.4" y="506.275" type="line"/>
      <point x="177.75" y="506.275" type="line"/>
      <point x="177.75" y="526.49" type="line" smooth="yes"/>
      <point x="177.75" y="615.235"/>
      <point x="199.64000000000001" y="650.92"/>
      <point x="245.47499999999997" y="650.92" type="curve" smooth="yes"/>
      <point x="260.62" y="650.92"/>
      <point x="276.56" y="648.545"/>
      <point x="296.97999999999996" y="642.065" type="curve"/>
      <point x="313.95000000000005" y="729.51" type="line"/>
      <point x="279.655" y="744.21"/>
      <point x="249.905" y="750.0450000000001"/>
      <point x="216.69500000000002" y="750.0450000000001" type="curve" smooth="yes"/>
      <point x="118.03" y="750.0450000000001"/>
      <point x="67.33" y="677.0799999999999"/>
      <point x="67.33" y="527.8100000000001" type="curve" smooth="yes"/>
      <point x="67.33" y="506.275" type="line"/>
      <point x="9.725" y="499.055" type="line"/>
      <point x="9.725" y="413.585" type="line"/>
      <point x="67.33" y="413.585" type="line"/>
    </contour>
  </outline>
</glyph>
<glyph name="g" format="2">
  <advance width="403.70500000000004"/>
  <unicode hex="0067"/>
  <anchor x="190.21" y="541.0" name="top"/>
  <anchor x="200.11" y="-211.0" name="bottom"/>
  <outline>
    <contour>
      <point x="185.895" y="-220.0" type="curve" smooth="yes"/>
      <point x="319.525" y="-220.0"/>
      <point x="390.44" y="-153.19499999999996"/>
      <point x="390.44" y="-41.87499999999999" type="curve" smooth="yes"/>
      <point x="390.44" y="51.14500000000001"/>
      <point x="342.925" y="106.12"/>
      <point x="257.29" y="106.12" type="curve" smooth="yes"/>
      <point x="169.92" y="106.12" type="line" smooth="yes"/>
      <point x="135.73000000000002" y="106.12"/>
      <point x="118.10499999999999" y="119.5"/>
      <point x="118.10499999999999" y="146.075" type="curve" smooth="yes"/>
      <point x="118.10499999999999" y="172.18999999999997"/>
      <point x="128.975" y="185.61999999999998"/>
      <point x="153.42999999999998" y="202.26500000000001" type="curve"/>
      <point x="93.02" y="225.75" type="line"/>
      <point x="56.349999999999994" y="199.1"/>
      <point x="31.23" y="164.585"/>
      <point x="31.23" y="113.85499999999999" type="curve" smooth="yes"/>
      <point x="31.23" y="48.55"/>
      <point x="77.28499999999998" y="2.0649999999999973"/>
      <point x="157.84" y="2.0649999999999973" type="curve" smooth="yes"/>
      <point x="229.70500000000004" y="2.0649999999999973" type="line" smooth="yes"/>
      <point x="269.39000000000004" y="2.0649999999999973"/>
      <point x="286.49000000000007" y="-17.42"/>
      <point x="286.49000000000007" y="-53.985" type="curve" smooth="yes"/>
      <point x="286.49000000000007" y="-98.21499999999999"/>
      <point x="256.145" y="-124.235"/>
      <point x="193.48500000000004" y="-124.235" type="curve" smooth="yes"/>
      <point x="134.405" y="-124.235"/>
      <point x="105.65500000000002" y="-101.37"/>
      <point x="105.65500000000002" y="-54.13499999999999" type="curve" smooth="yes"/>
      <point x="105.65500000000002" y="-22.694999999999993"/>
      <point x="119.36000000000001" y="-2.845000000000001"/>
      <point x="143.74000000000004" y="14.825" type="curve"/>
      <point x="78.01499999999999" y="39.11999999999999" type="line"/>
      <point x="37.075" y="13.5"/>
      <point x="14.129999999999999" y="-24.965000000000003"/>
      <point x="14.129999999999999" y="-80.86000000000001" type="curve" smooth="yes"/>
      <point x="14.129999999999999" y="-172.25000000000003"/>
      <point x="75.69000000000001" y="-220.0"/>
    </contour>
    <contour>
      <point x="193.22500000000002" y="182.135" type="curve" smooth="yes"/>
      <point x="297.195" y="182.135"/>
      <point x="351.15500000000003" y="244.44000000000003"/>
      <point x="351.15500000000003" y="366.46" type="curve" smooth="yes"/>
      <point x="351.15500000000003" y="488.705"/>
      <point x="297.195" y="551.01"/>
      <point x="193.22500000000002" y="551.01" type="curve" smooth="yes"/>
      <point x="88.58000000000001" y="551.01"/>
      <point x="34.61999999999999" y="488.705"/>
      <point x="34.61999999999999" y="366.46" type="curve" smooth="yes"/>
      <point x="34.61999999999999" y="244.44000000000003"/>
      <point x="88.58000000000001" y="182.135"/>
    </contour>
    <contour>
      <point x="193.22500000000002" y="269.45" type="curve" smooth="yes"/>
      <point x="158.55000000000004" y="269.45"/>
      <point x="142.39499999999998" y="295.145"/>
      <point x="142.39499999999998" y="366.46" type="curve" smooth="yes"/>
      <point x="142.39499999999998" y="438.22499999999997"/>
      <point x="158.55000000000004" y="463.92"/>
      <point x="193.22500000000002" y="463.92" type="curve" smooth="yes"/>
      <point x="227.89999999999998" y="463.92"/>
      <point x="243.37999999999994" y="438.22499999999997"/>
      <point x="243.37999999999994" y="366.46" type="curve" smooth="yes"/>
      <point x="243.37999999999994" y="295.145"/>
      <point x="227.89999999999998" y="269.45"/>
    </contour>
    <contour>
      <point x="323.27500000000003" y="433.13" type="line"/>
      <point x="334.375" y="456.49499999999995"/>
      <point x="348.0950000000001" y="467.32499999999993"/>
      <point x="364.735" y="467.32499999999993" type="curve" smooth="yes"/>
      <point x="374.005" y="467.32499999999993"/>
      <point x="380.28499999999997" y="466.22499999999997"/>
      <point x="386.81" y="464.655" type="curve"/>
      <point x="402.16000000000014" y="562.195" type="line"/>
      <point x="391.99" y="567.3100000000001"/>
      <point x="378.325" y="570.335"/>
      <point x="363.555" y="570.335" type="curve" smooth="yes"/>
      <point x="327.59999999999997" y="570.335"/>
      <point x="299.06500000000005" y="550.9300000000002"/>
      <point x="281.25" y="511.765" type="curve"/>
    </contour>
  </outline>
</glyph>
<glyph name="h" format="2">
  <advance width="401.0725"/>
  <unicode hex="0068"/>
  <anchor x="200.0425" y="395.0" name="center"/>
  <anchor x="200.5925" y="0.0" name="bottom"/>
  <anchor x="205.17249999999996" y="740.0" name="top"/>
  <outline>
    <contour>
      <point x="35.6625" y="0.0" type="line"/>
      <point x="148.125" y="0.0" type="line"/>
      <point x="148.125" y="425.37" type="line"/>
      <point x="166.85000000000002" y="437.42499999999995"/>
      <point x="188.3725" y="445.2325"/>
      <point x="208.08" y="445.2325" type="curve" smooth="yes"/>
      <point x="236.595" y="445.2325"/>
      <point x="253.375" y="428.70500000000004"/>
      <point x="253.375" y="392.5675" type="curve" smooth="yes"/>
      <point x="253.375" y="0.0" type="line"/>
      <point x="366.26500000000004" y="0.0" type="line"/>
      <point x="366.26500000000004" y="423.3475" type="line" smooth="yes"/>
      <point x="366.26500000000004" y="513.7399999999999"/>
      <point x="323.34250000000003" y="551.0"/>
      <point x="258.00000000000006" y="551.0" type="curve" smooth="yes"/>
      <point x="220.84250000000003" y="551.0"/>
      <point x="181.835" y="537.6025"/>
      <point x="148.125" y="510.8325" type="curve"/>
      <point x="148.125" y="740.0" type="line"/>
      <point x="35.6625" y="740.0" type="line"/>
    </contour>
  </outline>
</glyph>
<glyph name="i" format="2">
  <advance width="183.675"/>
  <unicode hex="0069"/>
  <anchor x="147.85500000000002" y="0.0" name="ogonek"/>
  <anchor x="92.08500000000001" y="0.0" name="bottom"/>
  <outline>
    <contour>
      <point x="92.08500000000001" y="617.655" type="curve" smooth="yes"/>
      <point x="137.305" y="617.655"/>
      <point x="156.93000000000004" y="638.51"/>
      <point x="156.93000000000004" y="685.805" type="curve" smooth="yes"/>
      <point x="156.93000000000004" y="734.09"/>
      <point x="136.315" y="754.45"/>
      <point x="92.08500000000001" y="754.45" type="curve" smooth="yes"/>
      <point x="47.36" y="754.45"/>
      <point x="26.744999999999997" y="734.09"/>
      <point x="26.744999999999997" y="685.805" type="curve" smooth="yes"/>
      <point x="26.744999999999997" y="638.015"/>
      <point x="47.81" y="617.655"/>
    </contour>
    <contour>
      <point x="35.775" y="0.0" type="line"/>
      <point x="147.9" y="0.0" type="line"/>
      <point x="147.9" y="541.0" type="line"/>
      <point x="35.775" y="541.0" type="line"/>
    </contour>
  </outline>
</glyph>
<glyph name="j" format="2">
  <advance width="184.90000000000003"/>
  <unicode hex="006A"/>
  <outline>
    <contour>
      <point x="149.17000000000002" y="541.0" type="line"/>
      <point x="37.044999999999995" y="541.0" type="line"/>
      <point x="37.044999999999995" y="21.37" type="line" smooth="yes"/>
      <point x="37.044999999999995" y="-47.345"/>
      <point x="23.075" y="-83.07000000000001"/>
      <point x="-7.710000000000001" y="-97.47" type="curve" smooth="yes"/>
      <point x="-16.400000000000002" y="-99.76499999999999"/>
      <point x="-24.1" y="-100.125"/>
      <point x="-34.724999999999994" y="-99.04499999999999" type="curve"/>
      <point x="-44.545" y="-205.73" type="line"/>
      <point x="-21.295000000000005" y="-209.57500000000002"/>
      <point x="1.055" y="-210.01000000000002"/>
      <point x="20.785000000000004" y="-207.31000000000003" type="curve" smooth="yes"/>
      <point x="112.44000000000001" y="-190.75"/>
      <point x="149.17000000000002" y="-119.04"/>
      <point x="149.17000000000002" y="13.065000000000001" type="curve" smooth="yes"/>
    </contour>
    <contour>
      <point x="93.265" y="617.655" type="curve" smooth="yes"/>
      <point x="138.08" y="617.655"/>
      <point x="158.11" y="638.51"/>
      <point x="158.11" y="685.805" type="curve" smooth="yes"/>
      <point x="158.11" y="734.09"/>
      <point x="137.09" y="754.45"/>
      <point x="93.265" y="754.45" type="curve" smooth="yes"/>
      <point x="48.54" y="754.45"/>
      <point x="27.925" y="734.09"/>
      <point x="27.925" y="685.805" type="curve" smooth="yes"/>
      <point x="27.925" y="638.015"/>
      <point x="48.99" y="617.655"/>
    </contour>
  </outline>
</glyph>
<glyph name="k" format="2">
  <advance width="380.65"/>
  <unicode hex="006B"/>
  <anchor x="88.975" y="740.0" name="top"/>
  <anchor x="202.70000000000002" y="0.0" name="bottom"/>
  <outline>
    <contour>
      <point x="346.20000000000005" y="-8.475" type="curve" smooth="yes"/>
      <point x="357.34999999999997" y="-8.475"/>
      <point x="367.75" y="-7.475"/>
      <point x="378.375" y="-4.625" type="curve"/>
      <point x="377.225" y="116.35000000000001" type="line"/>
      <point x="373.52500000000003" y="116.35000000000001"/>
      <point x="369.5" y="115.45"/>
      <point x="366.3" y="115.45" type="curve" smooth="yes"/>
      <point x="341.67499999999995" y="115.45"/>
      <point x="322.25" y="130.8"/>
      <point x="256.275" y="228.67499999999998" type="curve" smooth="yes"/>
      <point x="141.5" y="400.875" type="line"/>
      <point x="141.5" y="740.0" type="line"/>
      <point x="36.45" y="740.0" type="line"/>
      <point x="36.45" y="0.0" type="line"/>
      <point x="141.5" y="0.0" type="line"/>
      <point x="141.5" y="217.49999999999997" type="line"/>
      <point x="225.60000000000002" y="93.15" type="line" smooth="yes"/>
      <point x="284.125" y="6.4"/>
      <point x="306.2" y="-8.475"/>
    </contour>
    <contour>
      <point x="216.75000000000003" y="226.45" type="line"/>
      <point x="283.975" y="316.575"/>
      <point x="351.425" y="429.85"/>
      <point x="370.00000000000006" y="541.5250000000001" type="curve"/>
      <point x="261.20000000000005" y="550.0" type="line"/>
      <point x="246.62500000000003" y="439.99999999999994"/>
      <point x="202.20000000000002" y="368.725"/>
      <point x="143.7" y="294.175" type="curve"/>
    </contour>
  </outline>
</glyph>
<glyph name="l" format="2">
  <advance width="216.21499999999997"/>
  <unicode hex="006C"/>
  <anchor x="108.52499999999999" y="395.0" name="center"/>
  <anchor x="92.08500000000001" y="740.0" name="top"/>
  <anchor x="196.225" y="740.0" name="topright"/>
  <anchor x="126.275" y="0.0" name="bottom"/>
  <outline>
    <contour>
      <point x="147.9" y="740.0" type="line"/>
      <point x="35.775" y="740.0" type="line"/>
      <point x="35.775" y="142.435" type="line" smooth="yes"/>
      <point x="35.775" y="28.450000000000003"/>
      <point x="71.415" y="-10.0"/>
      <point x="146.48499999999999" y="-10.0" type="curve" smooth="yes"/>
      <point x="173.595" y="-10.0"/>
      <point x="198.905" y="-1.1749999999999994"/>
      <point x="216.21" y="8.350000000000001" type="curve"/>
      <point x="207.59000000000003" y="103.405" type="line"/>
      <point x="195.83500000000004" y="99.985"/>
      <point x="186.71" y="98.495"/>
      <point x="179.70499999999998" y="98.495" type="curve" smooth="yes"/>
      <point x="160.44" y="98.495"/>
      <point x="147.9" y="108.305"/>
      <point x="147.9" y="156.57" type="curve" smooth="yes"/>
    </contour>
  </outline>
</glyph>
<glyph name="m" format="2">
  <advance width="604.045"/>
  <unicode hex="006D"/>
  <outline>
    <contour>
      <point x="35.775" y="0.0" type="line"/>
      <point x="148.395" y="0.0" type="line"/>
      <point x="148.395" y="426.765" type="line"/>
      <point x="164.92000000000002" y="437.63"/>
      <point x="184.48499999999999" y="445.07"/>
      <point x="202.425" y="445.07" type="curve" smooth="yes"/>
      <point x="232.165" y="445.07"/>
      <point x="246.31999999999996" y="425.39"/>
      <point x="246.31999999999996" y="392.455" type="curve" smooth="yes"/>
      <point x="246.31999999999996" y="0.0" type="line"/>
      <point x="358.94" y="0.0" type="line"/>
      <point x="358.94" y="398.28499999999997" type="line" smooth="yes"/>
      <point x="358.94" y="408.21"/>
      <point x="357.63500000000005" y="417.515"/>
      <point x="355.06" y="425.09999999999997" type="curve"/>
      <point x="372.48499999999996" y="436.93"/>
      <point x="393.11" y="445.35"/>
      <point x="412.785" y="445.35" type="curve" smooth="yes"/>
      <point x="442.65" y="445.35"/>
      <point x="456.64" y="425.68"/>
      <point x="456.64" y="392.63500000000005" type="curve" smooth="yes"/>
      <point x="456.64" y="0.0" type="line"/>
      <point x="569.26" y="0.0" type="line"/>
      <point x="569.26" y="425.8" type="line" smooth="yes"/>
      <point x="569.26" y="506.78000000000003"/>
      <point x="532.0000000000001" y="551.0"/>
      <point x="463.745" y="551.0" type="curve" smooth="yes"/>
      <point x="418.52500000000003" y="551.0"/>
      <point x="377.765" y="535.6"/>
      <point x="339.195" y="506.005" type="curve"/>
      <point x="322.00499999999994" y="535.145"/>
      <point x="293.45" y="550.775"/>
      <point x="252.78000000000003" y="550.775" type="curve" smooth="yes"/>
      <point x="214.675" y="550.775"/>
      <point x="176.44" y="539.205"/>
      <point x="138.27499999999998" y="511.02000000000004" type="curve"/>
      <point x="138.27499999999998" y="541.0" type="line"/>
      <point x="35.775" y="541.0" type="line"/>
    </contour>
  </outline>
</glyph>
<glyph name="n" format="2">
  <advance width="401.365"/>
  <unicode hex="006E"/>
  <anchor x="202.0" y="541.0" name="top"/>
  <anchor x="202.89999999999998" y="0.0" name="bottom"/>
  <outline>
    <contour>
      <point x="35.775" y="0.0" type="line"/>
      <point x="148.395" y="0.0" type="line"/>
      <point x="148.395" y="425.46" type="line"/>
      <point x="166.71500000000003" y="437.155"/>
      <point x="188.755" y="445.57"/>
      <point x="208.62" y="445.57" type="curve" smooth="yes"/>
      <point x="237.135" y="445.57"/>
      <point x="253.96" y="428.88500000000005"/>
      <point x="253.96" y="392.68" type="curve" smooth="yes"/>
      <point x="253.96" y="0.0" type="line"/>
      <point x="366.58" y="0.0" type="line"/>
      <point x="366.58" y="425.84499999999997" type="line" smooth="yes"/>
      <point x="366.58" y="509.105"/>
      <point x="327.235" y="551.0"/>
      <point x="258.31500000000005" y="551.0" type="curve" smooth="yes"/>
      <point x="217.80500000000004" y="551.0"/>
      <point x="178.32000000000002" y="539.1049999999999"/>
      <point x="138.27499999999998" y="509.985" type="curve"/>
      <point x="138.27499999999998" y="541.0" type="line"/>
      <point x="35.775" y="541.0" type="line"/>
    </contour>
  </outline>
</glyph>
<glyph name="o" format="2">
  <advance width="399.25"/>
  <unicode hex="006F"/>
  <anchor x="268.80500000000006" y="5.05" name="ogonek"/>
  <anchor x="199.625" y="541.0" name="top"/>
  <anchor x="299.21000000000004" y="531.45" name="topright"/>
  <anchor x="199.635" y="0.0" name="bottom"/>
  <outline>
    <contour>
      <point x="21.665" y="271.195" type="curve" smooth="yes"/>
      <point x="21.665" y="85.345"/>
      <point x="61.095" y="-10.0"/>
      <point x="199.635" y="-10.0" type="curve" smooth="yes"/>
      <point x="338.15500000000003" y="-10.0"/>
      <point x="377.585" y="85.345"/>
      <point x="377.585" y="271.195" type="curve" smooth="yes"/>
      <point x="377.585" y="455.74500000000006"/>
      <point x="339.865" y="551.0"/>
      <point x="199.635" y="551.0" type="curve" smooth="yes"/>
      <point x="59.295" y="551.0"/>
      <point x="21.665" y="455.74500000000006"/>
    </contour>
    <contour>
      <point x="138.475" y="271.185" type="curve" smooth="yes"/>
      <point x="138.475" y="418.265"/>
      <point x="153.96499999999997" y="449.86"/>
      <point x="199.625" y="449.86" type="curve" smooth="yes"/>
      <point x="244.8" y="449.86"/>
      <point x="260.685" y="418.265"/>
      <point x="260.685" y="271.185" type="curve" smooth="yes"/>
      <point x="260.685" y="123.24499999999999"/>
      <point x="243.75" y="91.63500000000002"/>
      <point x="199.625" y="91.63500000000002" type="curve" smooth="yes"/>
      <point x="155.005" y="91.63500000000002"/>
      <point x="138.475" y="123.24499999999999"/>
    </contour>
  </outline>
</glyph>
<glyph name="p" format="2">
  <advance width="399.44"/>
  <unicode hex="0070"/>
  <outline>
    <contour>
      <point x="35.775" y="-210.0" type="line"/>
      <point x="148.45000000000002" y="-210.0" type="line"/>
      <point x="148.45000000000002" y="-2.9050000000000002" type="line"/>
      <point x="168.53" y="-7.74"/>
      <point x="188.215" y="-10.0"/>
      <point x="203.76" y="-10.0" type="curve" smooth="yes"/>
      <point x="321.48499999999996" y="-10.0"/>
      <point x="377.82" y="82.94"/>
      <point x="377.82" y="281.52" type="curve" smooth="yes"/>
      <point x="377.82" y="458.20500000000004"/>
      <point x="331.63" y="551.0"/>
      <point x="244.265" y="551.0" type="curve" smooth="yes"/>
      <point x="208.64499999999998" y="551.0"/>
      <point x="175.13" y="540.245"/>
      <point x="144.215" y="518.9649999999999" type="curve"/>
      <point x="138.27499999999998" y="545.05" type="line"/>
      <point x="35.775" y="545.05" type="line"/>
    </contour>
    <contour>
      <point x="188.53500000000003" y="81.94500000000001" type="curve" smooth="yes"/>
      <point x="176.49" y="81.94500000000001"/>
      <point x="165.22500000000002" y="84.42500000000001"/>
      <point x="148.395" y="90.24000000000001" type="curve"/>
      <point x="148.395" y="431.115" type="line"/>
      <point x="168.70000000000002" y="444.255"/>
      <point x="183.905" y="448.98"/>
      <point x="201.98000000000002" y="448.98" type="curve" smooth="yes"/>
      <point x="240.61" y="448.98"/>
      <point x="259.535" y="398.255"/>
      <point x="259.535" y="266.395" type="curve" smooth="yes"/>
      <point x="259.535" y="123.94500000000001"/>
      <point x="240.42" y="81.94500000000001"/>
    </contour>
  </outline>
</glyph>
<glyph name="q" format="2">
  <advance width="399.935"/>
  <unicode hex="0071"/>
  <outline>
    <contour>
      <point x="364.16" y="530.15" type="line"/>
      <point x="316.555" y="543.78"/>
      <point x="264.075" y="551.0"/>
      <point x="217.95499999999998" y="551.0" type="curve" smooth="yes"/>
      <point x="81.91499999999999" y="551.0"/>
      <point x="21.619999999999997" y="466.96999999999997"/>
      <point x="21.619999999999997" y="269.38" type="curve" smooth="yes"/>
      <point x="21.619999999999997" y="80.725"/>
      <point x="66.73" y="-10.0"/>
      <point x="159.135" y="-10.0" type="curve" smooth="yes"/>
      <point x="190.245" y="-10.0"/>
      <point x="226.345" y="1.9100000000000001"/>
      <point x="252.03500000000003" y="19.78" type="curve"/>
      <point x="252.03500000000003" y="-210.0" type="line"/>
      <point x="364.16" y="-210.0" type="line"/>
    </contour>
    <contour>
      <point x="251.54" y="452.83" type="curve"/>
      <point x="251.54" y="112.36" type="line"/>
      <point x="231.235" y="98.72500000000001"/>
      <point x="216.03" y="93.01"/>
      <point x="197.46" y="93.01" type="curve" smooth="yes"/>
      <point x="159.73000000000002" y="93.01"/>
      <point x="140.39999999999998" y="143.555"/>
      <point x="140.39999999999998" y="265.69500000000005" type="curve" smooth="yes"/>
      <point x="140.39999999999998" y="417.055"/>
      <point x="159.51500000000001" y="460.045"/>
      <point x="211.89499999999998" y="460.045" type="curve" smooth="yes"/>
      <point x="222.60000000000002" y="460.045"/>
      <point x="234.71" y="458.06"/>
    </contour>
  </outline>
</glyph>
<glyph name="r" format="2">
  <advance width="288.74000000000007"/>
  <unicode hex="0072"/>
  <anchor x="157.115" y="541.0" name="top"/>
  <anchor x="91.58999999999999" y="0.0" name="bottom"/>
  <outline>
    <contour>
      <point x="137.78" y="541.0" type="line"/>
      <point x="35.775" y="541.0" type="line"/>
      <point x="35.775" y="0.0" type="line"/>
      <point x="147.405" y="0.0" type="line"/>
      <point x="147.405" y="400.015" type="line"/>
      <point x="174.97500000000002" y="425.3"/>
      <point x="198.24" y="434.405"/>
      <point x="224.01000000000002" y="434.405" type="curve" smooth="yes"/>
      <point x="235.865" y="434.405"/>
      <point x="252.9" y="432.905"/>
      <point x="268.72" y="428.36" type="curve"/>
      <point x="288.47" y="542.185" type="line"/>
      <point x="269.965" y="549.0149999999999"/>
      <point x="253.95499999999998" y="551.0"/>
      <point x="239.56" y="551.0" type="curve" smooth="yes"/>
      <point x="198.185" y="551.0"/>
      <point x="170.345" y="533.7400000000001"/>
      <point x="137.78" y="495.195" type="curve"/>
    </contour>
  </outline>
</glyph>
<glyph name="s" format="2">
  <advance width="331.025"/>
  <unicode hex="0073"/>
  <anchor x="166.6" y="541.0" name="top"/>
  <anchor x="166.50000000000003" y="0.0" name="bottom"/>
  <outline>
    <contour>
      <point x="11.549999999999999" y="16.925" type="line"/>
      <point x="51.800000000000004" y="-1.4"/>
      <point x="96.35000000000001" y="-10.0"/>
      <point x="148.175" y="-10.0" type="curve" smooth="yes"/>
      <point x="252.57499999999996" y="-10.0"/>
      <point x="319.575" y="43.9"/>
      <point x="319.575" y="150.8" type="curve" smooth="yes"/>
      <point x="319.575" y="257.05"/>
      <point x="265.05" y="290.97499999999997"/>
      <point x="201.22499999999997" y="321.59999999999997" type="curve" smooth="yes"/>
      <point x="153.25" y="344.4"/>
      <point x="122.075" y="361.525"/>
      <point x="122.075" y="400.25" type="curve" smooth="yes"/>
      <point x="122.075" y="433.24999999999994"/>
      <point x="143.39999999999998" y="449.95"/>
      <point x="182.35000000000002" y="449.95" type="curve" smooth="yes"/>
      <point x="218.07500000000002" y="449.95"/>
      <point x="250.90000000000006" y="442.875"/>
      <point x="282.675" y="431.84999999999997" type="curve"/>
      <point x="299.52500000000003" y="528.05" type="line"/>
      <point x="269.15000000000003" y="541.925"/>
      <point x="223.37500000000003" y="551.0"/>
      <point x="179.95" y="551.0" type="curve" smooth="yes"/>
      <point x="74.8" y="551.0"/>
      <point x="16.400000000000002" y="490.92499999999995"/>
      <point x="16.400000000000002" y="388.84999999999997" type="curve" smooth="yes"/>
      <point x="16.400000000000002" y="307.375"/>
      <point x="55.449999999999996" y="262.54999999999995"/>
      <point x="119.2" y="232.075" type="curve" smooth="yes"/>
      <point x="173.025" y="206.87499999999997"/>
      <point x="212.375" y="187.725"/>
      <point x="212.375" y="144.27499999999998" type="curve" smooth="yes"/>
      <point x="212.375" y="109.70000000000002"/>
      <point x="188.4" y="89.35000000000001"/>
      <point x="145.375" y="89.35000000000001" type="curve" smooth="yes"/>
      <point x="107.525" y="89.35000000000001"/>
      <point x="55.775" y="97.75000000000001"/>
      <point x="25.675000000000004" y="110.22500000000001" type="curve"/>
    </contour>
  </outline>
</glyph>
<glyph name="t" format="2">
  <advance width="283.34000000000003"/>
  <unicode hex="0074"/>
  <anchor x="139.245" y="275.0" name="center"/>
  <anchor x="123.86000000000001" y="659.5550000000001" name="top"/>
  <anchor x="232.03" y="757.6" name="topright"/>
  <anchor x="165.07999999999998" y="0.0" name="bottom"/>
  <outline>
    <contour>
      <point x="182.82" y="-10.0" type="curve" smooth="yes"/>
      <point x="211.245" y="-10.0"/>
      <point x="247.69500000000002" y="-6.404999999999999"/>
      <point x="284.19" y="8.815000000000001" type="curve"/>
      <point x="267.56000000000006" y="101.00000000000001" type="line"/>
      <point x="251.41" y="96.4"/>
      <point x="236.15" y="94.35"/>
      <point x="222.26999999999998" y="94.35" type="curve" smooth="yes"/>
      <point x="188.145" y="94.35"/>
      <point x="172.1" y="112.76"/>
      <point x="172.1" y="168.92999999999998" type="curve" smooth="yes"/>
      <point x="172.1" y="448.30999999999995" type="line"/>
      <point x="268.815" y="448.30999999999995" type="line"/>
      <point x="268.815" y="541.0" type="line"/>
      <point x="172.1" y="541.0" type="line"/>
      <point x="172.1" y="659.5550000000001" type="line"/>
      <point x="75.21500000000002" y="659.5550000000001" type="line"/>
      <point x="59.975" y="541.0" type="line"/>
      <point x="6.475" y="534.275" type="line"/>
      <point x="6.475" y="448.80499999999995" type="line"/>
      <point x="59.975" y="448.80499999999995" type="line"/>
      <point x="59.975" y="157.26999999999998" type="line" smooth="yes"/>
      <point x="59.975" y="48.629999999999995"/>
      <point x="95.875" y="-10.0"/>
    </contour>
  </outline>
</glyph>
<glyph name="u" format="2">
  <advance width="412.81"/>
  <unicode hex="0075"/>
  <anchor x="411.865" y="9.010000000000002" name="ogonek"/>
  <anchor x="199.48499999999999" y="541.0" name="top"/>
  <anchor x="363.15999999999997" y="541.0" name="topright"/>
  <anchor x="206.91" y="0.0" name="bottom"/>
  <outline>
    <contour>
      <point x="146.785" y="-10.0" type="curve" smooth="yes"/>
      <point x="190.255" y="-10.0"/>
      <point x="229.09499999999997" y="5.36"/>
      <point x="263.89000000000004" y="30.164999999999996" type="curve"/>
      <point x="277.77500000000003" y="6.07"/>
      <point x="302.02500000000003" y="-10.0"/>
      <point x="336.67" y="-10.0" type="curve" smooth="yes"/>
      <point x="367.74" y="-10.0"/>
      <point x="391.57" y="-1.96"/>
      <point x="411.865" y="9.010000000000002" type="curve"/>
      <point x="401.995" y="105.11" type="line"/>
      <point x="395.46999999999997" y="102.14500000000001"/>
      <point x="387.88500000000005" y="100.65"/>
      <point x="381.225" y="100.65" type="curve" smooth="yes"/>
      <point x="369.635" y="100.65"/>
      <point x="363.15999999999997" y="107.72500000000002"/>
      <point x="363.15999999999997" y="130.795" type="curve" smooth="yes"/>
      <point x="363.15999999999997" y="541.0" type="line"/>
      <point x="251.03499999999997" y="541.0" type="line"/>
      <point x="251.03499999999997" y="115.16500000000002" type="line"/>
      <point x="232.98000000000002" y="102.9"/>
      <point x="211.23" y="95.21000000000001"/>
      <point x="192.19" y="95.21000000000001" type="curve" smooth="yes"/>
      <point x="164.28500000000003" y="95.21000000000001"/>
      <point x="147.405" y="111.67"/>
      <point x="147.405" y="146.65" type="curve" smooth="yes"/>
      <point x="147.405" y="541.0" type="line"/>
      <point x="34.785" y="541.0" type="line"/>
      <point x="34.785" y="126.63000000000001" type="line" smooth="yes"/>
      <point x="34.785" y="26.450000000000003"/>
      <point x="83.03500000000001" y="-10.0"/>
    </contour>
  </outline>
</glyph>
<glyph name="v" format="2">
  <advance width="392.85249999999996"/>
  <unicode hex="0076"/>
  <outline>
    <contour>
      <point x="126.19" y="0.0" type="line"/>
      <point x="265.79249999999996" y="0.0" type="line"/>
      <point x="385.63500000000005" y="539.9200000000001" type="line"/>
      <point x="265.71500000000003" y="542.0799999999999" type="line"/>
      <point x="197.3425" y="112.895" type="line"/>
      <point x="127.825" y="542.0799999999999" type="line"/>
      <point x="7.08" y="539.9200000000001" type="line"/>
    </contour>
  </outline>
</glyph>
<glyph name="w" format="2">
  <advance width="575.285"/>
  <unicode hex="0077"/>
  <anchor x="287.545" y="541.0" name="top"/>
  <anchor x="287.545" y="0.0" name="bottom"/>
  <outline>
    <contour>
      <point x="94.32" y="0.0" type="line"/>
      <point x="233.665" y="0.0" type="line"/>
      <point x="287.93" y="395.605" type="line"/>
      <point x="341.765" y="0.0" type="line"/>
      <point x="479.735" y="0.0" type="line"/>
      <point x="567.34" y="539.51" type="line"/>
      <point x="454.96999999999997" y="541.73" type="line"/>
      <point x="404.335" y="113.375" type="line"/>
      <point x="347.705" y="541.0" type="line"/>
      <point x="227.32999999999998" y="541.0" type="line"/>
      <point x="171.1" y="113.29" type="line"/>
      <point x="121.36000000000001" y="541.73" type="line"/>
      <point x="7.695" y="539.51" type="line"/>
    </contour>
  </outline>
</glyph>
<glyph name="x" format="2">
  <advance width="404.705"/>
  <unicode hex="0078"/>
  <outline>
    <contour>
      <point x="5.205" y="-2.0149999999999997" type="line"/>
      <point x="130.03250000000003" y="-4.2700000000000005" type="line"/>
      <point x="202.57500000000002" y="209.72" type="line"/>
      <point x="276.5575" y="-4.2700000000000005" type="line"/>
      <point x="400.70250000000004" y="-2.0149999999999997" type="line"/>
      <point x="283.77750000000003" y="274.84" type="line"/>
      <point x="392.2475" y="539.8850000000001" type="line"/>
      <point x="271.76500000000004" y="542.3649999999999" type="line"/>
      <point x="204.565" y="333.5325" type="line"/>
      <point x="137.015" y="542.6875" type="line"/>
      <point x="14.55" y="539.5374999999999" type="line"/>
      <point x="122.5575" y="276.07" type="line"/>
    </contour>
  </outline>
</glyph>
<glyph name="y" format="2">
  <advance width="395.3425000000001"/>
  <unicode hex="0079"/>
  <anchor x="194.96750000000003" y="541.0" name="top"/>
  <anchor x="345.53249999999997" y="0.0" name="bottom"/>
  <outline>
    <contour>
      <point x="109.13999999999999" y="-209.01" type="line"/>
      <point x="229.08499999999998" y="-211.88999999999996" type="line"/>
      <point x="387.8575" y="540.19" type="line"/>
      <point x="266.6925" y="542.26" type="line"/>
      <point x="200.56" y="103.98000000000002" type="line"/>
      <point x="130.895" y="542.2599999999999" type="line"/>
      <point x="7.485" y="540.1" type="line"/>
      <point x="134.1625" y="0.0" type="line"/>
      <point x="155.74" y="0.0" type="line"/>
    </contour>
  </outline>
</glyph>
<glyph name="z" format="2">
  <advance width="355.5725"/>
  <unicode hex="007A"/>
  <anchor x="179.79999999999995" y="541.0" name="top"/>
  <outline>
    <contour>
      <point x="17.792499999999997" y="0.0" type="line"/>
      <point x="340.595" y="0.0" type="line"/>
      <point x="340.595" y="99.77999999999999" type="line"/>
      <point x="142.685" y="99.77999999999999" type="line"/>
      <point x="329.555" y="452.2125" type="line"/>
      <point x="329.555" y="541.0" type="line"/>
      <point x="25.5025" y="541.0" type="line"/>
      <point x="25.5025" y="442.29999999999995" type="line"/>
      <point x="206.0" y="442.29999999999995" type="line"/>
      <point x="17.792499999999997" y="90.295" type="line"/>
    </contour>
  </outline>
</glyph>
<glyph name="braceleft" format="2">
  <advance width="245.345"/>
  <unicode hex="007B"/>
  <outline>
    <contour>
      <point x="53.279999999999994" y="-51.315" type="curve" smooth="yes"/>
      <point x="53.279999999999994" y="-155.53000000000003"/>
      <point x="101.47000000000001" y="-210.495"/>
      <point x="169.22500000000002" y="-210.495" type="curve" smooth="yes"/>
      <point x="225.03" y="-210.495" type="line"/>
      <point x="225.03" y="-119.54499999999999" type="line"/>
      <point x="195.625" y="-119.54499999999999" type="line" smooth="yes"/>
      <point x="160.82500000000002" y="-119.54499999999999"/>
      <point x="147.08999999999997" y="-84.48"/>
      <point x="147.08999999999997" y="-38.115" type="curve" smooth="yes"/>
      <point x="147.08999999999997" y="23.965"/>
      <point x="175.195" y="77.37"/>
      <point x="175.195" y="146.38" type="curve" smooth="yes"/>
      <point x="175.195" y="188.03500000000003"/>
      <point x="163.085" y="236.785"/>
      <point x="122.93499999999999" y="265.0" type="curve"/>
      <point x="163.03999999999996" y="294.045"/>
      <point x="175.195" y="341.38"/>
      <point x="175.195" y="383.035" type="curve" smooth="yes"/>
      <point x="175.195" y="449.39"/>
      <point x="147.08999999999997" y="502.57"/>
      <point x="147.08999999999997" y="567.53" type="curve" smooth="yes"/>
      <point x="147.08999999999997" y="613.8950000000001"/>
      <point x="160.82500000000002" y="649.0500000000001"/>
      <point x="195.625" y="649.0500000000001" type="curve" smooth="yes"/>
      <point x="225.03" y="649.0500000000001" type="line"/>
      <point x="225.03" y="740.0" type="line"/>
      <point x="169.22500000000002" y="740.0" type="line" smooth="yes"/>
      <point x="101.47000000000001" y="740.0"/>
      <point x="53.279999999999994" y="684.945"/>
      <point x="53.279999999999994" y="580.73" type="curve" smooth="yes"/>
      <point x="53.279999999999994" y="489.04999999999995"/>
      <point x="86.05999999999999" y="437.895"/>
      <point x="86.05999999999999" y="377.535" type="curve" smooth="yes"/>
      <point x="86.05999999999999" y="342.925"/>
      <point x="78.245" y="312.4"/>
      <point x="53.93" y="312.4" type="curve" smooth="yes"/>
      <point x="35.57" y="312.4" type="line"/>
      <point x="35.57" y="217.10500000000002" type="line"/>
      <point x="53.93" y="217.10500000000002" type="line" smooth="yes"/>
      <point x="78.245" y="217.10500000000002"/>
      <point x="86.05999999999999" y="186.89499999999998"/>
      <point x="86.05999999999999" y="151.88" type="curve" smooth="yes"/>
      <point x="86.05999999999999" y="90.39500000000001"/>
      <point x="53.279999999999994" y="37.440000000000005"/>
    </contour>
  </outline>
</glyph>
<glyph name="braceright" format="2">
  <advance width="245.345"/>
  <unicode hex="007D"/>
  <outline>
    <contour>
      <point x="20.314999999999998" y="-119.54499999999999" type="line"/>
      <point x="20.314999999999998" y="-210.495" type="line"/>
      <point x="76.525" y="-210.495" type="line" smooth="yes"/>
      <point x="144.28" y="-210.495"/>
      <point x="192.47" y="-155.53000000000003"/>
      <point x="192.47" y="-51.315" type="curve" smooth="yes"/>
      <point x="192.47" y="37.440000000000005"/>
      <point x="159.69" y="90.39500000000001"/>
      <point x="159.69" y="151.88" type="curve" smooth="yes"/>
      <point x="159.69" y="186.89499999999998"/>
      <point x="167.505" y="217.10500000000002"/>
      <point x="191.82" y="217.10500000000002" type="curve" smooth="yes"/>
      <point x="209.775" y="217.10500000000002" type="line"/>
      <point x="209.775" y="312.4" type="line"/>
      <point x="191.82" y="312.4" type="line" smooth="yes"/>
      <point x="167.1" y="312.4"/>
      <point x="159.69" y="342.925"/>
      <point x="159.69" y="377.535" type="curve" smooth="yes"/>
      <point x="159.69" y="437.895"/>
      <point x="192.47" y="489.04999999999995"/>
      <point x="192.47" y="580.73" type="curve" smooth="yes"/>
      <point x="192.47" y="684.945"/>
      <point x="144.28" y="740.0"/>
      <point x="76.525" y="740.0" type="curve" smooth="yes"/>
      <point x="20.314999999999998" y="740.0" type="line"/>
      <point x="20.314999999999998" y="649.0500000000001" type="line"/>
      <point x="41.709999999999994" y="649.0500000000001" type="line" smooth="yes"/>
      <point x="76.105" y="649.0500000000001"/>
      <point x="90.245" y="613.8950000000001"/>
      <point x="90.245" y="567.53" type="curve" smooth="yes"/>
      <point x="90.245" y="502.57"/>
      <point x="62.14" y="449.39"/>
      <point x="62.14" y="383.035" type="curve" smooth="yes"/>
      <point x="62.14" y="341.38"/>
      <point x="73.89" y="294.045"/>
      <point x="114.39999999999999" y="265.0" type="curve"/>
      <point x="73.84500000000001" y="236.785"/>
      <point x="62.14" y="188.03500000000003"/>
      <point x="62.14" y="146.38" type="curve" smooth="yes"/>
      <point x="62.14" y="77.37"/>
      <point x="90.245" y="23.965"/>
      <point x="90.245" y="-38.115" type="curve" smooth="yes"/>
      <point x="90.245" y="-84.48"/>
      <point x="76.105" y="-119.54499999999999"/>
      <point x="41.709999999999994" y="-119.54499999999999" type="curve" smooth="yes"/>
    </contour>
  </outline>
</glyph>
<glyph name="asciitilde" format="2">
  <advance width="425.96"/>
  <unicode hex="007E"/>
  <outline>
    <contour>
      <point x="371.675" y="243.04500000000002" type="curve"/>
      <point x="371.675" y="342.8" type="line"/>
      <point x="348.98999999999995" y="317.895"/>
      <point x="327.12" y="307.55"/>
      <point x="300.11499999999995" y="307.55" type="curve" smooth="yes"/>
      <point x="230.51999999999998" y="307.55"/>
      <point x="199.93999999999997" y="397.445"/>
      <point x="130.27" y="397.445" type="curve" smooth="yes"/>
      <point x="93.17" y="397.445"/>
      <point x="65.13499999999999" y="378.51"/>
      <point x="54.745000000000005" y="364.49" type="curve"/>
      <point x="54.745000000000005" y="264.69" type="line"/>
      <point x="67.295" y="280.76"/>
      <point x="94.645" y="299.675"/>
      <point x="129.35" y="299.675" type="curve" smooth="yes"/>
      <point x="194.81000000000003" y="299.675"/>
      <point x="226.455" y="209.72500000000002"/>
      <point x="299.855" y="209.72500000000002" type="curve" smooth="yes"/>
      <point x="327.9" y="209.72500000000002"/>
      <point x="350.165" y="219.62"/>
    </contour>
  </outline>
</glyph>
<glyph name="exclamdown" format="2">
  <advance width="181.74"/>
  <unicode hex="00A1"/>
  <outline>
    <contour>
      <point x="140.57999999999998" y="279.695" type="line"/>
      <point x="42.535" y="279.695" type="line"/>
      <point x="33.515" y="-199.055" type="line"/>
      <point x="148.115" y="-199.055" type="line"/>
    </contour>
    <contour>
      <point x="152.30500000000004" y="474.665" type="curve" smooth="yes"/>
      <point x="152.30500000000004" y="524.6"/>
      <point x="135.925" y="546.5"/>
      <point x="90.87" y="546.5" type="curve" smooth="yes"/>
      <point x="46.26499999999999" y="546.5"/>
      <point x="29.435" y="524.6"/>
      <point x="29.435" y="474.665" type="curve" smooth="yes"/>
      <point x="29.435" y="424.18"/>
      <point x="45.815" y="402.28"/>
      <point x="90.87" y="402.28" type="curve" smooth="yes"/>
      <point x="135.925" y="402.28"/>
      <point x="152.30500000000004" y="424.18"/>
    </contour>
  </outline>
</glyph>
<glyph name="cent" format="2">
  <advance width="413.42999999999995"/>
  <unicode hex="00A2"/>
  <outline>
    <contour>
      <point x="235.78500000000003" y="-10.495000000000001" type="curve" smooth="yes"/>
      <point x="276.235" y="-10.495000000000001"/>
      <point x="319.145" y="-3.3999999999999995"/>
      <point x="351.38500000000005" y="9.250000000000002" type="curve"/>
      <point x="329.67500000000007" y="114.00000000000001" type="line"/>
      <point x="304.75" y="107.135"/>
      <point x="283.26000000000005" y="104.195"/>
      <point x="262.70500000000004" y="104.195" type="curve" smooth="yes"/>
      <point x="210.015" y="104.195"/>
      <point x="183.815" y="154.8"/>
      <point x="183.815" y="263.765" type="curve" smooth="yes"/>
      <point x="183.815" y="384.67"/>
      <point x="210.74" y="436.03499999999997"/>
      <point x="265.275" y="436.03499999999997" type="curve" smooth="yes"/>
      <point x="287.90500000000003" y="436.03499999999997"/>
      <point x="306.40000000000003" y="432.4"/>
      <point x="325.625" y="427.505" type="curve"/>
      <point x="344.77" y="536.435" type="line"/>
      <point x="320.035" y="543.755"/>
      <point x="280.56" y="551.99"/>
      <point x="238.49" y="551.99" type="curve" smooth="yes"/>
      <point x="108.97" y="551.99"/>
      <point x="66.795" y="433.825"/>
      <point x="66.795" y="260.46500000000003" type="curve" smooth="yes"/>
      <point x="66.795" y="78.39"/>
      <point x="120.235" y="-10.495000000000001"/>
    </contour>
    <contour>
      <point x="176.66000000000003" y="-105.49499999999999" type="line"/>
      <point x="276.41" y="-105.49499999999999" type="line"/>
      <point x="276.41" y="5.165000000000001" type="line"/>
      <point x="176.66000000000003" y="11.120000000000001" type="line"/>
    </contour>
    <contour>
      <point x="176.66000000000003" y="528.165" type="line"/>
      <point x="276.41" y="537.4200000000001" type="line"/>
      <point x="276.41" y="645.505" type="line"/>
      <point x="176.66000000000003" y="645.505" type="line"/>
    </contour>
  </outline>
</glyph>
<glyph name="sterling" format="2">
  <advance width="413.69999999999993"/>
  <unicode hex="00A3"/>
  <outline>
    <contour>
      <point x="57.45000000000001" y="0.0" type="line"/>
      <point x="367.30500000000006" y="0.0" type="line"/>
      <point x="367.30500000000006" y="99.42500000000003" type="line"/>
      <point x="180.15000000000003" y="99.42500000000003" type="line"/>
      <point x="216.13000000000005" y="148.24"/>
      <point x="246.79500000000004" y="189.88"/>
      <point x="246.79500000000004" y="260.4650000000001" type="curve" smooth="yes"/>
      <point x="246.79500000000004" y="343.78000000000003"/>
      <point x="196.72500000000002" y="406.8299999999999"/>
      <point x="196.72500000000002" y="487.95000000000005" type="curve" smooth="yes"/>
      <point x="196.72500000000002" y="570.68"/>
      <point x="233.35000000000005" y="600.625"/>
      <point x="278.925" y="600.625" type="curve" smooth="yes"/>
      <point x="302.81" y="600.625"/>
      <point x="324.745" y="596.41"/>
      <point x="343.89" y="589.7249999999999" type="curve"/>
      <point x="362.195" y="684.51" type="line"/>
      <point x="332.80499999999995" y="701.4249999999998"/>
      <point x="292.25999999999993" y="710.0"/>
      <point x="255.775" y="710.0" type="curve" smooth="yes"/>
      <point x="140.57000000000002" y="710.0"/>
      <point x="79.555" y="633.9399999999999"/>
      <point x="79.555" y="523.09" type="curve" smooth="yes"/>
      <point x="79.555" y="400.24000000000007"/>
      <point x="140.2" y="355.59000000000003"/>
      <point x="140.2" y="248.995" type="curve" smooth="yes"/>
      <point x="140.2" y="188.75999999999996"/>
      <point x="113.845" y="140.71500000000003"/>
      <point x="57.45000000000001" y="76.87500000000001" type="curve"/>
    </contour>
    <contour>
      <point x="47.055" y="321.40999999999997" type="line"/>
      <point x="335.42" y="321.40999999999997" type="line"/>
      <point x="335.42" y="394.83500000000004" type="line"/>
      <point x="47.055" y="394.83500000000004" type="line"/>
    </contour>
  </outline>
</glyph>
<glyph name="currency" format="2">
  <advance width="430.55"/>
  <unicode hex="00A4"/>
  <outline>
    <contour>
      <point x="27.565" y="410.96" type="line"/>
      <point x="85.835" y="351.69" type="line"/>
      <point x="75.91" y="334.795"/>
      <point x="69.795" y="314.695"/>
      <point x="69.795" y="292.685" type="curve" smooth="yes"/>
      <point x="69.795" y="270.125"/>
      <point x="75.91" y="248.98000000000002"/>
      <point x="86.835" y="231.58999999999997" type="curve"/>
      <point x="27.565" y="172.32" type="line"/>
      <point x="96.18" y="103.705" type="line"/>
      <point x="160.01500000000001" y="167.48499999999999" type="line"/>
      <point x="175.535" y="157.385"/>
      <point x="195.25" y="152.435"/>
      <point x="216.37" y="152.435" type="curve" smooth="yes"/>
      <point x="236.60999999999999" y="152.435"/>
      <point x="255.345" y="157.44"/>
      <point x="270.48" y="167.04500000000002" type="curve"/>
      <point x="334.37" y="103.705" type="line"/>
      <point x="402.985" y="172.32" type="line"/>
      <point x="345.42" y="229.39" type="line"/>
      <point x="356.72999999999996" y="247.715"/>
      <point x="363.34" y="269.245"/>
      <point x="363.34" y="292.685" type="curve" smooth="yes"/>
      <point x="363.34" y="315.08000000000004"/>
      <point x="356.78499999999997" y="336.06"/>
      <point x="345.915" y="353.89" type="curve"/>
      <point x="402.985" y="410.96" type="line"/>
      <point x="334.37" y="479.575" type="line"/>
      <point x="272.46" y="417.665" type="line"/>
      <point x="256.83" y="427.32500000000005"/>
      <point x="237.555" y="433.27500000000003"/>
      <point x="216.37" y="433.27500000000003" type="curve" smooth="yes"/>
      <point x="193.81" y="433.27500000000003"/>
      <point x="174.095" y="426.83"/>
      <point x="157.585" y="417.225" type="curve"/>
      <point x="96.18" y="479.575" type="line"/>
    </contour>
    <contour>
      <point x="216.315" y="225.51000000000002" type="curve" smooth="yes"/>
      <point x="177.91" y="225.51000000000002"/>
      <point x="149.635" y="253.73000000000002"/>
      <point x="149.635" y="292.19" type="curve" smooth="yes"/>
      <point x="149.635" y="329.94500000000005"/>
      <point x="177.855" y="359.705"/>
      <point x="216.315" y="359.705" type="curve" smooth="yes"/>
      <point x="255.225" y="359.705"/>
      <point x="283.5" y="329.94500000000005"/>
      <point x="283.5" y="292.19" type="curve" smooth="yes"/>
      <point x="283.5" y="253.73000000000002"/>
      <point x="255.17" y="225.51000000000002"/>
    </contour>
  </outline>
</glyph>
<glyph name="yen" format="2">
  <advance width="415.25"/>
  <unicode hex="00A5"/>
  <outline>
    <contour>
      <point x="50.05" y="313.34999999999997" type="line"/>
      <point x="152.975" y="313.34999999999997" type="line"/>
      <point x="152.975" y="257.275" type="line"/>
      <point x="50.05" y="257.275" type="line"/>
      <point x="50.05" y="187.87500000000003" type="line"/>
      <point x="152.975" y="187.87500000000003" type="line"/>
      <point x="152.975" y="0.0" type="line"/>
      <point x="265.65" y="0.0" type="line"/>
      <point x="265.65" y="187.87500000000003" type="line"/>
      <point x="369.02500000000003" y="187.87500000000003" type="line"/>
      <point x="369.02500000000003" y="257.275" type="line"/>
      <point x="265.65" y="257.275" type="line"/>
      <point x="265.65" y="313.34999999999997" type="line"/>
      <point x="369.02500000000003" y="313.34999999999997" type="line"/>
      <point x="369.02500000000003" y="382.075" type="line"/>
      <point x="265.65" y="382.075" type="line"/>
      <point x="395.70000000000005" y="698.15" type="line"/>
      <point x="272.25000000000006" y="702.075" type="line"/>
      <point x="209.25000000000003" y="460.87500000000006" type="line"/>
      <point x="143.22500000000002" y="702.075" type="line"/>
      <point x="19.775000000000002" y="698.15" type="line"/>
      <point x="152.975" y="382.075" type="line"/>
      <point x="50.05" y="382.075" type="line"/>
    </contour>
  </outline>
</glyph>
<glyph name="brokenbar" format="2">
  <advance width="160.875"/>
  <unicode hex="00A6"/>
  <outline>
    <contour>
      <point x="128.14" y="391.0" type="line"/>
      <point x="128.14" y="790.495" type="line"/>
      <point x="32.73499999999999" y="790.495" type="line"/>
      <point x="32.73499999999999" y="391.0" type="line"/>
    </contour>
    <contour>
      <point x="32.73499999999999" y="190.495" type="line"/>
      <point x="32.73499999999999" y="-210.0" type="line"/>
      <point x="128.14" y="-210.0" type="line"/>
      <point x="128.14" y="190.495" type="line"/>
    </contour>
  </outline>
</glyph>
<glyph name="section" format="2">
  <advance width="424.9925"/>
  <unicode hex="00A7"/>
  <outline>
    <contour>
      <point x="169.62" y="-220.6525" type="curve" smooth="yes"/>
      <point x="305.63" y="-220.6525"/>
      <point x="394.61" y="-101.40249999999999"/>
      <point x="394.61" y="60.4625" type="curve" smooth="yes"/>
      <point x="394.61" y="136.53750000000002"/>
      <point x="375.715" y="225.65"/>
      <point x="320.58250000000004" y="369.38250000000005" type="curve" smooth="yes"/>
      <point x="273.045" y="495.32500000000005"/>
      <point x="259.11999999999995" y="531.3400000000001"/>
      <point x="259.11999999999995" y="566.605" type="curve" smooth="yes"/>
      <point x="259.11999999999995" y="606.4975000000001"/>
      <point x="279.15999999999997" y="630.3475000000001"/>
      <point x="313.6525" y="630.3475000000001" type="curve" smooth="yes"/>
      <point x="326.90999999999997" y="630.3475000000001"/>
      <point x="339.0875" y="628.1225000000001"/>
      <point x="354.30749999999995" y="620.6825" type="curve"/>
      <point x="377.86" y="727.595" type="line"/>
      <point x="350.6225" y="741.6800000000001"/>
      <point x="311.9375" y="749.6625"/>
      <point x="272.90500000000003" y="749.6625" type="curve" smooth="yes"/>
      <point x="125.7875" y="749.6625"/>
      <point x="32.38" y="647.455"/>
      <point x="35.485" y="481.31250000000006" type="curve" smooth="yes"/>
      <point x="36.9925" y="400.80250000000007"/>
      <point x="49.535" y="323.0975"/>
      <point x="112.695" y="165.2125" type="curve" smooth="yes"/>
      <point x="157.39249999999998" y="47.457499999999996"/>
      <point x="176.17249999999999" y="2.3925000000000054"/>
      <point x="176.17249999999999" y="-38.92" type="curve" smooth="yes"/>
      <point x="176.1725" y="-80.37"/>
      <point x="153.88249999999996" y="-101.18249999999999"/>
      <point x="117.77" y="-101.18249999999999" type="curve" smooth="yes"/>
      <point x="96.77000000000001" y="-101.18249999999999"/>
      <point x="76.58250000000001" y="-94.35"/>
      <point x="54.4425" y="-75.63" type="curve"/>
      <point x="30.8725" y="-181.39" type="line"/>
      <point x="67.7775" y="-207.7175"/>
      <point x="114.58250000000001" y="-220.6525"/>
    </contour>
    <contour>
      <point x="164.21" y="-149.19500000000002" type="curve" smooth="yes"/>
      <point x="145.78999999999996" y="-149.19500000000002"/>
      <point x="129.7475" y="-145.4425"/>
      <point x="113.63749999999999" y="-137.5525" type="curve"/>
      <point x="146.38249999999996" y="-158.71" type="line"/>
      <point x="212.185" y="-156.3775"/>
      <point x="254.55999999999995" y="-107.7625"/>
      <point x="254.55999999999995" y="-36.712499999999984" type="curve" smooth="yes"/>
      <point x="254.55999999999995" y="14.262500000000006"/>
      <point x="239.7975" y="73.77499999999999"/>
      <point x="190.705" y="202.175" type="curve" smooth="yes"/>
      <point x="135.28" y="349.15250000000003"/>
      <point x="117.7525" y="410.78999999999996"/>
      <point x="117.7525" y="491.01250000000005" type="curve" smooth="yes"/>
      <point x="117.7525" y="594.33"/>
      <point x="166.66750000000002" y="662.06"/>
      <point x="232.03249999999997" y="662.06" type="curve" smooth="yes"/>
      <point x="246.18999999999997" y="662.06"/>
      <point x="255.485" y="659.4125"/>
      <point x="267.6625" y="651.785" type="curve"/>
      <point x="249.27750000000003" y="677.3225" type="line"/>
      <point x="208.835" y="667.12"/>
      <point x="178.285" y="624.8625"/>
      <point x="178.05999999999997" y="572.4525" type="curve" smooth="yes"/>
      <point x="178.05999999999997" y="522.8599999999999"/>
      <point x="190.1375" y="472.1775"/>
      <point x="240.5025" y="342.7075" type="curve" smooth="yes"/>
      <point x="301.01250000000005" y="182.18"/>
      <point x="315.6" y="117.245"/>
      <point x="315.6" y="50.4775" type="curve" smooth="yes"/>
      <point x="315.6" y="-65.32750000000001"/>
      <point x="259.21999999999997" y="-149.195"/>
    </contour>
  </outline>
</glyph>
<glyph name="copyright" format="2">
  <advance width="574.91"/>
  <unicode hex="00A9"/>
  <outline>
    <contour>
      <point x="287.5" y="30.940000000000005" type="curve" smooth="yes"/>
      <point x="148.57499999999996" y="30.940000000000005"/>
      <point x="77.395" y="135.72000000000003"/>
      <point x="77.395" y="350.385" type="curve" smooth="yes"/>
      <point x="77.395" y="565.565"/>
      <point x="148.67499999999998" y="669.62"/>
      <point x="287.5" y="669.62" type="curve" smooth="yes"/>
      <point x="427.72" y="669.62"/>
      <point x="497.0199999999999" y="565.565"/>
      <point x="497.0199999999999" y="350.385" type="curve" smooth="yes"/>
      <point x="497.0199999999999" y="135.72000000000003"/>
      <point x="427.82" y="30.940000000000005"/>
    </contour>
    <contour>
      <point x="287.5" y="710.0" type="curve" smooth="yes"/>
      <point x="122.52" y="710.0"/>
      <point x="34.8" y="586.36"/>
      <point x="34.8" y="350.385" type="curve" smooth="yes"/>
      <point x="34.8" y="115.33"/>
      <point x="122.39999999999999" y="-10.0"/>
      <point x="287.5" y="-10.0" type="curve" smooth="yes"/>
      <point x="452.51000000000005" y="-10.0"/>
      <point x="540.11" y="115.33"/>
      <point x="540.11" y="350.385" type="curve" smooth="yes"/>
      <point x="540.11" y="586.36"/>
      <point x="452.48" y="710.0"/>
    </contour>
    <contour>
      <point x="170.37" y="346.22999999999996" type="curve" smooth="yes"/>
      <point x="170.37" y="207.275"/>
      <point x="215.03" y="142.12"/>
      <point x="295.81500000000005" y="142.12" type="curve" smooth="yes"/>
      <point x="322.08000000000004" y="142.12"/>
      <point x="350.08500000000004" y="145.325"/>
      <point x="375.875" y="156.19500000000002" type="curve"/>
      <point x="363.21999999999997" y="228.89" type="line"/>
      <point x="343.38" y="223.03000000000003"/>
      <point x="323.805" y="220.04500000000002"/>
      <point x="305.84000000000003" y="220.04500000000002" type="curve" smooth="yes"/>
      <point x="266.97999999999996" y="220.04500000000002"/>
      <point x="255.06500000000003" y="258.14000000000004"/>
      <point x="255.06500000000003" y="343.175" type="curve" smooth="yes"/>
      <point x="255.06500000000003" y="445.65999999999997"/>
      <point x="271.38" y="479.76000000000005"/>
      <point x="310.325" y="479.76000000000005" type="curve" smooth="yes"/>
      <point x="325.04" y="479.76000000000005"/>
      <point x="347.43" y="475.78000000000003"/>
      <point x="362.71999999999997" y="471.405" type="curve"/>
      <point x="377.08000000000004" y="542.53" type="line"/>
      <point x="355.395" y="553.39"/>
      <point x="324.425" y="557.7950000000001"/>
      <point x="296.98499999999996" y="557.7950000000001" type="curve" smooth="yes"/>
      <point x="220.64" y="557.7950000000001"/>
      <point x="170.37" y="504.54"/>
    </contour>
  </outline>
</glyph>
<glyph name="ordfeminine" format="2">
  <advance width="280.57000000000005"/>
  <unicode hex="00AA"/>
  <outline>
    <contour>
      <point x="28.345000000000002" y="261.735" type="line"/>
      <point x="256.01" y="261.735" type="line"/>
      <point x="256.01" y="320.785" type="line"/>
      <point x="28.345000000000002" y="320.785" type="line"/>
    </contour>
    <component base="a.superior" xOffset="9.935000000000002"/>
  </outline>
</glyph>
<glyph name="logicalnot" format="2">
  <advance width="425.96"/>
  <unicode hex="00AC"/>
  <outline>
    <contour>
      <point x="44.34" y="330.32" type="line"/>
      <point x="282.54999999999995" y="330.32" type="line"/>
      <point x="282.54999999999995" y="176.61499999999998" type="line"/>
      <point x="382.025" y="176.61499999999998" type="line"/>
      <point x="382.025" y="429.79499999999996" type="line"/>
      <point x="44.34" y="429.79499999999996" type="line"/>
    </contour>
  </outline>
</glyph>
<glyph name="registered" format="2">
  <advance width="549.7475"/>
  <unicode hex="00AE"/>
  <outline>
    <contour>
      <point x="274.185" y="207.8625" type="curve" smooth="yes"/>
      <point x="431.925" y="207.8625"/>
      <point x="514.9475" y="326.65500000000003"/>
      <point x="514.9475" y="550.4575" type="curve" smooth="yes"/>
      <point x="514.9475" y="774.7125"/>
      <point x="431.9699999999999" y="892.2275"/>
      <point x="274.185" y="892.2275" type="curve" smooth="yes"/>
      <point x="117.58749999999999" y="892.2275"/>
      <point x="34.8" y="774.7125"/>
      <point x="34.8" y="550.4575" type="curve" smooth="yes"/>
      <point x="34.8" y="327.2025"/>
      <point x="117.40499999999999" y="207.8625"/>
    </contour>
    <contour>
      <point x="274.185" y="246.57500000000002" type="curve" smooth="yes"/>
      <point x="142.13000000000002" y="246.57500000000002"/>
      <point x="75.47250000000001" y="346.5475"/>
      <point x="75.47250000000001" y="550.4575" type="curve" smooth="yes"/>
      <point x="75.47250000000001" y="754.9100000000001"/>
      <point x="142.08500000000004" y="853.975"/>
      <point x="274.185" y="853.975" type="curve" smooth="yes"/>
      <point x="408.85" y="853.975"/>
      <point x="474.12999999999994" y="754.955"/>
      <point x="474.12999999999994" y="550.4575" type="curve" smooth="yes"/>
      <point x="474.12999999999994" y="346.365"/>
      <point x="408.71250000000003" y="246.57500000000002"/>
    </contour>
    <contour>
      <point x="381.35249999999996" y="366.36250000000007" type="curve" smooth="yes"/>
      <point x="385.82000000000005" y="366.36250000000007"/>
      <point x="391.355" y="366.36250000000007"/>
      <point x="396.49500000000006" y="367.18" type="curve"/>
      <point x="395.28000000000003" y="444.915" type="line"/>
      <point x="393.4625" y="444.51"/>
      <point x="391.41" y="444.51"/>
      <point x="389.41" y="444.51" type="curve" smooth="yes"/>
      <point x="366.7075" y="444.6025"/>
      <point x="353.6825" y="472.4475"/>
      <point x="338.44750000000005" y="521.6275" type="curve"/>
      <point x="373.2950000000001" y="537.82"/>
      <point x="386.2025" y="581.3100000000001"/>
      <point x="386.2025" y="633.79" type="curve" smooth="yes"/>
      <point x="386.2025" y="713.075"/>
      <point x="349.34749999999997" y="747.9375"/>
      <point x="278.0175" y="747.9375" type="curve" smooth="yes"/>
      <point x="245.55249999999998" y="747.9375"/>
      <point x="214.535" y="745.57"/>
      <point x="179.02" y="742.0724999999999" type="curve"/>
      <point x="179.02" y="370.38" type="line"/>
      <point x="251.05249999999998" y="370.38" type="line"/>
      <point x="251.05249999999998" y="498.11" type="line"/>
      <point x="256.2825" y="497.70500000000004"/>
      <point x="261.42999999999995" y="497.21000000000004"/>
      <point x="266.03000000000003" y="497.21000000000004" type="curve" smooth="yes"/>
      <point x="269.10999999999996" y="497.21000000000004"/>
      <point x="271.54749999999996" y="497.21000000000004"/>
      <point x="274.49" y="497.615" type="curve"/>
      <point x="309.5425" y="376.88249999999994"/>
      <point x="340.555" y="366.50000000000006"/>
    </contour>
    <contour>
      <point x="271.64" y="548.83" type="curve" smooth="yes"/>
      <point x="265.2475" y="548.83"/>
      <point x="259.315" y="548.875"/>
      <point x="251.05249999999998" y="549.8299999999998" type="curve"/>
      <point x="251.05249999999998" y="679.2049999999999" type="line"/>
      <point x="262.58000000000004" y="681.25"/>
      <point x="269.615" y="681.6550000000001"/>
      <point x="277.135" y="681.6550000000001" type="curve" smooth="yes"/>
      <point x="308.23999999999995" y="681.6550000000001"/>
      <point x="311.925" y="659.6675"/>
      <point x="311.925" y="621.94" type="curve" smooth="yes"/>
      <point x="311.925" y="574.125"/>
      <point x="306.335" y="548.83"/>
    </contour>
  </outline>
</glyph>
<glyph name="degree" format="2">
  <advance width="286.25"/>
  <unicode hex="00B0"/>
  <outline>
    <contour>
      <point x="142.71999999999997" y="435.3" type="curve" smooth="yes"/>
      <point x="222.445" y="435.3"/>
      <point x="260.76000000000005" y="497.845"/>
      <point x="260.76000000000005" y="576.25" type="curve" smooth="yes"/>
      <point x="260.76000000000005" y="650.85"/>
      <point x="225.865" y="718.1"/>
      <point x="142.71999999999997" y="718.1" type="curve" smooth="yes"/>
      <point x="59.485" y="718.1"/>
      <point x="25.49" y="650.85"/>
      <point x="25.49" y="576.25" type="curve" smooth="yes"/>
      <point x="25.49" y="497.845"/>
      <point x="62.995000000000005" y="435.3"/>
    </contour>
    <contour>
      <point x="142.71999999999997" y="515.34" type="curve" smooth="yes"/>
      <point x="114.845" y="515.34"/>
      <point x="100.58" y="540.7850000000001"/>
      <point x="100.58" y="575.745" type="curve" smooth="yes"/>
      <point x="100.58" y="609.515"/>
      <point x="114.24000000000001" y="635.95"/>
      <point x="142.71999999999997" y="635.95" type="curve" smooth="yes"/>
      <point x="171.10999999999999" y="635.95"/>
      <point x="185.76" y="609.515"/>
      <point x="185.76" y="575.745" type="curve" smooth="yes"/>
      <point x="185.76" y="540.7850000000001"/>
      <point x="170.595" y="515.34"/>
    </contour>
  </outline>
</glyph>
<glyph name="plusminus" format="2">
  <advance width="438.92"/>
  <unicode hex="00B1"/>
  <outline>
    <contour>
      <point x="42.72" y="32.345" type="line"/>
      <point x="396.2" y="32.345" type="line"/>
      <point x="396.2" y="131.82" type="line"/>
      <point x="270.27" y="131.82" type="line"/>
      <point x="270.27" y="270.39" type="line"/>
      <point x="396.2" y="270.39" type="line"/>
      <point x="396.2" y="369.86499999999995" type="line"/>
      <point x="270.27" y="369.86499999999995" type="line"/>
      <point x="270.27" y="504.3" type="line"/>
      <point x="168.595" y="504.3" type="line"/>
      <point x="168.595" y="369.86499999999995" type="line"/>
      <point x="42.72" y="369.86499999999995" type="line"/>
      <point x="42.72" y="270.39" type="line"/>
      <point x="168.595" y="270.39" type="line"/>
      <point x="168.595" y="131.82" type="line"/>
      <point x="42.72" y="131.82" type="line"/>
    </contour>
  </outline>
</glyph>
<glyph name="uni00B2" format="2">
  <advance width="283.445"/>
  <unicode hex="00B2"/>
  <outline>
    <contour>
      <point x="42.63" y="370.0" type="line"/>
      <point x="248.16" y="370.0" type="line"/>
      <point x="248.16" y="429.12" type="line"/>
      <point x="131.19" y="429.12" type="line"/>
      <point x="208.105" y="540.945"/>
      <point x="231.335" y="596.245"/>
      <point x="231.335" y="656.215" type="curve" smooth="yes"/>
      <point x="231.335" y="733.0350000000001"/>
      <point x="193.95" y="775.07"/>
      <point x="129.82500000000002" y="775.07" type="curve" smooth="yes"/>
      <point x="94.275" y="775.07"/>
      <point x="61.955" y="764.76"/>
      <point x="32.18" y="741.0250000000001" type="curve"/>
      <point x="58.184999999999995" y="676.97" type="line"/>
      <point x="78.345" y="693.225"/>
      <point x="94.27" y="697.5000000000001"/>
      <point x="113.435" y="697.5000000000001" type="curve" smooth="yes"/>
      <point x="139.04000000000002" y="697.5000000000001"/>
      <point x="155.385" y="673.1750000000001"/>
      <point x="155.385" y="638.08" type="curve" smooth="yes"/>
      <point x="155.385" y="593.34"/>
      <point x="115.565" y="521.0649999999999"/>
      <point x="41.28" y="423.435" type="curve"/>
    </contour>
  </outline>
</glyph>
<glyph name="uni00B3" format="2">
  <advance width="288.31"/>
  <unicode hex="00B3"/>
  <outline>
    <contour>
      <point x="30.875" y="390.64" type="line"/>
      <point x="63.745" y="370.78000000000003"/>
      <point x="92.035" y="363.135"/>
      <point x="130.82500000000002" y="363.135" type="curve" smooth="yes"/>
      <point x="206.355" y="363.135"/>
      <point x="252.735" y="408.005"/>
      <point x="252.735" y="485.175" type="curve" smooth="yes"/>
      <point x="252.735" y="532.075"/>
      <point x="233.045" y="566.94"/>
      <point x="195.295" y="582.0799999999999" type="curve"/>
      <point x="225.65" y="599.035"/>
      <point x="243.47" y="633.6600000000001"/>
      <point x="243.47" y="673.245" type="curve" smooth="yes"/>
      <point x="243.47" y="735.8599999999999"/>
      <point x="202.81" y="775.3399999999999"/>
      <point x="132.98999999999998" y="775.3399999999999" type="curve" smooth="yes"/>
      <point x="93.245" y="775.3399999999999"/>
      <point x="59.129999999999995" y="765.7900000000001"/>
      <point x="35.004999999999995" y="748.065" type="curve"/>
      <point x="57.794999999999995" y="692.4200000000001" type="line"/>
      <point x="68.95499999999998" y="699.845"/>
      <point x="87.595" y="705.22"/>
      <point x="114.92" y="705.22" type="curve" smooth="yes"/>
      <point x="149.17000000000002" y="705.22"/>
      <point x="170.125" y="685.475"/>
      <point x="170.125" y="651.825" type="curve" smooth="yes"/>
      <point x="170.125" y="623.385"/>
      <point x="157.425" y="601.685"/>
      <point x="126.69" y="601.685" type="curve" smooth="yes"/>
      <point x="86.41499999999999" y="601.685" type="line"/>
      <point x="86.41499999999999" y="545.965" type="line"/>
      <point x="126.59" y="545.965" type="line" smooth="yes"/>
      <point x="165.42999999999998" y="545.965"/>
      <point x="177.48000000000002" y="525.09"/>
      <point x="177.48000000000002" y="491.77500000000003" type="curve" smooth="yes"/>
      <point x="177.48000000000002" y="452.38"/>
      <point x="156.635" y="429.26"/>
      <point x="120.355" y="429.26" type="curve" smooth="yes"/>
      <point x="92.165" y="429.26"/>
      <point x="75.49000000000001" y="434.335"/>
      <point x="56.37" y="446.875" type="curve"/>
    </contour>
  </outline>
</glyph>
<glyph name="uni00B5" format="2">
  <advance width="413.8"/>
  <unicode hex="00B5"/>
  <outline>
    <contour>
      <point x="35.775" y="-210.0" type="line"/>
      <point x="143.44500000000002" y="-210.0" type="line"/>
      <point x="143.44500000000002" y="8.444999999999999" type="line"/>
      <point x="153.37" y="-3.87"/>
      <point x="168.38" y="-9.01"/>
      <point x="187.045" y="-9.01" type="curve" smooth="yes"/>
      <point x="217.04000000000002" y="-9.01"/>
      <point x="247.355" y="5.36"/>
      <point x="270.325" y="24.225" type="curve"/>
      <point x="283.71500000000003" y="3.595"/>
      <point x="299.055" y="-10.0"/>
      <point x="337.65999999999997" y="-10.0" type="curve" smooth="yes"/>
      <point x="368.72999999999996" y="-10.0"/>
      <point x="392.56" y="-1.96"/>
      <point x="412.855" y="9.010000000000002" type="curve"/>
      <point x="402.985" y="99.665" type="line"/>
      <point x="396.46" y="96.70000000000002"/>
      <point x="388.875" y="95.205"/>
      <point x="382.215" y="95.205" type="curve" smooth="yes"/>
      <point x="370.625" y="95.205"/>
      <point x="364.15" y="102.28"/>
      <point x="364.15" y="125.35" type="curve" smooth="yes"/>
      <point x="364.15" y="541.0" type="line"/>
      <point x="252.025" y="541.0" type="line"/>
      <point x="252.025" y="112.69000000000001" type="line"/>
      <point x="233.97" y="100.42500000000001"/>
      <point x="212.22" y="92.735"/>
      <point x="193.18000000000004" y="92.735" type="curve" smooth="yes"/>
      <point x="165.275" y="92.735"/>
      <point x="148.395" y="109.19500000000001"/>
      <point x="148.395" y="144.175" type="curve" smooth="yes"/>
      <point x="148.395" y="541.0" type="line"/>
      <point x="35.775" y="541.0" type="line"/>
    </contour>
  </outline>
</glyph>
<glyph name="paragraph" format="2">
  <advance width="517.9050000000001"/>
  <unicode hex="00B6"/>
  <outline>
    <contour>
      <point x="389.085" y="-210.0" type="line"/>
      <point x="478.05499999999995" y="-210.0" type="line"/>
      <point x="478.05499999999995" y="740.0" type="line"/>
      <point x="389.085" y="740.0" type="line"/>
    </contour>
    <contour>
      <point x="212.585" y="293.39500000000004" type="line"/>
      <point x="160.69" y="305.06000000000006"/>
      <point x="126.81000000000002" y="372.16"/>
      <point x="126.81000000000002" y="472.34999999999997" type="curve" smooth="yes"/>
      <point x="126.81000000000002" y="567.985"/>
      <point x="162.875" y="638.185"/>
      <point x="239.645" y="640.3449999999999" type="curve"/>
      <point x="239.645" y="-210.0" type="line"/>
      <point x="328.61500000000007" y="-210.0" type="line"/>
      <point x="328.61500000000007" y="740.0" type="line"/>
      <point x="271.025" y="740.0" type="line" smooth="yes"/>
      <point x="87.24000000000001" y="740.0"/>
      <point x="26.895000000000003" y="619.1850000000001"/>
      <point x="26.895000000000003" y="476.695" type="curve" smooth="yes"/>
      <point x="26.895000000000003" y="341.76"/>
      <point x="80.745" y="242.74999999999997"/>
      <point x="200.375" y="217.735" type="curve"/>
    </contour>
  </outline>
</glyph>
<glyph name="periodcentered" format="2">
  <advance width="167.02499999999998"/>
  <unicode hex="00B7"/>
  <outline>
    <contour>
      <point x="21.875" y="309.205" type="curve" smooth="yes"/>
      <point x="21.875" y="259.135"/>
      <point x="39.24499999999999" y="237.235"/>
      <point x="83.85" y="237.235" type="curve" smooth="yes"/>
      <point x="128.68" y="237.235"/>
      <point x="145.15000000000003" y="259.135"/>
      <point x="145.15000000000003" y="309.205" type="curve" smooth="yes"/>
      <point x="145.15000000000003" y="359.6000000000001"/>
      <point x="128.68" y="381.5"/>
      <point x="83.85" y="381.5" type="curve" smooth="yes"/>
      <point x="38.34499999999999" y="381.5"/>
      <point x="21.875" y="359.6000000000001"/>
    </contour>
  </outline>
</glyph>
<glyph name="uni00B9" format="2">
  <advance width="261.84"/>
  <unicode hex="00B9"/>
  <outline>
    <contour>
      <point x="29.625000000000004" y="370.0" type="line"/>
      <point x="242.36" y="370.0" type="line"/>
      <point x="242.36" y="429.79999999999995" type="line"/>
      <point x="178.445" y="429.79999999999995" type="line"/>
      <point x="178.445" y="769.085" type="line"/>
      <point x="140.185" y="769.085" type="line"/>
      <point x="21.359999999999996" y="716.58" type="line"/>
      <point x="36.475" y="650.055" type="line"/>
      <point x="102.245" y="683.9449999999999" type="line"/>
      <point x="102.245" y="429.79999999999995" type="line"/>
      <point x="29.625000000000004" y="429.79999999999995" type="line"/>
    </contour>
  </outline>
</glyph>
<glyph name="ordmasculine" format="2">
  <advance width="289.06"/>
  <unicode hex="00BA"/>
  <outline>
    <contour>
      <point x="32.915" y="261.78" type="line"/>
      <point x="260.94" y="261.78" type="line"/>
      <point x="260.94" y="320.83" type="line"/>
      <point x="32.915" y="320.83" type="line"/>
    </contour>
    <component base="o.superior" xOffset="12.86"/>
  </outline>
</glyph>
<glyph name="questiondown" format="2">
  <advance width="346.305"/>
  <unicode hex="00BF"/>
  <outline>
    <contour>
      <point x="252.175" y="274.385" type="line"/>
      <point x="153.635" y="274.385" type="line"/>
      <point x="153.52499999999998" y="201.26999999999998" type="line"/>
      <point x="67.91" y="145.455"/>
      <point x="30.455" y="79.625"/>
      <point x="30.455" y="-23.249999999999996" type="curve" smooth="yes"/>
      <point x="30.455" y="-151.04999999999998"/>
      <point x="102.23500000000001" y="-214.005"/>
      <point x="206.965" y="-214.005" type="curve" smooth="yes"/>
      <point x="261.4" y="-214.005"/>
      <point x="315.84" y="-192.485"/>
      <point x="353.47999999999996" y="-160.23000000000002" type="curve"/>
      <point x="313.3" y="-61.25999999999999" type="line"/>
      <point x="279.15500000000003" y="-89.04499999999999"/>
      <point x="251.34" y="-97.38999999999999"/>
      <point x="224.12500000000003" y="-97.38999999999999" type="curve" smooth="yes"/>
      <point x="178.45" y="-97.38999999999999"/>
      <point x="147.10999999999999" y="-61.40999999999998"/>
      <point x="147.10999999999999" y="-4.534999999999995" type="curve" smooth="yes"/>
      <point x="147.10999999999999" y="51.89"/>
      <point x="166.9" y="97.515"/>
      <point x="254.54000000000002" y="151.03500000000003" type="curve"/>
    </contour>
    <contour>
      <point x="264.265" y="469.21999999999997" type="curve" smooth="yes"/>
      <point x="264.265" y="519.155"/>
      <point x="247.11999999999998" y="541.0550000000001"/>
      <point x="202.425" y="541.0550000000001" type="curve" smooth="yes"/>
      <point x="158.26999999999998" y="541.0550000000001"/>
      <point x="140.99" y="519.155"/>
      <point x="140.99" y="469.21999999999997" type="curve" smooth="yes"/>
      <point x="140.99" y="418.735"/>
      <point x="158.26999999999998" y="396.835"/>
      <point x="202.425" y="396.835" type="curve" smooth="yes"/>
      <point x="247.97500000000002" y="396.835"/>
      <point x="264.265" y="418.735"/>
    </contour>
  </outline>
</glyph>
<glyph name="AE" format="2">
  <advance width="654.6600000000001"/>
  <unicode hex="00C6"/>
  <anchor x="366.9575" y="700.0" name="top"/>
  <outline>
    <contour>
      <point x="8.955" y="0.0" type="line"/>
      <point x="134.5625" y="-0.5625" type="line"/>
      <point x="203.1225" y="203.7625" type="line"/>
      <point x="319.435" y="203.7625" type="line"/>
      <point x="319.435" y="0.0" type="line"/>
      <point x="639.5375" y="0.0" type="line"/>
      <point x="639.5375" y="110.09500000000001" type="line"/>
      <point x="430.0025" y="110.09500000000001" type="line"/>
      <point x="430.0025" y="289.2825" type="line"/>
      <point x="606.73" y="289.2825" type="line"/>
      <point x="606.73" y="394.6275" type="line"/>
      <point x="430.0025" y="394.6275" type="line"/>
      <point x="430.0025" y="587.7674999999999" type="line"/>
      <point x="627.345" y="587.7674999999999" type="line"/>
      <point x="627.345" y="700.0" type="line"/>
      <point x="245.305" y="700.0" type="line"/>
    </contour>
    <contour>
      <point x="230.5275" y="310.28749999999997" type="line"/>
      <point x="318.35499999999996" y="618.0675000000001" type="line"/>
      <point x="318.35499999999996" y="310.28749999999997" type="line"/>
    </contour>
  </outline>
</glyph>
<glyph name="multiply" format="2">
  <advance width="412.36"/>
  <unicode hex="00D7"/>
  <outline>
    <contour>
      <point x="113.77" y="117.275" type="line"/>
      <point x="205.82" y="243.555" type="line"/>
      <point x="298.54499999999996" y="117.815" type="line"/>
      <point x="369.495" y="186.825" type="line"/>
      <point x="276.21" y="315.885" type="line"/>
      <point x="369.17999999999995" y="445.9" type="line"/>
      <point x="298.23" y="514.91" type="line"/>
      <point x="205.82" y="388.62" type="line"/>
      <point x="113.725" y="515.0" type="line"/>
      <point x="42.775000000000006" y="445.99" type="line"/>
      <point x="135.78" y="315.885" type="line"/>
      <point x="42.82" y="186.28500000000003" type="line"/>
    </contour>
  </outline>
</glyph>
<glyph name="Oslash" format="2">
  <advance width="452.2"/>
  <unicode hex="00D8"/>
  <anchor x="226.275" y="700.0" name="top"/>
  <outline>
    <contour>
      <point x="99.17500000000001" y="-10.45" type="line"/>
      <point x="133.725" y="65.15" type="line"/>
      <point x="141.40000000000003" y="64.125" type="line"/>
      <point x="360.20000000000005" y="582.0500000000001" type="line"/>
      <point x="367.2" y="580.2249999999999" type="line"/>
      <point x="426.65000000000003" y="715.5" type="line"/>
      <point x="354.07500000000005" y="715.5" type="line"/>
      <point x="316.0" y="629.0" type="line"/>
      <point x="308.3" y="630.0" type="line"/>
      <point x="94.85000000000001" y="127.15" type="line"/>
      <point x="88.5" y="128.875" type="line"/>
      <point x="26.749999999999996" y="-10.45" type="line"/>
    </contour>
    <contour>
      <point x="226.275" y="87.92500000000001" type="curve" smooth="yes"/>
      <point x="164.575" y="87.92500000000001"/>
      <point x="133.64999999999998" y="136.02500000000003"/>
      <point x="133.64999999999998" y="349.225" type="curve" smooth="yes"/>
      <point x="133.64999999999998" y="563.9000000000001"/>
      <point x="164.675" y="612.0749999999999"/>
      <point x="226.275" y="612.0749999999999" type="curve" smooth="yes"/>
      <point x="288.65000000000003" y="612.0749999999999"/>
      <point x="319.82500000000005" y="564.8"/>
      <point x="319.82500000000005" y="350.09999999999997" type="curve" smooth="yes"/>
      <point x="319.82500000000005" y="136.3"/>
      <point x="288.55" y="87.92500000000001"/>
    </contour>
    <contour>
      <point x="226.175" y="-10.0" type="curve" smooth="yes"/>
      <point x="361.35" y="-10.0"/>
      <point x="430.1" y="70.80000000000001"/>
      <point x="430.1" y="351.375" type="curve" smooth="yes"/>
      <point x="430.1" y="629.85"/>
      <point x="362.45000000000005" y="710.0"/>
      <point x="226.275" y="710.0" type="curve" smooth="yes"/>
      <point x="90.5" y="710.0"/>
      <point x="23.299999999999997" y="628.7249999999999"/>
      <point x="23.299999999999997" y="349.125" type="curve" smooth="yes"/>
      <point x="23.299999999999997" y="70.775"/>
      <point x="91.3" y="-10.0"/>
    </contour>
  </outline>
</glyph>
<glyph name="Thorn" format="2">
  <advance width="426.945"/>
  <unicode hex="00DE"/>
  <outline>
    <contour>
      <point x="38.82" y="0.0" type="line"/>
      <point x="152.54000000000002" y="0.0" type="line"/>
      <point x="152.54000000000002" y="136.14" type="line"/>
      <point x="186.595" y="133.35500000000002"/>
      <point x="194.84500000000003" y="133.31000000000003"/>
      <point x="227.125" y="133.31000000000003" type="curve" smooth="yes"/>
      <point x="354.88500000000005" y="133.31000000000003"/>
      <point x="409.695" y="211.92"/>
      <point x="409.695" y="388.51" type="curve" smooth="yes"/>
      <point x="409.695" y="558.35"/>
      <point x="361.59000000000003" y="628.5150000000001"/>
      <point x="202.52" y="628.5150000000001" type="curve" smooth="yes"/>
      <point x="190.155" y="628.5150000000001"/>
      <point x="174.46999999999997" y="627.965"/>
      <point x="153.03500000000003" y="626.74" type="curve"/>
      <point x="153.03500000000003" y="700.0" type="line"/>
      <point x="38.82" y="700.0" type="line"/>
    </contour>
    <contour>
      <point x="203.44" y="240.37500000000003" type="curve" smooth="yes"/>
      <point x="185.22" y="240.37500000000003"/>
      <point x="173.43500000000003" y="240.565"/>
      <point x="153.03500000000003" y="242.315" type="curve"/>
      <point x="153.03500000000003" y="522.115" type="line"/>
      <point x="180.39000000000001" y="525.395"/>
      <point x="195.495" y="525.89"/>
      <point x="210.35" y="525.89" type="curve" smooth="yes"/>
      <point x="278.58000000000004" y="525.89"/>
      <point x="295.59" y="486.905"/>
      <point x="295.59" y="393.18" type="curve" smooth="yes"/>
      <point x="295.59" y="294.62"/>
      <point x="275.165" y="240.37500000000003"/>
    </contour>
  </outline>
</glyph>
<glyph name="germandbls" format="2">
  <advance width="516.0300000000001"/>
  <unicode hex="00DF"/>
  <outline>
    <contour>
      <point x="66.65" y="0.0" type="line"/>
      <point x="178.37" y="0.0" type="line"/>
      <point x="178.37" y="525.99" type="line" smooth="yes"/>
      <point x="178.37" y="608.99"/>
      <point x="211.71999999999997" y="648.37"/>
      <point x="283.12000000000006" y="648.37" type="curve" smooth="yes"/>
      <point x="335.46000000000004" y="648.37"/>
      <point x="356.65000000000003" y="628.9799999999999"/>
      <point x="356.65000000000003" y="592.5899999999999" type="curve" smooth="yes"/>
      <point x="356.65000000000003" y="564.8699999999999"/>
      <point x="348.33000000000004" y="549.07"/>
      <point x="304.66" y="520.23" type="curve" smooth="yes"/>
      <point x="253.19" y="488.27000000000004"/>
      <point x="225.26" y="449.16999999999996"/>
      <point x="225.26" y="387.12" type="curve" smooth="yes"/>
      <point x="225.26" y="302.07000000000005"/>
      <point x="256.81000000000006" y="265.73999999999995"/>
      <point x="336.8" y="225.58" type="curve" smooth="yes"/>
      <point x="392.42" y="194.97"/>
      <point x="408.34000000000003" y="178.8"/>
      <point x="408.34000000000003" y="146.49" type="curve" smooth="yes"/>
      <point x="408.34000000000003" y="110.80000000000001"/>
      <point x="383.65" y="87.93"/>
      <point x="332.68" y="87.93" type="curve" smooth="yes"/>
      <point x="289.67" y="87.93"/>
      <point x="259.0" y="96.92"/>
      <point x="224.02000000000004" y="108.26000000000002" type="curve"/>
      <point x="206.29" y="15.779999999999998" type="line"/>
      <point x="243.65" y="-1.54"/>
      <point x="291.68999999999994" y="-9.99"/>
      <point x="340.17" y="-9.99" type="curve" smooth="yes"/>
      <point x="442.86" y="-9.99"/>
      <point x="512.2100000000002" y="46.3"/>
      <point x="512.2100000000002" y="153.56000000000003" type="curve" smooth="yes"/>
      <point x="512.2100000000002" y="233.54"/>
      <point x="477.75000000000006" y="278.4800000000001"/>
      <point x="395.75" y="317.31000000000006" type="curve" smooth="yes"/>
      <point x="342.59999999999997" y="344.56"/>
      <point x="330.61999999999995" y="365.32"/>
      <point x="330.61999999999995" y="394.85" type="curve" smooth="yes"/>
      <point x="330.61999999999995" y="421.71000000000004"/>
      <point x="345.34999999999997" y="437.09"/>
      <point x="380.95000000000005" y="459.38000000000005" type="curve" smooth="yes"/>
      <point x="447.22" y="499.28"/>
      <point x="471.78000000000003" y="534.6"/>
      <point x="471.78000000000003" y="595.3499999999999" type="curve" smooth="yes"/>
      <point x="471.78000000000003" y="694.89"/>
      <point x="405.28" y="750.0"/>
      <point x="278.57000000000005" y="750.0" type="curve" smooth="yes"/>
      <point x="142.11999999999998" y="750.0"/>
      <point x="66.60000000000001" y="672.49"/>
      <point x="66.65" y="541.9399999999999" type="curve" smooth="yes"/>
      <point x="66.65" y="506.53" type="line"/>
      <point x="9.87" y="498.85" type="line"/>
      <point x="9.87" y="413.47999999999996" type="line"/>
      <point x="66.65" y="413.47999999999996" type="line"/>
    </contour>
  </outline>
</glyph>
<glyph name="ae" format="2">
  <advance width="588.3074999999999"/>
  <unicode hex="00E6"/>
  <anchor x="296.1025" y="541.0" name="top"/>
  <outline>
    <contour>
      <point x="131.305" y="-10.0" type="curve" smooth="yes"/>
      <point x="187.8675" y="-10.0"/>
      <point x="231.12749999999997" y="13.537500000000001"/>
      <point x="276.5525" y="59.42000000000001" type="curve"/>
      <point x="277.7875" y="59.42000000000001" type="line"/>
      <point x="310.09000000000003" y="11.6775"/>
      <point x="352.47249999999997" y="-10.0"/>
      <point x="417.35999999999996" y="-10.0" type="curve" smooth="yes"/>
      <point x="470.17249999999996" y="-10.0"/>
      <point x="516.6225000000001" y="-0.22499999999999976"/>
      <point x="563.4325" y="18.955000000000002" type="curve"/>
      <point x="547.59" y="116.2025" type="line"/>
      <point x="510.06750000000005" y="104.77000000000001"/>
      <point x="465.75250000000005" y="96.89500000000001"/>
      <point x="435.7975" y="96.89500000000001" type="curve" smooth="yes"/>
      <point x="371.7075" y="96.89500000000001"/>
      <point x="344.2875" y="127.25750000000001"/>
      <point x="343.7675" y="228.23749999999998" type="curve" smooth="yes"/>
      <point x="343.5325" y="232.64499999999998"/>
      <point x="343.5325" y="237.31500000000003"/>
      <point x="343.76250000000005" y="241.13250000000002" type="curve"/>
      <point x="432.21250000000003" y="243.995"/>
      <point x="523.9025" y="256.5175"/>
      <point x="567.0" y="262.28749999999997" type="curve"/>
      <point x="567.4275" y="275.4225"/>
      <point x="568.4375" y="294.2975"/>
      <point x="568.4375" y="309.67" type="curve" smooth="yes"/>
      <point x="568.4375" y="479.915"/>
      <point x="518.9250000000001" y="551.0"/>
      <point x="405.6075" y="551.0" type="curve" smooth="yes"/>
      <point x="355.9925" y="551.0"/>
      <point x="318.5325" y="527.6324999999999"/>
      <point x="292.02000000000004" y="480.39" type="curve"/>
      <point x="291.01" y="480.39" type="line"/>
      <point x="267.22999999999996" y="527.3"/>
      <point x="230.62999999999997" y="551.0"/>
      <point x="171.2025" y="551.0" type="curve" smooth="yes"/>
      <point x="129.9575" y="551.0"/>
      <point x="75.55" y="540.3100000000001"/>
      <point x="33.45" y="524.2" type="curve"/>
      <point x="56.42" y="423.18" type="line"/>
      <point x="101.90500000000002" y="437.9475"/>
      <point x="137.8425" y="440.7475"/>
      <point x="162.14249999999998" y="440.7475" type="curve" smooth="yes"/>
      <point x="205.785" y="440.7475"/>
      <point x="229.43" y="418.36750000000006"/>
      <point x="229.43" y="376.7075" type="curve" smooth="yes"/>
      <point x="229.43" y="322.705" type="line"/>
      <point x="73.81750000000001" y="299.3625"/>
      <point x="10.6425" y="252.98"/>
      <point x="10.6425" y="138.585" type="curve" smooth="yes"/>
      <point x="10.6425" y="45.1925"/>
      <point x="56.3625" y="-10.0"/>
    </contour>
    <contour>
      <point x="167.01749999999998" y="78.77000000000001" type="curve" smooth="yes"/>
      <point x="139.26000000000002" y="78.77000000000001"/>
      <point x="121.2825" y="103.24999999999999"/>
      <point x="121.2825" y="150.01250000000002" type="curve" smooth="yes"/>
      <point x="121.2825" y="210.6775"/>
      <point x="157.8875" y="238.84500000000003"/>
      <point x="229.86249999999998" y="253.3175" type="curve"/>
      <point x="229.8725" y="243.04500000000002"/>
      <point x="229.8725" y="231.54250000000002"/>
      <point x="229.8725" y="221.165" type="curve" smooth="yes"/>
      <point x="229.8725" y="181.445"/>
      <point x="232.65" y="147.4525"/>
      <point x="236.18749999999997" y="121.08500000000001" type="curve"/>
      <point x="219.03500000000003" y="97.235"/>
      <point x="190.80749999999998" y="78.77000000000001"/>
    </contour>
    <contour>
      <point x="342.9125" y="310.9925" type="curve"/>
      <point x="341.98" y="424.6625"/>
      <point x="365.87" y="461.17749999999995"/>
      <point x="400.05" y="461.17749999999995" type="curve" smooth="yes"/>
      <point x="437.52750000000003" y="461.17749999999995"/>
      <point x="454.8125" y="420.45750000000004"/>
      <point x="456.7375" y="320.105" type="curve"/>
      <point x="436.7875" y="316.0"/>
      <point x="384.63750000000005" y="311.00250000000005"/>
    </contour>
  </outline>
</glyph>
<glyph name="eth" format="2">
  <advance width="393.97499999999997"/>
  <unicode hex="00F0"/>
  <outline>
    <contour>
      <point x="277.25" y="436.27500000000003" type="curve"/>
      <point x="283.075" y="518.0500000000001" type="line"/>
      <point x="257.95" y="531.8"/>
      <point x="229.0" y="538.3249999999999"/>
      <point x="197.65" y="538.3249999999999" type="curve" smooth="yes"/>
      <point x="70.625" y="538.3249999999999"/>
      <point x="21.924999999999997" y="448.82500000000005"/>
      <point x="21.924999999999997" y="251.35" type="curve" smooth="yes"/>
      <point x="21.924999999999997" y="68.275"/>
      <point x="74.725" y="-10.0"/>
      <point x="191.15000000000003" y="-10.0" type="curve" smooth="yes"/>
      <point x="328.15" y="-10.0"/>
      <point x="373.8" y="74.225"/>
      <point x="373.8" y="339.85" type="curve" smooth="yes"/>
      <point x="373.8" y="610.975"/>
      <point x="304.37500000000006" y="732.9"/>
      <point x="140.525" y="732.9" type="curve" smooth="yes"/>
      <point x="99.375" y="732.9"/>
      <point x="62.625" y="724.35"/>
      <point x="25.975" y="712.425" type="curve"/>
      <point x="39.525" y="637.6750000000001" type="line"/>
      <point x="66.1" y="645.4000000000001"/>
      <point x="88.35" y="651.375"/>
      <point x="115.625" y="651.375" type="curve" smooth="yes"/>
      <point x="229.65" y="651.375"/>
      <point x="261.59999999999997" y="587.675"/>
      <point x="261.59999999999997" y="353.2" type="curve" smooth="yes"/>
      <point x="261.59999999999997" y="119.325"/>
      <point x="246.42499999999998" y="74.25"/>
      <point x="197.55" y="74.25" type="curve" smooth="yes"/>
      <point x="152.95" y="74.25"/>
      <point x="136.775" y="118.20000000000002"/>
      <point x="136.775" y="251.7" type="curve" smooth="yes"/>
      <point x="136.775" y="412.375"/>
      <point x="160.05" y="454.27500000000003"/>
      <point x="216.32500000000002" y="454.27500000000003" type="curve" smooth="yes"/>
      <point x="236.4" y="454.27500000000003"/>
      <point x="257.4" y="449.8"/>
    </contour>
    <contour>
      <point x="141.15" y="557.8000000000001" type="line"/>
      <point x="246.8" y="634.6999999999999" type="line"/>
      <point x="250.35000000000002" y="642.225" type="line"/>
      <point x="372.4" y="735.7749999999999" type="line"/>
      <point x="281.70000000000005" y="735.8749999999999" type="line"/>
      <point x="211.725" y="683.5000000000001" type="line"/>
      <point x="211.85" y="678.7499999999999" type="line"/>
      <point x="50.74999999999999" y="557.9" type="line"/>
    </contour>
  </outline>
</glyph>
<glyph name="divide" format="2">
  <advance width="426.095"/>
  <unicode hex="00F7"/>
  <outline>
    <contour>
      <point x="155.44500000000002" y="135.14000000000001" type="curve" smooth="yes"/>
      <point x="155.44500000000002" y="95.825"/>
      <point x="171.58999999999997" y="78.65"/>
      <point x="213.38500000000002" y="78.65" type="curve" smooth="yes"/>
      <point x="254.65" y="78.65"/>
      <point x="271.33500000000004" y="95.825"/>
      <point x="271.33500000000004" y="135.14000000000001" type="curve" smooth="yes"/>
      <point x="271.33500000000004" y="174.34"/>
      <point x="254.65000000000003" y="191.74"/>
      <point x="213.38500000000002" y="191.74" type="curve" smooth="yes"/>
      <point x="171.365" y="191.74"/>
      <point x="155.44500000000002" y="174.34"/>
    </contour>
    <contour>
      <point x="155.44500000000002" y="486.73999999999995" type="curve" smooth="yes"/>
      <point x="155.44500000000002" y="447.6500000000001"/>
      <point x="171.59" y="430.925"/>
      <point x="213.38500000000002" y="430.925" type="curve" smooth="yes"/>
      <point x="254.65" y="430.925"/>
      <point x="271.33500000000004" y="447.6500000000001"/>
      <point x="271.33500000000004" y="486.73999999999995" type="curve" smooth="yes"/>
      <point x="271.33500000000004" y="526.84"/>
      <point x="254.65" y="543.5649999999999"/>
      <point x="213.38500000000002" y="543.5649999999999" type="curve" smooth="yes"/>
      <point x="171.365" y="543.5649999999999"/>
      <point x="155.44500000000002" y="526.84"/>
    </contour>
    <contour>
      <point x="43.079999999999984" y="261.67499999999995" type="line"/>
      <point x="383.69000000000005" y="261.67499999999995" type="line"/>
      <point x="383.69000000000005" y="361.375" type="line"/>
      <point x="43.079999999999984" y="361.375" type="line"/>
    </contour>
  </outline>
</glyph>
<glyph name="oslash" format="2">
  <advance width="401.67500000000007"/>
  <unicode hex="00F8"/>
  <anchor x="199.15" y="541.0" name="top"/>
  <outline>
    <contour>
      <point x="199.15" y="-10.0" type="curve" smooth="yes"/>
      <point x="59.9" y="-10.0"/>
      <point x="21.249999999999996" y="86.54999999999998"/>
      <point x="21.249999999999996" y="271.525" type="curve" smooth="yes"/>
      <point x="21.249999999999996" y="455.225"/>
      <point x="57.925" y="551.0"/>
      <point x="199.15" y="551.0" type="curve" smooth="yes"/>
      <point x="340.175" y="551.0"/>
      <point x="377.85" y="455.225"/>
      <point x="377.85" y="271.525" type="curve" smooth="yes"/>
      <point x="377.85" y="86.54999999999998"/>
      <point x="338.425" y="-10.0"/>
    </contour>
    <contour>
      <point x="199.82500000000002" y="83.5" type="curve" smooth="yes"/>
      <point x="250.075" y="83.5"/>
      <point x="267.975" y="116.075"/>
      <point x="267.975" y="271.525" type="curve" smooth="yes"/>
      <point x="267.975" y="425.95"/>
      <point x="251.14999999999998" y="458.275"/>
      <point x="199.82500000000002" y="458.275" type="curve" smooth="yes"/>
      <point x="147.425" y="458.275"/>
      <point x="131.47500000000002" y="425.95"/>
      <point x="131.47500000000002" y="271.525" type="curve" smooth="yes"/>
      <point x="131.47500000000002" y="116.075"/>
      <point x="148.72500000000002" y="83.5"/>
    </contour>
    <contour>
      <point x="19.625" y="-4.949999999999999" type="line"/>
      <point x="86.35000000000001" y="127.6" type="line"/>
      <point x="90.9" y="126.02499999999999" type="line"/>
      <point x="271.15000000000003" y="487.82499999999993" type="line"/>
      <point x="277.05" y="486.25" type="line"/>
      <point x="311.15000000000003" y="551.0" type="line"/>
      <point x="379.47499999999997" y="551.0" type="line"/>
      <point x="319.22499999999997" y="435.45" type="line"/>
      <point x="314.0" y="437.025" type="line"/>
      <point x="130.6" y="66.425" type="line"/>
      <point x="124.7" y="68.0" type="line"/>
      <point x="87.4" y="-4.949999999999999" type="line"/>
    </contour>
  </outline>
</glyph>
<glyph name="thorn" format="2">
  <advance width="398.945"/>
  <unicode hex="00FE"/>
  <outline>
    <contour>
      <point x="35.775" y="-210.0" type="line"/>
      <point x="146.965" y="-210.0" type="line"/>
      <point x="146.965" y="-5.425000000000001" type="line"/>
      <point x="161.96000000000004" y="-8.73"/>
      <point x="175.20999999999998" y="-10.0"/>
      <point x="187.92000000000002" y="-10.0" type="curve" smooth="yes"/>
      <point x="324.90500000000003" y="-10.0"/>
      <point x="377.325" y="70.43"/>
      <point x="377.325" y="284.5799999999999" type="curve" smooth="yes"/>
      <point x="377.325" y="463.11"/>
      <point x="330.99999999999994" y="551.0"/>
      <point x="236.705" y="551.0" type="curve" smooth="yes"/>
      <point x="208.51999999999998" y="551.0"/>
      <point x="172.72000000000003" y="540.295"/>
      <point x="147.955" y="525.56" type="curve"/>
      <point x="147.955" y="740.0" type="line"/>
      <point x="35.775" y="740.0" type="line"/>
    </contour>
    <contour>
      <point x="188.04" y="79.965" type="curve" smooth="yes"/>
      <point x="176.985" y="79.965"/>
      <point x="165.72" y="81.95000000000002"/>
      <point x="148.395" y="86.775" type="curve"/>
      <point x="148.395" y="432.42" type="line"/>
      <point x="167.485" y="443.085"/>
      <point x="180.89000000000001" y="447.04499999999996"/>
      <point x="198.065" y="447.04499999999996" type="curve" smooth="yes"/>
      <point x="239.66500000000002" y="447.04499999999996"/>
      <point x="259.535" y="397.445"/>
      <point x="259.535" y="273.415" type="curve" smooth="yes"/>
      <point x="259.535" y="122.32499999999999"/>
      <point x="240.87" y="79.965"/>
    </contour>
  </outline>
</glyph>
<glyph name="Dcroat" format="2">
  <advance width="449.43250000000006"/>
  <unicode hex="0110"/>
  <outline>
    <contour>
      <point x="2.4450000000000003" y="304.38" type="line"/>
      <point x="229.45250000000001" y="304.38" type="line"/>
      <point x="229.45250000000001" y="404.4875" type="line"/>
      <point x="2.4450000000000003" y="404.4875" type="line"/>
    </contour>
    <component base="D" xOffset="3.1174999999999997"/>
  </outline>
</glyph>
<glyph name="dcroat" format="2">
  <advance width="403.75750000000005"/>
  <unicode hex="0111"/>
  <outline>
    <contour>
      <point x="156.39" y="609.6374999999999" type="line"/>
      <point x="409.83750000000003" y="609.6374999999999" type="line"/>
      <point x="409.83750000000003" y="677.4124999999999" type="line"/>
      <point x="156.39" y="677.4124999999999" type="line"/>
    </contour>
    <component base="d"/>
  </outline>
</glyph>
<glyph name="Hbar" format="2">
  <advance width="455.75500000000005"/>
  <unicode hex="0126"/>
  <outline>
    <contour>
      <point x="7.14" y="501.665" type="line"/>
      <point x="38.915" y="501.665" type="line"/>
      <point x="38.915" y="0.0" type="line"/>
      <point x="152.14" y="0.0" type="line"/>
      <point x="152.14" y="255.415" type="line"/>
      <point x="304.16499999999996" y="255.415" type="line"/>
      <point x="304.16499999999996" y="0.0" type="line"/>
      <point x="416.84" y="0.0" type="line"/>
      <point x="416.84" y="501.665" type="line"/>
      <point x="448.61499999999995" y="501.665" type="line"/>
      <point x="448.61499999999995" y="591.0849999999999" type="line"/>
      <point x="416.84" y="591.0849999999999" type="line"/>
      <point x="416.84" y="700.0" type="line"/>
      <point x="304.16499999999996" y="700.0" type="line"/>
      <point x="304.16499999999996" y="591.0849999999999" type="line"/>
      <point x="152.14" y="591.0849999999999" type="line"/>
      <point x="152.14" y="700.0" type="line"/>
      <point x="38.915" y="700.0" type="line"/>
      <point x="38.915" y="591.0849999999999" type="line"/>
      <point x="7.14" y="591.0849999999999" type="line"/>
    </contour>
    <contour>
      <point x="152.14" y="368.78499999999997" type="line"/>
      <point x="152.14" y="501.665" type="line"/>
      <point x="304.16499999999996" y="501.665" type="line"/>
      <point x="304.16499999999996" y="368.78499999999997" type="line"/>
    </contour>
  </outline>
</glyph>
<glyph name="hbar" format="2">
  <advance width="401.0725"/>
  <unicode hex="0127"/>
  <outline>
    <contour>
      <point x="-3.817500000000001" y="609.6375" type="line"/>
      <point x="242.0125" y="609.6375" type="line"/>
      <point x="242.0125" y="677.4124999999999" type="line"/>
      <point x="-3.817500000000001" y="677.4124999999999" type="line"/>
    </contour>
    <component base="h"/>
  </outline>
</glyph>
<glyph name="Idotaccent" format="2">
  <advance width="190.865"/>
  <unicode hex="0130"/>
  <outline>
    <contour>
      <point x="96.17500000000001" y="760.005" type="curve" smooth="yes"/>
      <point x="141.395" y="760.005"/>
      <point x="161.02" y="780.86"/>
      <point x="161.02" y="828.155" type="curve" smooth="yes"/>
      <point x="161.02" y="876.44"/>
      <point x="140.405" y="896.8000000000001"/>
      <point x="96.17500000000001" y="896.8000000000001" type="curve" smooth="yes"/>
      <point x="51.45" y="896.8000000000001"/>
      <point x="30.835" y="876.44"/>
      <point x="30.835" y="828.155" type="curve" smooth="yes"/>
      <point x="30.835" y="780.365"/>
      <point x="51.9" y="760.005"/>
    </contour>
    <component base="I"/>
  </outline>
</glyph>
<glyph name="dotlessi" format="2">
  <advance width="185.16"/>
  <unicode hex="0131"/>
  <anchor x="145.71" y="5.5" name="ogonek"/>
  <anchor x="93.57000000000001" y="0.0" name="bottom"/>
  <anchor x="92.58" y="541.0" name="top"/>
  <outline>
    <contour>
      <point x="35.775" y="0.0" type="line"/>
      <point x="149.38500000000002" y="0.0" type="line"/>
      <point x="149.38500000000002" y="541.0" type="line"/>
      <point x="35.775" y="541.0" type="line"/>
    </contour>
  </outline>
</glyph>
<glyph name="kgreenlandic" format="2">
  <advance width="380.65"/>
  <unicode hex="0138"/>
  <anchor x="196.05" y="541.0" name="top"/>
  <anchor x="196.05" y="0.0" name="bottom"/>
  <outline>
    <contour>
      <point x="346.20000000000005" y="-8.475" type="curve" smooth="yes"/>
      <point x="357.34999999999997" y="-8.475"/>
      <point x="367.75" y="-7.475"/>
      <point x="378.375" y="-4.625" type="curve"/>
      <point x="377.225" y="116.35000000000001" type="line"/>
      <point x="373.52500000000003" y="116.35000000000001"/>
      <point x="369.5" y="115.45"/>
      <point x="366.3" y="115.45" type="curve" smooth="yes"/>
      <point x="341.67499999999995" y="115.45"/>
      <point x="322.925" y="130.8"/>
      <point x="256.275" y="228.67499999999998" type="curve" smooth="yes"/>
      <point x="141.5" y="397.5" type="line"/>
      <point x="141.5" y="541.0" type="line"/>
      <point x="36.45" y="541.0" type="line"/>
      <point x="36.45" y="0.0" type="line"/>
      <point x="141.5" y="0.0" type="line"/>
      <point x="141.5" y="217.49999999999997" type="line"/>
      <point x="225.60000000000002" y="93.15" type="line" smooth="yes"/>
      <point x="284.125" y="6.4"/>
      <point x="306.2" y="-8.475"/>
    </contour>
    <contour>
      <point x="216.75000000000003" y="226.45" type="line"/>
      <point x="283.975" y="316.575"/>
      <point x="351.425" y="424.07500000000005"/>
      <point x="370.00000000000006" y="535.7500000000001" type="curve"/>
      <point x="261.20000000000005" y="544.225" type="line"/>
      <point x="246.62500000000003" y="434.22499999999997"/>
      <point x="202.175" y="368.725"/>
      <point x="143.67499999999998" y="294.175" type="curve"/>
    </contour>
  </outline>
</glyph>
<glyph name="Ldot" format="2">
  <advance width="347.25000000000006"/>
  <unicode hex="013F"/>
  <outline>
    <contour>
      <point x="224.52" y="382.34499999999997" type="curve" smooth="yes"/>
      <point x="224.52" y="346.27"/>
      <point x="236.4" y="331.3"/>
      <point x="269.125" y="331.3" type="curve" smooth="yes"/>
      <point x="302.795" y="331.3"/>
      <point x="314.225" y="346.27"/>
      <point x="314.225" y="382.34499999999997" type="curve" smooth="yes"/>
      <point x="314.225" y="418.96999999999997"/>
      <point x="302.795" y="433.93999999999994"/>
      <point x="269.125" y="433.93999999999994" type="curve" smooth="yes"/>
      <point x="235.95000000000002" y="433.93999999999994"/>
      <point x="224.52" y="418.96999999999997"/>
    </contour>
    <component base="L"/>
  </outline>
</glyph>
<glyph name="ldot" format="2">
  <advance width="279.625"/>
  <unicode hex="0140"/>
  <outline>
    <contour>
      <point x="232.25000000000003" y="320.04499999999996" type="curve" smooth="yes"/>
      <point x="260.2" y="320.04499999999996"/>
      <point x="273.33500000000004" y="333.365"/>
      <point x="273.33500000000004" y="370.21" type="curve" smooth="yes"/>
      <point x="273.33500000000004" y="407.54999999999995"/>
      <point x="260.2" y="420.87"/>
      <point x="232.25000000000003" y="420.87" type="curve" smooth="yes"/>
      <point x="204.795" y="420.87"/>
      <point x="191.66000000000003" y="407.54999999999995"/>
      <point x="191.66000000000003" y="370.21" type="curve" smooth="yes"/>
      <point x="191.66000000000003" y="333.365"/>
      <point x="205.24499999999998" y="320.04499999999996"/>
    </contour>
    <component base="l"/>
  </outline>
</glyph>
<glyph name="Lslash" format="2">
  <advance width="365.385"/>
  <unicode hex="0141"/>
  <outline>
    <contour>
      <point x="13.749999999999998" y="206.725" type="line"/>
      <point x="56.95499999999999" y="238.725" type="line"/>
      <point x="56.95499999999999" y="0.0" type="line"/>
      <point x="355.585" y="0.0" type="line"/>
      <point x="355.585" y="109.905" type="line"/>
      <point x="170.675" y="109.905" type="line"/>
      <point x="170.675" y="299.03499999999997" type="line"/>
      <point x="296.165" y="387.625" type="line"/>
      <point x="296.165" y="497.90500000000003" type="line"/>
      <point x="170.675" y="409.72" type="line"/>
      <point x="170.675" y="700.0" type="line"/>
      <point x="56.95499999999999" y="700.0" type="line"/>
      <point x="56.95499999999999" y="349.41" type="line"/>
      <point x="13.749999999999998" y="317.40999999999997" type="line"/>
    </contour>
  </outline>
</glyph>
<glyph name="lslash" format="2">
  <advance width="231.115"/>
  <unicode hex="0142"/>
  <outline>
    <contour>
      <point x="151.72" y="-10.0" type="curve" smooth="yes"/>
      <point x="179.615" y="-10.0"/>
      <point x="206.765" y="-1.1299999999999994"/>
      <point x="225.195" y="8.305000000000001" type="curve"/>
      <point x="216.575" y="113.64500000000001" type="line"/>
      <point x="203.97" y="110.31500000000001"/>
      <point x="194.115" y="108.78000000000002"/>
      <point x="186.59" y="108.78000000000002" type="curve" smooth="yes"/>
      <point x="167.48499999999999" y="108.78000000000002"/>
      <point x="154.88500000000002" y="118.915"/>
      <point x="154.88500000000002" y="178.77999999999997" type="curve" smooth="yes"/>
      <point x="154.88500000000002" y="320.37499999999994" type="line"/>
      <point x="219.3" y="377.18" type="line"/>
      <point x="219.3" y="474.54999999999995" type="line"/>
      <point x="154.88500000000002" y="417.74499999999995" type="line"/>
      <point x="154.88500000000002" y="740.0" type="line"/>
      <point x="42.76" y="740.0" type="line"/>
      <point x="42.76" y="325.89500000000004" type="line"/>
      <point x="2.8649999999999998" y="290.63" type="line"/>
      <point x="2.8649999999999998" y="193.665" type="line"/>
      <point x="42.87" y="228.58" type="line"/>
      <point x="42.98" y="150.83999999999997" type="line" smooth="yes"/>
      <point x="43.915" y="27.785000000000004"/>
      <point x="78.625" y="-10.0"/>
    </contour>
  </outline>
</glyph>
<glyph name="Eng" format="2">
  <advance width="458.575"/>
  <unicode hex="014A"/>
  <outline>
    <contour>
      <point x="38.837500000000006" y="0.0" type="line"/>
      <point x="139.82500000000002" y="0.0" type="line"/>
      <point x="139.82500000000002" y="445.6125" type="line"/>
      <point x="310.0875" y="-8.881784197001252e-16" type="line"/>
      <point x="310.0875" y="-9.425" type="line" smooth="yes"/>
      <point x="309.8625" y="-50.83749999999999"/>
      <point x="286.975" y="-68.775"/>
      <point x="245.48749999999998" y="-68.775" type="curve" smooth="yes"/>
      <point x="233.35" y="-68.775"/>
      <point x="219.925" y="-67.9375"/>
      <point x="204.0875" y="-62.425" type="curve"/>
      <point x="185.1625" y="-163.375" type="line"/>
      <point x="206.775" y="-174.0875"/>
      <point x="232.825" y="-182.7625"/>
      <point x="270.1" y="-182.7625" type="curve" smooth="yes"/>
      <point x="372.25" y="-182.7625"/>
      <point x="419.7375" y="-121.12500000000001"/>
      <point x="419.7375" y="-13.025" type="curve" smooth="yes"/>
      <point x="419.7375" y="700.0" type="line"/>
      <point x="319.02500000000003" y="700.0" type="line"/>
      <point x="319.02500000000003" y="240.88750000000002" type="line"/>
      <point x="154.68750000000003" y="700.45" type="line"/>
      <point x="38.837500000000006" y="700.45" type="line"/>
    </contour>
  </outline>
</glyph>
<glyph name="eng" format="2">
  <advance width="401.365"/>
  <unicode hex="014B"/>
  <outline>
    <contour>
      <point x="366.58" y="18.5" type="curve"/>
      <point x="366.58" y="428.32" type="line" smooth="yes"/>
      <point x="366.58" y="507.62000000000006"/>
      <point x="327.73" y="551.0"/>
      <point x="258.31500000000005" y="551.0" type="curve" smooth="yes"/>
      <point x="213.845" y="551.0"/>
      <point x="173.865" y="535.64"/>
      <point x="138.27499999999998" y="509.985" type="curve"/>
      <point x="138.27499999999998" y="541.0" type="line"/>
      <point x="35.775" y="541.0" type="line"/>
      <point x="35.775" y="0.0" type="line"/>
      <point x="148.395" y="0.0" type="line"/>
      <point x="148.395" y="425.46" type="line"/>
      <point x="166.22" y="436.66"/>
      <point x="188.26" y="445.57"/>
      <point x="208.62" y="445.57" type="curve" smooth="yes"/>
      <point x="238.62" y="445.57"/>
      <point x="253.96" y="427.40000000000003"/>
      <point x="253.96" y="392.68" type="curve" smooth="yes"/>
      <point x="253.96" y="15.57" type="line" smooth="yes"/>
      <point x="253.96" y="-41.22"/>
      <point x="242.42000000000002" y="-74.36999999999999"/>
      <point x="220.645" y="-88.76999999999998" type="curve" smooth="yes"/>
      <point x="215.97" y="-91.065"/>
      <point x="209.59" y="-92.30499999999999"/>
      <point x="204.74" y="-93.09499999999998" type="curve"/>
      <point x="203.82999999999998" y="-210.95499999999998" type="line"/>
      <point x="218.555" y="-211.555"/>
      <point x="233.755" y="-210.01000000000002"/>
      <point x="251.23" y="-207.31000000000003" type="curve" smooth="yes"/>
      <point x="323.85499999999996" y="-190.75"/>
      <point x="366.58" y="-111.615"/>
    </contour>
  </outline>
</glyph>
<glyph name="OE" format="2">
  <advance width="631.2449999999999"/>
  <unicode hex="0152"/>
  <outline>
    <contour>
      <point x="616.1225" y="0.0" type="line"/>
      <point x="616.1225" y="110.09500000000001" type="line"/>
      <point x="408.03499999999997" y="110.09500000000001" type="line"/>
      <point x="408.03499999999997" y="303.2325" type="line"/>
      <point x="583.0899999999999" y="303.2325" type="line"/>
      <point x="583.0899999999999" y="408.5775" type="line"/>
      <point x="408.03499999999997" y="408.5775" type="line"/>
      <point x="408.03499999999997" y="587.9925" type="line"/>
      <point x="603.705" y="587.9925" type="line"/>
      <point x="603.705" y="700.0" type="line"/>
      <point x="382.85749999999996" y="700.0" type="line"/>
      <point x="337.615" y="705.5975000000001"/>
      <point x="291.90500000000003" y="707.525"/>
      <point x="247.8425" y="707.525" type="curve" smooth="yes"/>
      <point x="93.22999999999999" y="707.525"/>
      <point x="21.982499999999995" y="617.065"/>
      <point x="21.982499999999995" y="352.66999999999996" type="curve" smooth="yes"/>
      <point x="21.982499999999995" y="68.315"/>
      <point x="101.76749999999998" y="-8.424999999999999"/>
      <point x="245.4075" y="-8.424999999999999" type="curve" smooth="yes"/>
      <point x="291.4925" y="-8.424999999999999"/>
      <point x="346.9525" y="-6.6075"/>
      <point x="407.60749999999996" y="0.0" type="curve"/>
    </contour>
    <contour>
      <point x="294.135" y="99.05250000000001" type="line"/>
      <point x="280.0725" y="97.05250000000001"/>
      <point x="259.535" y="95.16500000000002"/>
      <point x="240.82250000000002" y="95.16500000000002" type="curve" smooth="yes"/>
      <point x="176.65750000000003" y="95.16500000000002"/>
      <point x="139.82500000000002" y="143.50250000000003"/>
      <point x="139.82500000000002" y="350.47999999999996" type="curve" smooth="yes"/>
      <point x="139.82500000000002" y="560.2725"/>
      <point x="176.03000000000003" y="603.6324999999999"/>
      <point x="242.2425" y="603.6324999999999" type="curve" smooth="yes"/>
      <point x="258.2625" y="603.6324999999999"/>
      <point x="277.5425" y="601.51"/>
      <point x="294.135" y="599.5100000000001" type="curve"/>
    </contour>
  </outline>
</glyph>
